<?xml version="1.0" encoding="UTF-8"?>
<svg id="Camada_2" data-name="Camada 2" xmlns="http://www.w3.org/2000/svg" viewBox="0 0 750.79 417.79">
  <defs>
    <style>
      .cls-1 {
        fill: #fff;
      }
    </style>
  </defs>
  <g id="Camada_1-2" data-name="Camada 1">
    <g>
      <path class="cls-1" d="M239.39,45.69v45.75l34.4-45.27L308.18,.92V92.49l-34.63,46.37-34.63,46.37v93.1h138.52v-92.06l-34.63,45.57-34.63,45.57v-92.37l35.09-46.18,35.09-46.18V0H239.39V45.69Z"/>
      <path class="cls-1" d="M69.54,93.22L0,185.89v76.52H138.98v91.75h69.72V187.18H69.21l69.77-93.28L208.75,.61h-69.72L69.54,93.22Z"/>
      <path class="cls-1" d="M244.96,371.6v46.18h6.04v-92.37h-6.04v46.18Z"/>
      <path class="cls-1" d="M385.81,343.22c-3.67,.92-8.51,4.53-11.06,8.2-8.92,12.85-6.93,33.58,3.95,41.11,6.14,4.28,14.6,4.4,21.29,.24,13.2-8.07,15.25-35.85,3.44-45.94-4.42-3.79-11.39-5.2-17.62-3.61Zm10.74,12.05c4.65,3.18,6.6,10.34,4.88,17.92-1.63,7.4-5.62,11.56-11.2,11.56-4.28,0-6.23-.98-8.65-4.22-2.56-3.49-3.44-7.03-3.07-12.17,.28-4.53,1.58-7.89,4.23-10.95,2.56-2.94,4.18-3.73,8.23-3.79,2.56-.06,3.53,.24,5.58,1.65Z"/>
      <path class="cls-1" d="M488.07,343.22c-3.67,.92-8.51,4.53-11.06,8.2-8.92,12.85-6.93,33.58,3.95,41.11,6.14,4.28,14.6,4.4,21.29,.24,13.2-8.07,15.25-35.85,3.44-45.94-4.42-3.79-11.39-5.2-17.62-3.61Zm10.74,12.05c4.65,3.18,6.6,10.34,4.88,17.92-1.63,7.4-5.62,11.56-11.2,11.56-4.28,0-6.23-.98-8.65-4.22-2.56-3.49-3.44-7.03-3.07-12.17,.28-4.53,1.58-7.89,4.23-10.95,2.56-2.94,4.18-3.73,8.23-3.79,2.56-.06,3.53,.24,5.58,1.65Z"/>
      <path class="cls-1" d="M621.94,343.22c-3.67,.92-8.51,4.53-11.06,8.2-8.92,12.85-6.93,33.58,3.95,41.11,6.14,4.28,14.6,4.4,21.29,.24,13.2-8.07,15.25-35.85,3.44-45.94-4.42-3.79-11.39-5.2-17.62-3.61Zm10.74,12.05c4.65,3.18,6.6,10.34,4.88,17.92-1.63,7.4-5.62,11.56-11.2,11.56-4.28,0-6.23-.98-8.65-4.22-2.56-3.49-3.44-7.03-3.07-12.17,.28-4.53,1.58-7.89,4.23-10.95,2.56-2.94,4.18-3.73,8.23-3.79,2.56-.06,3.53,.24,5.58,1.65Z"/>
      <path class="cls-1" d="M285.22,346.03c-.37,3.06-4.46,46.98-4.46,47.9,0,.55,2.51,.67,9.9,.49,9.16-.18,10.04-.31,12.32-1.65,4.23-2.51,6.6-7.4,6.6-13.7,0-5.02-1.53-8.26-4.83-10.22l-1.81-1.1,1.49-.98c4.83-3.3,5.62-14.56,1.39-19.57-2.46-2.94-4.23-3.43-12.83-3.43h-7.48l-.28,2.26Zm14.22,8.75c1.02,1.71,1.07,4.77,.09,6.67-.98,1.77-3.35,3.12-5.58,3.12-1.63,0-1.67-.06-1.44-2.02,.19-1.04,.42-3.73,.6-5.87l.33-3.85,2.56,.24c1.95,.24,2.79,.61,3.44,1.71Zm.19,20.37c1.3,2.02,1.44,5.02,.37,7.1-1.12,2.02-3.44,3.12-6.74,3.12h-2.88l.28-2.32c.14-1.22,.42-4.04,.6-6.18l.33-3.85,3.44,.24c3.11,.18,3.63,.37,4.6,1.9Z"/>
      <path class="cls-1" d="M319.62,345.73c-.42,3-4.46,46.86-4.46,47.9,0,.8,1.53,.92,10.64,.92h10.64l.28-1.71c.14-.92,.37-3.12,.51-4.89l.33-3.18h-12.78l.37-4.95c.14-2.75,.42-5.38,.56-5.81,.19-.67,1.58-.86,6.18-.86h5.95l.33-3.24c.14-1.71,.37-3.91,.51-4.89l.28-1.65h-12.27l.33-3.85c.51-6.42-.09-5.93,6.97-5.93h6.18l.33-3.24c.14-1.71,.37-3.91,.51-4.89l.28-1.65h-21.43l-.23,1.96Z"/>
      <path class="cls-1" d="M348.44,346.03c-.37,2.94-4.46,46.98-4.46,47.83,0,.49,3.21,.67,10.41,.67h10.41l.33-3.24c.14-1.71,.37-3.91,.51-4.89l.28-1.65h-12.27l.28-2.32c.33-2.81,3.53-37.25,3.53-38.05,0-.37-1.91-.61-4.37-.61h-4.37l-.28,2.26Z"/>
      <path class="cls-1" d="M433.45,345.73c-.37,2.81-4.42,46.67-4.42,47.83,0,.86,.7,.98,4.42,.98,2.42,0,4.42-.18,4.42-.49,0-.24,.42-4.83,.93-10.15,.51-5.38,.93-10.15,.93-10.58,0-.61,1.67-.8,7.67-.8,7.02,0,7.67,.12,7.67,1.04,0,.61-.42,5.51-.93,10.89-.51,5.38-.93,9.85-.93,9.91,0,.12,2,.18,4.42,.18,4.18,0,4.42-.06,4.65-1.41,.28-1.84,4.42-46.67,4.42-48.2,0-1.04-.37-1.16-4.37-1.16h-4.37l-.56,5.93c-.28,3.3-.7,7.52-.84,9.36l-.33,3.36-7.76,.18-7.81,.12,.23-1.65c.28-1.96,1.63-16.09,1.63-16.82,0-.24-2-.49-4.42-.49h-4.37l-.28,1.96Z"/>
      <path class="cls-1" d="M522.28,346.03c-.37,2.94-4.46,46.92-4.46,47.83,0,.43,1.53,.67,4.37,.67h4.37l.28-2.02c.14-1.04,.51-5.02,.79-8.69,.33-3.73,.7-7.22,.84-7.77,.19-.73,1.53,1.65,4.69,8.44,2.42,5.26,4.6,9.66,4.88,9.79,.28,.18,2.65,.18,5.3,.12l4.74-.18-4.83-10.09-4.88-10.09,2.42-1.41c4.79-2.81,6.55-6.55,6.55-13.89,0-6.85-1.63-10.58-5.81-13.52-1.39-.98-2.97-1.16-10.27-1.35l-8.69-.24-.28,2.39Zm14.83,8.75c1.72,2.14,1.67,6.61-.19,9.3-1.16,1.77-1.63,1.96-4.42,2.2-3.58,.31-3.39,.86-2.56-8.01l.56-5.44,2.7,.24c2.05,.18,3.02,.61,3.9,1.71Z"/>
      <path class="cls-1" d="M557.79,344.32c0,.8-4.14,45.02-4.46,47.9l-.28,2.32h4.46c4.23,0,4.46-.06,4.69-1.41,.28-1.84,4.42-46.67,4.42-48.2,0-1.04-.37-1.16-4.42-1.16-2.46,0-4.42,.24-4.42,.55Z"/>
      <path class="cls-1" d="M575.27,346.22c-.14,1.35-.42,3.55-.56,4.89l-.28,2.45h7.53c6.09,0,7.48,.18,7.3,.8-.14,.49-4.97,9.54-10.74,20.19-5.76,10.58-10.51,19.45-10.51,19.64s6.97,.37,15.53,.37h15.48l.33-3.73c.51-6.73,1.35-6.06-7.62-6.06-4.32,0-7.9-.12-7.9-.31s4.93-9.42,10.92-20.49l10.88-20.19h-30.07l-.28,2.45Z"/>
      <path class="cls-1" d="M656.34,344.14c0,.18-1.02,11.32-2.32,24.71-1.26,13.4-2.32,24.65-2.32,25.02,0,.43,1.53,.67,4.37,.67h4.37l.23-1.71c.14-.92,.84-8.2,1.53-16.21,.7-7.95,1.39-14.5,1.53-14.5s4.18,7.34,9.02,16.21l8.69,16.21h3.95c2.18,0,3.95-.24,3.95-.55,0-.8,4.14-45.02,4.46-47.96l.28-2.26h-4.46c-4.23,0-4.46,.06-4.69,1.35-.09,.8-.74,7.46-1.44,14.86-.65,7.4-1.35,14.07-1.49,14.86-.28,1.16-1.58-.98-9.06-14.86l-8.74-16.21h-3.95c-2.14,0-3.9,.18-3.9,.37Z"/>
      <path class="cls-1" d="M698.92,345.12c-.14,.8-.37,3-.51,4.89l-.28,3.55h8.46l-.23,1.96c-.37,2.94-3.53,37.01-3.53,38.11,0,.73,.79,.92,4.42,.92,2.42,0,4.42-.12,4.42-.31s.84-9.18,1.86-19.94c1.02-10.83,1.86-19.88,1.86-20.19s1.86-.55,4.14-.55c4.74,0,4.42,.37,4.93-5.99l.33-3.79h-25.66l-.19,1.35Z"/>
      <path class="cls-1" d="M729.13,345.73c-.42,3-4.46,46.86-4.46,47.9,0,.8,1.53,.92,10.64,.92h10.64l.28-1.71c.14-.92,.37-3.12,.51-4.89l.33-3.18h-12.78l.37-4.95c.14-2.75,.42-5.38,.56-5.81,.19-.67,1.58-.86,6.18-.86h5.95l.33-3.24c.14-1.71,.37-3.91,.51-4.89l.28-1.65h-12.27l.33-3.85c.51-6.42-.09-5.93,6.97-5.93h6.18l.33-3.24c.14-1.71,.37-3.91,.51-4.89l.28-1.65h-21.43l-.23,1.96Z"/>
    </g>
  </g>
</svg>