<?xml version="1.0" encoding="utf-8"?>
<!-- Generator: Adobe Illustrator 27.1.1, SVG Export Plug-In . SVG Version: 6.00 Build 0)  -->
<svg version="1.1" id="Layer_1" xmlns="http://www.w3.org/2000/svg" xmlns:xlink="http://www.w3.org/1999/xlink" x="0px" y="0px"
	 viewBox="0 0 45.42 58.53" style="enable-background:new 0 0 45.42 58.53;" xml:space="preserve">
<style type="text/css">
	.st0{fill:#FFFFFF;}
</style>
<g>
	<g>
		<path class="st0" d="M23.42,33.07c-3.19,0-5.79-2.6-5.79-5.79c0-3.19,2.6-5.79,5.79-5.79c3.19,0,5.79,2.6,5.79,5.79
			C29.21,30.47,26.61,33.07,23.42,33.07z M23.42,21.74c-3.06,0-5.54,2.49-5.54,5.54c0,3.06,2.49,5.54,5.54,5.54s5.54-2.49,5.54-5.54
			C28.96,24.22,26.48,21.74,23.42,21.74z"/>
	</g>
	<g>
		<g>
			<g>
				<path class="st0" d="M20.83,27.03h5.18c0.14,0,0.24,0.11,0.24,0.24c0,0.14-0.11,0.24-0.24,0.24h-5.18
					c-0.14,0-0.24-0.11-0.24-0.24C20.59,27.14,20.7,27.03,20.83,27.03z"/>
			</g>
		</g>
		<g>
			<g>
				<path class="st0" d="M24.36,25.39c0.06,0,0.13,0.02,0.17,0.07l1.64,1.64c0.1,0.1,0.1,0.25,0,0.35l-1.64,1.64
					c-0.1,0.1-0.25,0.1-0.35,0c-0.1-0.1-0.1-0.25,0-0.35l1.47-1.47l-1.47-1.47c-0.1-0.1-0.1-0.25,0-0.35
					C24.24,25.41,24.3,25.39,24.36,25.39z"/>
			</g>
		</g>
	</g>
</g>
</svg>
