<?xml version="1.0" encoding="utf-8"?>
<!-- Generator: Adobe Illustrator 27.1.1, SVG Export Plug-In . SVG Version: 6.00 Build 0)  -->
<svg version="1.1" id="Shape_5" xmlns="http://www.w3.org/2000/svg" xmlns:xlink="http://www.w3.org/1999/xlink" x="0px" y="0px"
	 viewBox="0 0 1549.71 952.79" style="enable-background:new 0 0 1549.71 952.79;" xml:space="preserve">
<style type="text/css">
	.st0{fill:url(#SVGID_1_);}
	.st1{fill:#FFFFFF;}
</style>
<g>
	<linearGradient id="SVGID_1_" gradientUnits="userSpaceOnUse" x1="376.0569" y1="487.5588" x2="1243.3776" y2="487.5588">
		<stop  offset="0" style="stop-color:#DA1A61"/>
		<stop  offset="4.136360e-03" style="stop-color:#DA1A61"/>
		<stop  offset="1" style="stop-color:#F89721"/>
	</linearGradient>
	<path class="st0" d="M419.42,530.92c-23.91,0-43.37-19.45-43.37-43.37c0-23.91,19.45-43.37,43.37-43.37h780.59
		c23.91,0,43.37,19.45,43.37,43.37c0,23.91-19.45,43.37-43.37,43.37H419.42z"/>
</g>
<g>
	<path class="st1" d="M479.69,500.65c-0.36,0.36-0.79,0.54-1.31,0.54c-0.51,0-0.95-0.18-1.31-0.54c-0.36-0.36-0.54-0.79-0.54-1.31
		v-27.58c0-0.51,0.18-0.95,0.54-1.31c0.36-0.36,0.79-0.54,1.31-0.54c0.51,0,0.95,0.18,1.31,0.54c0.36,0.36,0.54,0.79,0.54,1.31
		v27.58C480.22,499.86,480.04,500.3,479.69,500.65z"/>
	<path class="st1" d="M491.63,500.72c-0.33,0.31-0.72,0.47-1.18,0.47s-0.85-0.16-1.18-0.47c-0.33-0.31-0.49-0.71-0.49-1.2v-27.84
		c0-0.48,0.17-0.9,0.51-1.24c0.34-0.34,0.76-0.51,1.24-0.51c1.17,0,2.06,0.51,2.66,1.54l14.22,24.11c0,0.03,0.03,0.04,0.09,0.04
		c0.03,0,0.04-0.01,0.04-0.04v-23.98c0-0.49,0.16-0.88,0.49-1.2c0.33-0.31,0.72-0.47,1.18-0.47c0.46,0,0.85,0.16,1.18,0.47
		c0.33,0.31,0.49,0.71,0.49,1.2v27.84c0,0.49-0.17,0.9-0.51,1.24c-0.34,0.34-0.76,0.51-1.24,0.51c-1.17,0-2.06-0.51-2.66-1.54
		l-14.22-24.11c0-0.03-0.03-0.04-0.08-0.04c-0.03,0-0.04,0.01-0.04,0.04v23.98C492.13,500,491.96,500.4,491.63,500.72z"/>
	<path class="st1" d="M518.55,472.84c-0.4,0-0.74-0.14-1.03-0.43c-0.29-0.29-0.43-0.63-0.43-1.03c0-0.4,0.14-0.74,0.43-1.03
		c0.29-0.29,0.63-0.43,1.03-0.43h19.1c0.4,0,0.74,0.14,1.03,0.43c0.29,0.29,0.43,0.63,0.43,1.03c0,0.4-0.14,0.74-0.43,1.03
		c-0.29,0.29-0.63,0.43-1.03,0.43h-7.45c-0.26,0-0.39,0.13-0.39,0.39v26.25c0,0.46-0.16,0.86-0.49,1.2
		c-0.33,0.34-0.74,0.51-1.22,0.51c-0.49,0-0.89-0.17-1.22-0.51c-0.33-0.34-0.49-0.74-0.49-1.2v-26.25c0-0.26-0.13-0.39-0.39-0.39
		H518.55z"/>
	<path class="st1" d="M547.76,501.19c-0.66,0-1.23-0.24-1.71-0.73c-0.49-0.49-0.73-1.06-0.73-1.71v-26.38
		c0-0.66,0.24-1.23,0.73-1.71c0.49-0.48,1.06-0.73,1.71-0.73h14.39c0.4,0,0.74,0.14,1.03,0.43c0.29,0.29,0.43,0.61,0.43,0.99
		s-0.14,0.71-0.43,1.01s-0.63,0.45-1.03,0.45h-13.02c-0.26,0-0.39,0.11-0.39,0.34v9.51c0,0.23,0.13,0.34,0.39,0.34h12.25
		c0.4,0,0.73,0.14,0.99,0.41c0.26,0.27,0.39,0.59,0.39,0.96c0,0.37-0.13,0.69-0.39,0.96c-0.26,0.27-0.58,0.41-0.99,0.41h-12.25
		c-0.26,0-0.39,0.13-0.39,0.39v11.86c0,0.23,0.13,0.34,0.39,0.34h13.02c0.4,0,0.74,0.15,1.03,0.45s0.43,0.64,0.43,1.01
		c0,0.37-0.14,0.7-0.43,0.99c-0.29,0.29-0.63,0.43-1.03,0.43H547.76z"/>
	<path class="st1" d="M573.4,500.67c-0.33,0.34-0.74,0.51-1.22,0.51s-0.89-0.17-1.22-0.51c-0.33-0.34-0.49-0.74-0.49-1.2v-26.9
		c0-0.71,0.23-1.33,0.69-1.86c0.46-0.53,1.03-0.84,1.71-0.92c1.68-0.2,3.55-0.3,5.61-0.3c4,0,7.02,0.74,9.06,2.21
		c2.04,1.47,3.06,3.56,3.06,6.27c0,2.17-0.58,3.98-1.73,5.42c-1.16,1.44-2.81,2.43-4.95,2.98c-0.03,0-0.04,0.03-0.04,0.09
		c0,0.03,0.01,0.04,0.04,0.04c1.23,0.71,2.48,2.57,3.77,5.57l3.08,7.5c0.17,0.37,0.14,0.74-0.11,1.09
		c-0.24,0.36-0.58,0.54-1.01,0.54c-0.54,0-1.04-0.16-1.48-0.47c-0.44-0.31-0.76-0.71-0.96-1.2l-3-7.37
		c-0.86-2.06-1.66-3.33-2.42-3.83s-2.25-0.75-4.48-0.75h-3.04c-0.26,0-0.39,0.11-0.39,0.34v11.56
		C573.89,499.93,573.72,500.33,573.4,500.67z M573.89,473.05v11.39c0,0.26,0.13,0.39,0.39,0.39h3.04c3.4,0,5.9-0.55,7.5-1.65
		c1.6-1.1,2.4-2.73,2.4-4.9c0-4-3.01-6-9.04-6c-1.28,0-2.58,0.11-3.9,0.34C574.02,472.68,573.89,472.82,573.89,473.05z"/>
	<path class="st1" d="M598.86,501.19c-0.66,0-1.23-0.24-1.71-0.73c-0.49-0.49-0.73-1.06-0.73-1.71v-26.38
		c0-0.66,0.24-1.23,0.73-1.71c0.49-0.48,1.06-0.73,1.71-0.73h14.39c0.4,0,0.74,0.14,1.03,0.43c0.29,0.29,0.43,0.61,0.43,0.99
		s-0.14,0.71-0.43,1.01s-0.63,0.45-1.03,0.45h-13.02c-0.26,0-0.39,0.11-0.39,0.34v9.51c0,0.23,0.13,0.34,0.39,0.34h12.25
		c0.4,0,0.73,0.14,0.99,0.41c0.26,0.27,0.39,0.59,0.39,0.96c0,0.37-0.13,0.69-0.39,0.96c-0.26,0.27-0.58,0.41-0.99,0.41h-12.25
		c-0.26,0-0.39,0.13-0.39,0.39v11.86c0,0.23,0.13,0.34,0.39,0.34h13.02c0.4,0,0.74,0.15,1.03,0.45s0.43,0.64,0.43,1.01
		c0,0.37-0.14,0.7-0.43,0.99c-0.29,0.29-0.63,0.43-1.03,0.43H598.86z"/>
	<path class="st1" d="M628.92,486.5c-5.91-2-8.87-5.12-8.87-9.38c0-2.4,0.77-4.27,2.31-5.61c1.54-1.34,3.7-2.01,6.47-2.01
		c2.57,0,4.95,0.39,7.15,1.16c0.46,0.17,0.83,0.46,1.11,0.88c0.29,0.41,0.43,0.88,0.43,1.39c0,0.37-0.16,0.65-0.47,0.84
		c-0.31,0.19-0.64,0.21-0.99,0.06c-2.31-1.03-4.64-1.54-6.98-1.54c-1.71,0-3.09,0.4-4.13,1.2c-1.04,0.8-1.56,2.01-1.56,3.64
		c0,2.8,1.87,4.83,5.61,6.08c3.54,1.17,6.02,2.51,7.45,4.03c1.43,1.51,2.14,3.46,2.14,5.82c0,2.8-0.84,4.93-2.53,6.38
		c-1.68,1.46-4.15,2.18-7.41,2.18c-2.46,0-4.67-0.44-6.64-1.33c-1-0.46-1.5-1.26-1.5-2.4c0-0.37,0.16-0.64,0.47-0.81
		s0.63-0.17,0.94,0c1.94,1.11,4.1,1.67,6.47,1.67c4.51,0,6.77-1.9,6.77-5.7c0-1.54-0.49-2.83-1.46-3.85S631.15,487.27,628.92,486.5z
		"/>
	<path class="st1" d="M651.75,486.5c-5.91-2-8.87-5.12-8.87-9.38c0-2.4,0.77-4.27,2.31-5.61c1.54-1.34,3.7-2.01,6.47-2.01
		c2.57,0,4.95,0.39,7.15,1.16c0.46,0.17,0.83,0.46,1.11,0.88c0.29,0.41,0.43,0.88,0.43,1.39c0,0.37-0.16,0.65-0.47,0.84
		c-0.31,0.19-0.64,0.21-0.99,0.06c-2.31-1.03-4.64-1.54-6.98-1.54c-1.71,0-3.09,0.4-4.13,1.2c-1.04,0.8-1.56,2.01-1.56,3.64
		c0,2.8,1.87,4.83,5.61,6.08c3.54,1.17,6.02,2.51,7.45,4.03c1.43,1.51,2.14,3.46,2.14,5.82c0,2.8-0.84,4.93-2.53,6.38
		c-1.68,1.46-4.15,2.18-7.41,2.18c-2.46,0-4.67-0.44-6.64-1.33c-1-0.46-1.5-1.26-1.5-2.4c0-0.37,0.16-0.64,0.47-0.81
		s0.63-0.17,0.94,0c1.94,1.11,4.1,1.67,6.47,1.67c4.51,0,6.77-1.9,6.77-5.7c0-1.54-0.49-2.83-1.46-3.85S653.98,487.27,651.75,486.5z
		"/>
	<path class="st1" d="M688.82,497.4c-2.41,2.81-5.73,4.22-9.96,4.22s-7.54-1.41-9.96-4.22c-2.41-2.81-3.62-6.76-3.62-11.84
		c0-5.08,1.21-9.03,3.62-11.84c2.41-2.81,5.73-4.22,9.96-4.22s7.54,1.41,9.96,4.22c2.41,2.81,3.62,6.76,3.62,11.84
		C692.44,490.64,691.23,494.59,688.82,497.4z M686.34,475.7c-1.73-2.23-4.22-3.34-7.47-3.34s-5.75,1.11-7.47,3.34
		c-1.73,2.23-2.59,5.51-2.59,9.85c0,4.34,0.86,7.62,2.59,9.85c1.73,2.23,4.22,3.34,7.47,3.34s5.75-1.11,7.47-3.34
		c1.73-2.23,2.59-5.51,2.59-9.85C688.93,481.22,688.06,477.93,686.34,475.7z"/>
	<path class="st1" d="M716.25,498.81c-1.86,1.87-4.54,2.81-8.05,2.81c-3.51,0-6.2-0.94-8.05-2.81c-1.86-1.87-2.78-4.65-2.78-8.33
		v-18.8c0-0.48,0.17-0.9,0.51-1.24c0.34-0.34,0.74-0.51,1.2-0.51c0.48,0,0.9,0.17,1.24,0.51c0.34,0.34,0.51,0.76,0.51,1.24v18.93
		c0,2.77,0.61,4.81,1.82,6.12c1.21,1.31,3.08,1.97,5.59,1.97s4.38-0.66,5.61-1.97c1.23-1.31,1.84-3.35,1.84-6.12v-19.02
		c0-0.49,0.16-0.88,0.49-1.2c0.33-0.31,0.72-0.47,1.18-0.47c0.46,0,0.85,0.16,1.18,0.47c0.33,0.31,0.49,0.71,0.49,1.2v18.89
		C719.04,494.16,718.11,496.94,716.25,498.81z"/>
	<path class="st1" d="M727.43,473.52c-0.4,0.11-0.76,0.06-1.07-0.17c-0.31-0.23-0.47-0.53-0.47-0.9c0-0.48,0.13-0.91,0.41-1.26
		c0.27-0.36,0.63-0.59,1.09-0.71c2.8-0.66,5.58-0.98,8.35-0.98c3.34,0,5.91,0.62,7.71,1.86c1.8,1.24,2.7,2.95,2.7,5.12
		c0,1.03-0.14,1.94-0.41,2.74c-0.27,0.8-0.71,1.53-1.33,2.18c-0.61,0.66-1.15,1.17-1.61,1.54c-0.46,0.37-1.11,0.84-1.97,1.41
		c-1.03,0.69-1.81,1.24-2.36,1.67c-0.54,0.43-1.11,1.06-1.69,1.88c-0.59,0.83-0.98,1.74-1.18,2.74c-0.09,0.49-0.31,0.89-0.66,1.2
		c-0.36,0.31-0.76,0.47-1.22,0.47c-0.49,0-0.89-0.17-1.2-0.51c-0.31-0.34-0.44-0.74-0.39-1.2c0.14-0.97,0.4-1.84,0.77-2.61
		c0.37-0.77,0.88-1.49,1.54-2.16c0.66-0.67,1.2-1.17,1.63-1.5c0.43-0.33,1.08-0.79,1.97-1.39c1.06-0.71,1.83-1.28,2.33-1.69
		c0.5-0.41,0.99-1.02,1.48-1.82c0.49-0.8,0.73-1.68,0.73-2.66c0-2.91-2.43-4.37-7.28-4.37
		C732.68,472.41,730.06,472.78,727.43,473.52z M731.89,497.76c0-0.51,0.18-0.95,0.54-1.31c0.36-0.36,0.79-0.54,1.31-0.54
		s0.96,0.18,1.33,0.54c0.37,0.36,0.56,0.79,0.56,1.31v1.58c0,0.51-0.19,0.95-0.56,1.31s-0.81,0.54-1.33,0.54s-0.95-0.18-1.31-0.54
		c-0.36-0.36-0.54-0.79-0.54-1.31V497.76z"/>
	<path class="st1" d="M775.83,501.62c-4.11,0-7.41-1.41-9.89-4.22c-2.48-2.81-3.73-6.76-3.73-11.84c0-5.05,1.19-8.99,3.58-11.82
		c2.38-2.83,5.69-4.24,9.92-4.24c2.23,0,4.21,0.21,5.95,0.64c0.43,0.11,0.78,0.36,1.05,0.73s0.41,0.79,0.41,1.24
		c0,0.37-0.15,0.66-0.45,0.88c-0.3,0.21-0.64,0.26-1.01,0.15c-1.69-0.51-3.57-0.77-5.65-0.77c-3.23,0-5.75,1.16-7.58,3.47
		c-1.83,2.31-2.74,5.55-2.74,9.72c0,4.14,0.95,7.37,2.85,9.7c1.9,2.33,4.43,3.49,7.6,3.49c2.11,0,4.03-0.26,5.74-0.77
		c0.37-0.11,0.71-0.06,1.01,0.15c0.3,0.21,0.45,0.51,0.45,0.88c0,0.46-0.14,0.86-0.41,1.22c-0.27,0.36-0.62,0.59-1.05,0.71
		C779.95,501.39,777.94,501.62,775.83,501.62z"/>
	<path class="st1" d="M811.57,497.4c-2.41,2.81-5.73,4.22-9.96,4.22s-7.54-1.41-9.96-4.22c-2.41-2.81-3.62-6.76-3.62-11.84
		c0-5.08,1.21-9.03,3.62-11.84c2.41-2.81,5.73-4.22,9.96-4.22s7.54,1.41,9.96,4.22c2.41,2.81,3.62,6.76,3.62,11.84
		C815.19,490.64,813.98,494.59,811.57,497.4z M809.08,475.7c-1.73-2.23-4.22-3.34-7.47-3.34s-5.75,1.11-7.47,3.34
		c-1.73,2.23-2.59,5.51-2.59,9.85c0,4.34,0.86,7.62,2.59,9.85c1.73,2.23,4.22,3.34,7.47,3.34s5.75-1.11,7.47-3.34
		c1.73-2.23,2.59-5.51,2.59-9.85C811.68,481.22,810.81,477.93,809.08,475.7z"/>
	<path class="st1" d="M823.39,500.72c-0.33,0.31-0.72,0.47-1.18,0.47s-0.85-0.16-1.18-0.47c-0.33-0.31-0.49-0.71-0.49-1.2v-27.84
		c0-0.48,0.17-0.9,0.51-1.24c0.34-0.34,0.76-0.51,1.24-0.51c1.17,0,2.06,0.51,2.66,1.54l14.22,24.11c0,0.03,0.03,0.04,0.09,0.04
		c0.03,0,0.04-0.01,0.04-0.04v-23.98c0-0.49,0.16-0.88,0.49-1.2c0.33-0.31,0.72-0.47,1.18-0.47c0.46,0,0.85,0.16,1.18,0.47
		c0.33,0.31,0.49,0.71,0.49,1.2v27.84c0,0.49-0.17,0.9-0.51,1.24c-0.34,0.34-0.76,0.51-1.24,0.51c-1.17,0-2.06-0.51-2.66-1.54
		l-14.22-24.11c0-0.03-0.03-0.04-0.08-0.04c-0.03,0-0.04,0.01-0.04,0.04v23.98C823.88,500,823.72,500.4,823.39,500.72z"/>
	<path class="st1" d="M857.72,486.5c-5.91-2-8.87-5.12-8.87-9.38c0-2.4,0.77-4.27,2.31-5.61c1.54-1.34,3.7-2.01,6.47-2.01
		c2.57,0,4.95,0.39,7.15,1.16c0.46,0.17,0.83,0.46,1.11,0.88c0.29,0.41,0.43,0.88,0.43,1.39c0,0.37-0.16,0.65-0.47,0.84
		c-0.31,0.19-0.64,0.21-0.99,0.06c-2.31-1.03-4.64-1.54-6.98-1.54c-1.71,0-3.09,0.4-4.13,1.2c-1.04,0.8-1.56,2.01-1.56,3.64
		c0,2.8,1.87,4.83,5.61,6.08c3.54,1.17,6.02,2.51,7.45,4.03c1.43,1.51,2.14,3.46,2.14,5.82c0,2.8-0.84,4.93-2.53,6.38
		c-1.68,1.46-4.15,2.18-7.41,2.18c-2.46,0-4.67-0.44-6.64-1.33c-1-0.46-1.5-1.26-1.5-2.4c0-0.37,0.16-0.64,0.47-0.81
		s0.63-0.17,0.94,0c1.94,1.11,4.1,1.67,6.47,1.67c4.51,0,6.77-1.9,6.77-5.7c0-1.54-0.49-2.83-1.46-3.85S859.94,487.27,857.72,486.5z
		"/>
	<path class="st1" d="M891.64,498.81c-1.86,1.87-4.54,2.81-8.05,2.81c-3.51,0-6.2-0.94-8.05-2.81c-1.86-1.87-2.78-4.65-2.78-8.33
		v-18.8c0-0.48,0.17-0.9,0.51-1.24c0.34-0.34,0.74-0.51,1.2-0.51c0.48,0,0.9,0.17,1.24,0.51c0.34,0.34,0.51,0.76,0.51,1.24v18.93
		c0,2.77,0.61,4.81,1.82,6.12c1.21,1.31,3.08,1.97,5.59,1.97s4.38-0.66,5.61-1.97c1.23-1.31,1.84-3.35,1.84-6.12v-19.02
		c0-0.49,0.16-0.88,0.49-1.2c0.33-0.31,0.72-0.47,1.18-0.47c0.46,0,0.85,0.16,1.18,0.47c0.33,0.31,0.49,0.71,0.49,1.2v18.89
		C894.42,494.16,893.49,496.94,891.64,498.81z"/>
	<path class="st1" d="M903.72,501.19c-0.66,0-1.23-0.24-1.71-0.73c-0.49-0.49-0.73-1.06-0.73-1.71v-27.03
		c0-0.49,0.18-0.91,0.54-1.26c0.36-0.36,0.78-0.54,1.26-0.54c0.49,0,0.91,0.18,1.26,0.54c0.36,0.36,0.54,0.78,0.54,1.26v26.17
		c0,0.26,0.11,0.39,0.34,0.39h13.32c0.4,0,0.74,0.14,1.03,0.43c0.29,0.29,0.43,0.63,0.43,1.03s-0.14,0.74-0.43,1.03
		c-0.29,0.29-0.63,0.43-1.03,0.43H903.72z"/>
	<path class="st1" d="M920.16,472.84c-0.4,0-0.74-0.14-1.03-0.43c-0.29-0.29-0.43-0.63-0.43-1.03c0-0.4,0.14-0.74,0.43-1.03
		c0.29-0.29,0.63-0.43,1.03-0.43h19.1c0.4,0,0.74,0.14,1.03,0.43c0.29,0.29,0.43,0.63,0.43,1.03c0,0.4-0.14,0.74-0.43,1.03
		c-0.29,0.29-0.63,0.43-1.03,0.43h-7.45c-0.26,0-0.39,0.13-0.39,0.39v26.25c0,0.46-0.16,0.86-0.49,1.2
		c-0.33,0.34-0.74,0.51-1.22,0.51c-0.49,0-0.89-0.17-1.22-0.51c-0.33-0.34-0.49-0.74-0.49-1.2v-26.25c0-0.26-0.13-0.39-0.39-0.39
		H920.16z"/>
	<path class="st1" d="M949.37,501.19c-0.66,0-1.23-0.24-1.71-0.73c-0.49-0.49-0.73-1.06-0.73-1.71v-26.38
		c0-0.66,0.24-1.23,0.73-1.71c0.49-0.48,1.06-0.73,1.71-0.73h14.39c0.4,0,0.74,0.14,1.03,0.43c0.29,0.29,0.43,0.61,0.43,0.99
		s-0.14,0.71-0.43,1.01s-0.63,0.45-1.03,0.45h-13.02c-0.26,0-0.39,0.11-0.39,0.34v9.51c0,0.23,0.13,0.34,0.39,0.34h12.25
		c0.4,0,0.73,0.14,0.99,0.41c0.26,0.27,0.39,0.59,0.39,0.96c0,0.37-0.13,0.69-0.39,0.96c-0.26,0.27-0.58,0.41-0.99,0.41h-12.25
		c-0.26,0-0.39,0.13-0.39,0.39v11.86c0,0.23,0.13,0.34,0.39,0.34h13.02c0.4,0,0.74,0.15,1.03,0.45s0.43,0.64,0.43,1.01
		c0,0.37-0.14,0.7-0.43,0.99c-0.29,0.29-0.63,0.43-1.03,0.43H949.37z"/>
	<path class="st1" d="M991.26,499.39l-9.72-27.75c-0.14-0.43-0.09-0.82,0.15-1.18c0.24-0.36,0.59-0.54,1.05-0.54
		c0.54,0,1.04,0.16,1.5,0.49c0.46,0.33,0.77,0.75,0.94,1.26l8.65,26.08c0,0.03,0.01,0.04,0.04,0.04c0.06,0,0.09-0.01,0.09-0.04
		l8.65-26.17c0.17-0.51,0.47-0.92,0.9-1.22c0.43-0.3,0.91-0.45,1.46-0.45c0.43,0,0.77,0.18,1.03,0.54c0.26,0.36,0.31,0.74,0.17,1.14
		l-9.77,27.8c-0.2,0.54-0.54,0.98-1.01,1.31c-0.47,0.33-0.99,0.49-1.56,0.49s-1.09-0.16-1.56-0.49
		C991.79,500.37,991.46,499.93,991.26,499.39z"/>
	<path class="st1" d="M1005.82,501.19c-0.43,0-0.77-0.18-1.03-0.54s-0.31-0.73-0.17-1.14l9.76-27.8c0.2-0.54,0.54-0.98,1.01-1.31
		c0.47-0.33,0.99-0.49,1.56-0.49c0.57,0,1.09,0.16,1.56,0.49c0.47,0.33,0.81,0.76,1.01,1.31l9.72,27.75
		c0.14,0.43,0.09,0.82-0.17,1.18c-0.26,0.36-0.6,0.54-1.03,0.54c-0.57,0-1.08-0.16-1.52-0.49c-0.44-0.33-0.75-0.75-0.92-1.26
		l-2.27-7.02c-0.09-0.23-0.26-0.34-0.51-0.34h-11.86c-0.23,0-0.39,0.11-0.47,0.34l-2.36,7.11c-0.17,0.51-0.46,0.92-0.88,1.22
		S1006.36,501.19,1005.82,501.19z M1016.83,473.05l-5.22,15.93c-0.03,0.09-0.01,0.16,0.04,0.24c0.06,0.07,0.13,0.11,0.21,0.11h10.06
		c0.09,0,0.15-0.04,0.19-0.11s0.06-0.15,0.06-0.24l-5.22-15.93c0-0.03-0.01-0.04-0.04-0.04
		C1016.85,473.01,1016.83,473.02,1016.83,473.05z"/>
	<path class="st1" d="M1036.53,501.19c-0.66,0-1.23-0.24-1.71-0.73c-0.49-0.49-0.73-1.06-0.73-1.71v-27.03
		c0-0.49,0.18-0.91,0.54-1.26c0.36-0.36,0.78-0.54,1.26-0.54c0.49,0,0.91,0.18,1.26,0.54c0.36,0.36,0.54,0.78,0.54,1.26v26.17
		c0,0.26,0.11,0.39,0.34,0.39h13.32c0.4,0,0.74,0.14,1.03,0.43c0.29,0.29,0.43,0.63,0.43,1.03s-0.14,0.74-0.43,1.03
		c-0.29,0.29-0.63,0.43-1.03,0.43H1036.53z"/>
	<path class="st1" d="M1078.48,497.4c-2.41,2.81-5.73,4.22-9.96,4.22s-7.54-1.41-9.96-4.22c-2.41-2.81-3.62-6.76-3.62-11.84
		c0-5.08,1.21-9.03,3.62-11.84c2.41-2.81,5.73-4.22,9.96-4.22s7.54,1.41,9.96,4.22c2.41,2.81,3.62,6.76,3.62,11.84
		C1082.1,490.64,1080.89,494.59,1078.48,497.4z M1075.99,475.7c-1.73-2.23-4.22-3.34-7.47-3.34s-5.75,1.11-7.47,3.34
		c-1.73,2.23-2.59,5.51-2.59,9.85c0,4.34,0.86,7.62,2.59,9.85c1.73,2.23,4.22,3.34,7.47,3.34s5.75-1.11,7.47-3.34
		c1.73-2.23,2.59-5.51,2.59-9.85C1078.59,481.22,1077.72,477.93,1075.99,475.7z"/>
	<path class="st1" d="M1090.39,500.67c-0.33,0.34-0.74,0.51-1.22,0.51s-0.89-0.17-1.22-0.51c-0.33-0.34-0.49-0.74-0.49-1.2v-26.9
		c0-0.71,0.23-1.33,0.69-1.86c0.46-0.53,1.03-0.84,1.71-0.92c1.68-0.2,3.55-0.3,5.61-0.3c4,0,7.02,0.74,9.06,2.21
		c2.04,1.47,3.06,3.56,3.06,6.27c0,2.17-0.58,3.98-1.73,5.42c-1.16,1.44-2.81,2.43-4.95,2.98c-0.03,0-0.04,0.03-0.04,0.09
		c0,0.03,0.01,0.04,0.04,0.04c1.23,0.71,2.48,2.57,3.77,5.57l3.08,7.5c0.17,0.37,0.14,0.74-0.11,1.09
		c-0.24,0.36-0.58,0.54-1.01,0.54c-0.54,0-1.04-0.16-1.48-0.47c-0.44-0.31-0.76-0.71-0.96-1.2l-3-7.37
		c-0.86-2.06-1.66-3.33-2.42-3.83s-2.25-0.75-4.48-0.75h-3.04c-0.26,0-0.39,0.11-0.39,0.34v11.56
		C1090.88,499.93,1090.71,500.33,1090.39,500.67z M1090.88,473.05v11.39c0,0.26,0.13,0.39,0.39,0.39h3.04c3.4,0,5.9-0.55,7.5-1.65
		c1.6-1.1,2.4-2.73,2.4-4.9c0-4-3.01-6-9.04-6c-1.28,0-2.58,0.11-3.9,0.34C1091.01,472.68,1090.88,472.82,1090.88,473.05z"/>
	<path class="st1" d="M1115.85,501.19c-0.66,0-1.23-0.24-1.71-0.73c-0.49-0.49-0.73-1.06-0.73-1.71v-26.38
		c0-0.66,0.24-1.23,0.73-1.71c0.49-0.48,1.06-0.73,1.71-0.73h14.39c0.4,0,0.74,0.14,1.03,0.43c0.29,0.29,0.43,0.61,0.43,0.99
		s-0.14,0.71-0.43,1.01s-0.63,0.45-1.03,0.45h-13.02c-0.26,0-0.39,0.11-0.39,0.34v9.51c0,0.23,0.13,0.34,0.39,0.34h12.25
		c0.4,0,0.73,0.14,0.99,0.41c0.26,0.27,0.39,0.59,0.39,0.96c0,0.37-0.13,0.69-0.39,0.96c-0.26,0.27-0.58,0.41-0.99,0.41h-12.25
		c-0.26,0-0.39,0.13-0.39,0.39v11.86c0,0.23,0.13,0.34,0.39,0.34h13.02c0.4,0,0.74,0.15,1.03,0.45s0.43,0.64,0.43,1.01
		c0,0.37-0.14,0.7-0.43,0.99c-0.29,0.29-0.63,0.43-1.03,0.43H1115.85z"/>
	<path class="st1" d="M1145.91,486.5c-5.91-2-8.87-5.12-8.87-9.38c0-2.4,0.77-4.27,2.31-5.61c1.54-1.34,3.7-2.01,6.47-2.01
		c2.57,0,4.95,0.39,7.15,1.16c0.46,0.17,0.83,0.46,1.11,0.88c0.29,0.41,0.43,0.88,0.43,1.39c0,0.37-0.16,0.65-0.47,0.84
		c-0.31,0.19-0.64,0.21-0.99,0.06c-2.31-1.03-4.64-1.54-6.98-1.54c-1.71,0-3.09,0.4-4.13,1.2c-1.04,0.8-1.56,2.01-1.56,3.64
		c0,2.8,1.87,4.83,5.61,6.08c3.54,1.17,6.02,2.51,7.45,4.03c1.43,1.51,2.14,3.46,2.14,5.82c0,2.8-0.84,4.93-2.53,6.38
		c-1.68,1.46-4.15,2.18-7.41,2.18c-2.46,0-4.67-0.44-6.64-1.33c-1-0.46-1.5-1.26-1.5-2.4c0-0.37,0.16-0.64,0.47-0.81
		s0.63-0.17,0.94,0c1.94,1.11,4.1,1.67,6.47,1.67c4.51,0,6.77-1.9,6.77-5.7c0-1.54-0.49-2.83-1.46-3.85
		S1148.14,487.27,1145.91,486.5z"/>
</g>
</svg>
