<?xml version="1.0" encoding="utf-8"?>
<!-- Generator: Adobe Illustrator 27.1.1, SVG Export Plug-In . SVG Version: 6.00 Build 0)  -->
<svg version="1.1" id="Layer_1" xmlns="http://www.w3.org/2000/svg" xmlns:xlink="http://www.w3.org/1999/xlink" x="0px" y="0px"
	 viewBox="0 0 45.42 58.53" style="enable-background:new 0 0 45.42 58.53;" xml:space="preserve">
<style type="text/css">
	.st0{fill:#FFFFFF;}
</style>
<g>
	<g>
		<path class="st0" d="M17.63,27.28c0-3.19,2.6-5.79,5.79-5.79c3.19,0,5.79,2.6,5.79,5.79c0,3.19-2.6,5.79-5.79,5.79
			C20.23,33.07,17.63,30.47,17.63,27.28z M17.88,27.28c0,3.06,2.49,5.54,5.54,5.54s5.54-2.49,5.54-5.54c0-3.06-2.49-5.54-5.54-5.54
			S17.88,24.22,17.88,27.28z"/>
	</g>
	<g>
		<g>
			<g>
				<path class="st0" d="M26.01,27.03h-5.18c-0.14,0-0.24,0.11-0.24,0.24c0,0.14,0.11,0.24,0.24,0.24h5.18
					c0.14,0,0.24-0.11,0.24-0.24C26.25,27.14,26.14,27.03,26.01,27.03z"/>
			</g>
		</g>
		<g>
			<g>
				<path class="st0" d="M22.48,25.39c-0.06,0-0.13,0.02-0.17,0.07l-1.64,1.64c-0.1,0.1-0.1,0.25,0,0.35l1.64,1.64
					c0.1,0.1,0.25,0.1,0.35,0c0.1-0.1,0.1-0.25,0-0.35l-1.47-1.47l1.47-1.47c0.1-0.1,0.1-0.25,0-0.35
					C22.6,25.41,22.54,25.39,22.48,25.39z"/>
			</g>
		</g>
	</g>
</g>
</svg>
