<?xml version="1.0" encoding="utf-8"?>
<!-- Generator: Adobe Illustrator 27.1.1, SVG Export Plug-In . SVG Version: 6.00 Build 0)  -->
<svg version="1.1" id="Shape_5" xmlns="http://www.w3.org/2000/svg" xmlns:xlink="http://www.w3.org/1999/xlink" x="0px" y="0px"
	 viewBox="0 0 1445.46 713.01" style="enable-background:new 0 0 1445.46 713.01;" xml:space="preserve">
<style type="text/css">
	.st0{fill:url(#SVGID_1_);}
	.st1{fill:#FFFFFF;}
</style>
<g>
	<linearGradient id="SVGID_1_" gradientUnits="userSpaceOnUse" x1="251.1013" y1="345.4738" x2="1197.7761" y2="345.4738">
		<stop  offset="0" style="stop-color:#D91A61"/>
		<stop  offset="4.136360e-03" style="stop-color:#D91A61"/>
		<stop  offset="1" style="stop-color:#F79621"/>
	</linearGradient>
	<path class="st0" d="M338.28,432.65c-48.07,0-87.18-39.11-87.18-87.18s39.11-87.18,87.18-87.18h772.31
		c48.07,0,87.18,39.11,87.18,87.18s-39.11,87.18-87.18,87.18H338.28z"/>
</g>
<g>
	<path class="st1" d="M380.71,372.87c-1.32,0-2.48-0.48-3.45-1.47c-0.99-0.97-1.47-2.12-1.47-3.45v-53.04
		c0-1.32,0.48-2.46,1.47-3.45c0.97-0.97,2.12-1.45,3.45-1.45h28.93c0.8,0,1.49,0.27,2.06,0.86c0.57,0.57,0.86,1.22,0.86,1.98
		c0,0.74-0.29,1.41-0.86,2.02c-0.57,0.61-1.26,0.9-2.06,0.9h-26.17c-0.53,0-0.78,0.23-0.78,0.69v19.11c0,0.46,0.25,0.69,0.78,0.69
		h24.62c0.8,0,1.47,0.27,1.98,0.82c0.53,0.55,0.78,1.2,0.78,1.93c0,0.76-0.25,1.39-0.78,1.93c-0.5,0.55-1.18,0.82-1.98,0.82h-24.62
		c-0.53,0-0.78,0.25-0.78,0.78v23.86c0,0.44,0.25,0.67,0.78,0.67h26.17c0.8,0,1.49,0.32,2.06,0.9c0.57,0.61,0.86,1.28,0.86,2.04
		c0,0.74-0.29,1.41-0.86,1.98c-0.57,0.57-1.26,0.86-2.06,0.86H380.71z"/>
	<path class="st1" d="M432.06,371.92c-0.67,0.63-1.45,0.95-2.38,0.95c-0.92,0-1.7-0.32-2.38-0.95c-0.65-0.63-0.99-1.45-0.99-2.42
		v-55.96c0-0.99,0.36-1.81,1.03-2.5c0.69-0.69,1.53-1.03,2.5-1.03c2.35,0,4.14,1.03,5.34,3.09l28.59,48.48
		c0,0.06,0.06,0.08,0.17,0.08c0.06,0,0.08-0.02,0.08-0.08v-48.22c0-0.97,0.34-1.77,0.99-2.4c0.67-0.63,1.45-0.95,2.38-0.95
		c0.92,0,1.7,0.32,2.38,0.95c0.65,0.63,0.99,1.43,0.99,2.4v55.98c0,0.97-0.36,1.81-1.03,2.5c-0.69,0.67-1.53,1.03-2.5,1.03
		c-2.35,0-4.14-1.03-5.34-3.11l-28.59-48.48c0-0.04-0.06-0.08-0.17-0.08c-0.06,0-0.08,0.04-0.08,0.08v48.22
		C433.05,370.47,432.71,371.29,432.06,371.92z"/>
	<path class="st1" d="M486.17,315.86c-0.8,0-1.49-0.27-2.06-0.86c-0.59-0.57-0.86-1.26-0.86-2.06s0.27-1.49,0.86-2.06
		c0.57-0.59,1.26-0.86,2.06-0.86h38.41c0.8,0,1.49,0.27,2.06,0.86c0.57,0.57,0.86,1.26,0.86,2.06s-0.29,1.49-0.86,2.06
		c-0.57,0.59-1.26,0.86-2.06,0.86h-14.99c-0.5,0-0.78,0.25-0.78,0.78v52.78c0,0.92-0.32,1.72-0.99,2.42
		c-0.65,0.67-1.47,1.03-2.46,1.03c-0.97,0-1.79-0.36-2.44-1.03c-0.67-0.69-0.99-1.49-0.99-2.42v-52.78c0-0.53-0.27-0.78-0.78-0.78
		H486.17z"/>
	<path class="st1" d="M545.89,371.84c-0.67,0.67-1.49,1.03-2.46,1.03s-1.79-0.36-2.46-1.03c-0.65-0.69-0.99-1.49-0.99-2.42v-54.07
		c0-1.45,0.46-2.69,1.39-3.76c0.9-1.05,2.06-1.66,3.45-1.85c3.38-0.4,7.15-0.59,11.27-0.59c8.03,0,14.11,1.47,18.2,4.44
		c4.12,2.94,6.16,7.15,6.16,12.61c0,4.35-1.16,7.99-3.49,10.89c-2.31,2.9-5.63,4.9-9.94,5.99c-0.04,0-0.08,0.04-0.08,0.17
		c0,0.04,0.04,0.08,0.08,0.08c2.48,1.43,5,5.17,7.59,11.18l6.2,15.07c0.34,0.76,0.27,1.47-0.23,2.21c-0.48,0.71-1.16,1.07-2.02,1.07
		c-1.09,0-2.08-0.32-2.96-0.95c-0.9-0.63-1.53-1.45-1.93-2.42l-6.03-14.82c-1.72-4.12-3.34-6.68-4.86-7.69
		c-1.53-1.01-4.52-1.51-9-1.51h-6.12c-0.53,0-0.78,0.23-0.78,0.69v23.25C546.88,370.34,546.54,371.14,545.89,371.84z M546.88,316.3
		v22.89c0,0.53,0.25,0.78,0.78,0.78h6.12c6.81,0,11.83-1.09,15.05-3.32c3.22-2.21,4.83-5.49,4.83-9.86
		c0-8.03-6.05-12.05-18.18-12.05c-2.56,0-5.19,0.23-7.82,0.69C547.13,315.54,546.88,315.84,546.88,316.3z"/>
	<path class="st1" d="M597.08,372.87c-1.32,0-2.48-0.48-3.45-1.47c-0.99-0.97-1.47-2.12-1.47-3.45v-53.04
		c0-1.32,0.48-2.46,1.47-3.45c0.97-0.97,2.12-1.45,3.45-1.45H626c0.8,0,1.49,0.27,2.06,0.86c0.57,0.57,0.86,1.22,0.86,1.98
		c0,0.74-0.29,1.41-0.86,2.02s-1.26,0.9-2.06,0.9h-26.17c-0.53,0-0.78,0.23-0.78,0.69v19.11c0,0.46,0.25,0.69,0.78,0.69h24.62
		c0.8,0,1.47,0.27,1.98,0.82c0.53,0.55,0.78,1.2,0.78,1.93c0,0.76-0.25,1.39-0.78,1.93c-0.5,0.55-1.18,0.82-1.98,0.82h-24.62
		c-0.53,0-0.78,0.25-0.78,0.78v23.86c0,0.44,0.25,0.67,0.78,0.67H626c0.8,0,1.49,0.32,2.06,0.9c0.57,0.61,0.86,1.28,0.86,2.04
		c0,0.74-0.29,1.41-0.86,1.98c-0.57,0.57-1.26,0.86-2.06,0.86H597.08z"/>
	<path class="st1" d="M671.85,371.84c-0.67,0.67-1.49,1.03-2.46,1.03s-1.79-0.36-2.46-1.03c-0.65-0.69-0.99-1.49-0.99-2.42v-54.07
		c0-1.39,0.46-2.61,1.39-3.66c0.9-1.07,2.06-1.68,3.45-1.87c4.41-0.44,8.62-0.67,12.65-0.67c7.8,0,13.73,1.64,17.76,4.94
		c4.06,3.3,6.08,8.03,6.08,14.17c0,6.66-2.04,11.71-6.12,15.16c-4.06,3.45-9.99,5.17-17.72,5.17c-3.11,0-6.37-0.15-9.82-0.44
		c-0.53,0-0.78,0.21-0.78,0.61v20.66C672.84,370.34,672.5,371.14,671.85,371.84z M672.84,316.3v25.31c0,0.46,0.25,0.74,0.78,0.86
		c2.75,0.4,5.84,0.61,9.29,0.61c5.68,0,10.03-1.24,13.05-3.72c3.01-2.46,4.52-5.99,4.52-10.57c0-4.6-1.49-8.09-4.44-10.47
		c-2.96-2.38-7.34-3.57-13.14-3.57c-3.09,0-6.2,0.23-9.29,0.69C673.09,315.54,672.84,315.84,672.84,316.3z"/>
	<path class="st1" d="M709.77,372.87c-0.86,0-1.56-0.36-2.06-1.07c-0.53-0.74-0.63-1.49-0.36-2.29l19.63-55.87
		c0.4-1.09,1.09-1.98,2.04-2.63c0.95-0.67,1.98-0.99,3.13-0.99s2.21,0.32,3.15,0.99c0.95,0.65,1.62,1.53,2.02,2.63l19.55,55.79
		c0.27,0.86,0.17,1.64-0.36,2.38c-0.5,0.71-1.2,1.07-2.06,1.07c-1.16,0-2.17-0.34-3.05-0.99c-0.9-0.67-1.51-1.51-1.87-2.54
		l-4.56-14.13c-0.17-0.46-0.5-0.69-1.03-0.69h-23.84c-0.46,0-0.78,0.23-0.95,0.69l-4.75,14.29c-0.34,1.03-0.92,1.85-1.77,2.46
		C711.83,372.55,710.87,372.87,709.77,372.87z M731.91,316.3l-10.51,32.02c-0.06,0.19-0.02,0.34,0.08,0.48
		c0.13,0.15,0.25,0.21,0.44,0.21h20.22c0.17,0,0.32-0.06,0.4-0.21c0.08-0.15,0.13-0.29,0.13-0.48l-10.51-32.02
		c0-0.06-0.02-0.08-0.08-0.08C731.97,316.21,731.91,316.24,731.91,316.3z"/>
	<path class="st1" d="M772.5,371.84c-0.67,0.67-1.49,1.03-2.46,1.03s-1.79-0.36-2.46-1.03c-0.65-0.69-0.99-1.49-0.99-2.42v-54.07
		c0-1.45,0.46-2.69,1.39-3.76c0.9-1.05,2.06-1.66,3.45-1.85c3.38-0.4,7.15-0.59,11.27-0.59c8.03,0,14.11,1.47,18.2,4.44
		c4.12,2.94,6.16,7.15,6.16,12.61c0,4.35-1.16,7.99-3.49,10.89c-2.31,2.9-5.63,4.9-9.94,5.99c-0.04,0-0.08,0.04-0.08,0.17
		c0,0.04,0.04,0.08,0.08,0.08c2.48,1.43,5,5.17,7.59,11.18l6.2,15.07c0.34,0.76,0.27,1.47-0.23,2.21c-0.48,0.71-1.16,1.07-2.02,1.07
		c-1.09,0-2.08-0.32-2.96-0.95c-0.9-0.63-1.53-1.45-1.93-2.42l-6.03-14.82c-1.72-4.12-3.34-6.68-4.86-7.69
		c-1.53-1.01-4.52-1.51-9-1.51h-6.12c-0.53,0-0.78,0.23-0.78,0.69v23.25C773.49,370.34,773.15,371.14,772.5,371.84z M773.49,316.3
		v22.89c0,0.53,0.25,0.78,0.78,0.78h6.12c6.81,0,11.83-1.09,15.05-3.32c3.22-2.21,4.83-5.49,4.83-9.86
		c0-8.03-6.05-12.05-18.18-12.05c-2.56,0-5.19,0.23-7.82,0.69C773.74,315.54,773.49,315.84,773.49,316.3z"/>
	<path class="st1" d="M817.82,372.87c-0.86,0-1.56-0.36-2.06-1.07c-0.53-0.74-0.63-1.49-0.36-2.29l19.63-55.87
		c0.4-1.09,1.09-1.98,2.04-2.63c0.95-0.67,1.98-0.99,3.13-0.99c1.16,0,2.21,0.32,3.15,0.99c0.95,0.65,1.62,1.53,2.02,2.63
		l19.55,55.79c0.27,0.86,0.17,1.64-0.36,2.38c-0.5,0.71-1.2,1.07-2.06,1.07c-1.16,0-2.17-0.34-3.05-0.99
		c-0.9-0.67-1.51-1.51-1.87-2.54l-4.56-14.13c-0.17-0.46-0.5-0.69-1.03-0.69h-23.84c-0.46,0-0.78,0.23-0.95,0.69l-4.75,14.29
		c-0.34,1.03-0.92,1.85-1.77,2.46C819.88,372.55,818.91,372.87,817.82,372.87z M839.96,316.3l-10.51,32.02
		c-0.06,0.19-0.02,0.34,0.08,0.48c0.13,0.15,0.25,0.21,0.44,0.21h20.22c0.17,0,0.32-0.06,0.4-0.21s0.13-0.29,0.13-0.48l-10.51-32.02
		c0-0.06-0.02-0.08-0.08-0.08C840.02,316.21,839.96,316.24,839.96,316.3z"/>
	<path class="st1" d="M941.34,365.24c-4.86,5.65-11.54,8.49-20.03,8.49c-8.49,0-15.16-2.84-20.01-8.49
		c-4.86-5.65-7.27-13.58-7.27-23.8c0-10.22,2.42-18.16,7.27-23.82c4.86-5.65,11.52-8.47,20.01-8.47c8.49,0,15.18,2.82,20.03,8.47
		c4.83,5.65,7.27,13.6,7.27,23.82C948.62,351.66,946.18,359.58,941.34,365.24z M936.34,321.64c-3.47-4.48-8.47-6.73-15.03-6.73
		c-6.54,0-11.54,2.25-15.01,6.73c-3.49,4.48-5.21,11.08-5.21,19.8c0,8.72,1.72,15.32,5.21,19.8c3.47,4.48,8.47,6.71,15.01,6.71
		c6.56,0,11.56-2.23,15.03-6.71c3.47-4.48,5.21-11.08,5.21-19.8C941.55,332.72,939.81,326.12,936.34,321.64z"/>
	<path class="st1" d="M988.51,371.84c-0.67,0.67-1.49,1.03-2.46,1.03s-1.79-0.36-2.46-1.03c-0.65-0.69-0.99-1.49-0.99-2.42v-54.07
		c0-1.39,0.46-2.61,1.39-3.66c0.9-1.07,2.06-1.68,3.45-1.87c4.41-0.44,8.62-0.67,12.65-0.67c7.8,0,13.73,1.64,17.76,4.94
		c4.06,3.3,6.08,8.03,6.08,14.17c0,6.66-2.04,11.71-6.12,15.16c-4.06,3.45-9.99,5.17-17.72,5.17c-3.11,0-6.37-0.15-9.82-0.44
		c-0.53,0-0.78,0.21-0.78,0.61v20.66C989.5,370.34,989.17,371.14,988.51,371.84z M989.5,316.3v25.31c0,0.46,0.25,0.74,0.78,0.86
		c2.75,0.4,5.84,0.61,9.29,0.61c5.68,0,10.03-1.24,13.05-3.72c3.01-2.46,4.52-5.99,4.52-10.57c0-4.6-1.49-8.09-4.44-10.47
		c-2.96-2.38-7.34-3.57-13.14-3.57c-3.09,0-6.2,0.23-9.29,0.69C989.75,315.54,989.5,315.84,989.5,316.3z"/>
	<path class="st1" d="M1036.61,310.01h34.69c0.76,0,1.41,0.27,2,0.86c0.57,0.57,0.86,1.22,0.86,1.98c0,1.89-0.5,3.68-1.47,5.34
		c-8.79,14.8-16.25,31.91-22.39,51.31c-0.29,0.97-0.86,1.79-1.72,2.42c-0.86,0.63-1.83,0.95-2.92,0.95c-0.93,0-1.64-0.36-2.17-1.07
		c-0.5-0.74-0.63-1.51-0.34-2.38c6.5-19.7,14.59-37.48,24.28-53.39v-0.08l0.08-0.08c0-0.04-0.02-0.08-0.08-0.08h-30.82
		c-0.82,0-1.49-0.29-2.08-0.9c-0.57-0.61-0.86-1.28-0.86-2.02c0-0.76,0.29-1.41,0.86-1.98
		C1035.12,310.29,1035.79,310.01,1036.61,310.01z"/>
</g>
</svg>
