<?xml version="1.0" encoding="UTF-8"?>
<svg id="Camada_2" data-name="Camada 2" xmlns="http://www.w3.org/2000/svg" viewBox="0 0 145.08 145.08">
  <defs>
    <style>
      .cls-1 {
        fill: #fff;
      }

      .cls-2 {
        fill: #883093;
      }
    </style>
  </defs>
  <g id="Shape_5" data-name="Shape 5">
    <path class="cls-2" d="M145.08,72.54c0,40.06-32.48,72.54-72.54,72.54S0,112.6,0,72.54,32.48,0,72.54,0s72.54,32.48,72.54,72.54"/>
    <path class="cls-1" d="M116.81,52.44c.07,1.01-.22,2.03-.59,2.96-.43,1.09-1,2.15-1.54,3.19-1.04,2.01-2.2,4.34-1.87,6.66,.33,2.33,2.11,4.23,3.67,5.86,.81,.85,1.65,1.7,2.37,2.63,.62,.79,1.18,1.69,1.4,2.68,.11,.49,.13,.99,.06,1.49s-.23,.97-.48,1.41c-.49,.89-1.28,1.59-2.1,2.17-.95,.69-2,1.27-3.02,1.85-1.95,1.13-4.2,2.46-5.17,4.6-.98,2.13-.51,4.7-.08,6.92,.22,1.15,.47,2.32,.58,3.49,.09,1,.07,2.06-.27,3.01-.17,.48-.42,.91-.75,1.29s-.72,.69-1.16,.93c-.89,.48-1.94,.65-2.94,.7-1.18,.06-2.37-.02-3.55-.07-2.25-.11-4.86-.2-6.83,1.07-1.97,1.27-2.97,3.68-3.81,5.77-.44,1.09-.86,2.21-1.41,3.25-.46,.89-1.05,1.77-1.85,2.38-.4,.31-.85,.53-1.33,.67-.49,.14-.98,.2-1.48,.16-1.01-.08-1.97-.51-2.85-1-1.02-.58-1.98-1.3-2.94-1.98-1.84-1.31-3.98-2.79-6.33-2.79s-4.49,1.48-6.33,2.79c-.96,.68-1.92,1.4-2.94,1.98-.87,.49-1.84,.92-2.85,1-.5,.04-1-.01-1.48-.16-.48-.14-.93-.36-1.33-.67-.81-.61-1.39-1.49-1.86-2.38-.54-1.04-.97-2.16-1.4-3.25-.84-2.1-1.84-4.5-3.81-5.77s-4.58-1.18-6.83-1.07c-1.17,.06-2.36,.13-3.54,.07-1-.05-2.04-.22-2.94-.7-.45-.24-.83-.55-1.16-.93-.33-.38-.59-.81-.76-1.29-.35-.95-.36-2.01-.27-3.01,.1-1.17,.35-2.34,.58-3.49,.43-2.22,.89-4.78-.09-6.92-.98-2.14-3.22-3.47-5.17-4.6-1.02-.59-2.07-1.17-3.02-1.85-.81-.59-1.6-1.29-2.09-2.17-.25-.44-.41-.91-.48-1.41s-.05-1,.06-1.49c.22-.99,.79-1.89,1.4-2.68,.72-.93,1.57-1.78,2.38-2.63,1.56-1.63,3.33-3.54,3.67-5.86,.33-2.33-.83-4.66-1.87-6.66-.54-1.04-1.11-2.1-1.54-3.19-.36-.93-.65-1.95-.59-2.96,.03-.51,.15-.99,.36-1.45,.21-.46,.49-.87,.85-1.22,.72-.71,1.68-1.16,2.62-1.49,1.11-.39,2.28-.65,3.42-.93,2.2-.53,4.72-1.18,6.26-2.95,1.54-1.77,1.82-4.37,2.03-6.61,.11-1.17,.2-2.36,.43-3.51,.19-.98,.5-2,1.11-2.81,.3-.4,.66-.75,1.08-1.02,.43-.27,.89-.46,1.38-.56,.99-.21,2.04-.07,3.01,.16,1.15,.27,2.27,.68,3.38,1.07,2.13,.74,4.6,1.56,6.86,.9s3.89-2.69,5.29-4.47c.72-.92,1.45-1.88,2.27-2.73,.69-.72,1.5-1.4,2.45-1.76,.47-.18,.96-.27,1.47-.27s1,.09,1.47,.27c.95,.36,1.76,1.04,2.45,1.76,.82,.85,1.54,1.8,2.26,2.73,1.39,1.77,3.03,3.81,5.28,4.47,2.26,.66,4.73-.16,6.86-.9,1.11-.39,2.23-.8,3.38-1.07,.98-.23,2.03-.37,3.02-.16,.49,.1,.95,.29,1.38,.56s.79,.62,1.09,1.02c.6,.82,.91,1.83,1.11,2.81,.23,1.15,.32,2.34,.43,3.51,.22,2.25,.49,4.84,2.03,6.61,1.54,1.77,4.07,2.42,6.26,2.95,1.15,.28,2.31,.54,3.42,.93,.95,.33,1.91,.79,2.63,1.49,.36,.36,.65,.76,.85,1.22,.18,.46,.3,.94,.34,1.45m1.82,8.19c1.37-2.65,2.81-5.4,2.61-8.48-.07-1.04-.32-2.05-.76-3-1.89-4.13-5.88-5.15-9.9-6.12-.97-.24-3.26-.76-3.94-1.54-.68-.79-.87-3.12-.96-4.12-.29-3-.52-6.02-2.39-8.54-.62-.84-1.38-1.55-2.26-2.12-3.81-2.44-7.74-1.15-11.63,.2-.95,.33-3.15,1.13-4.15,.84-1-.3-2.42-2.16-3.04-2.95-1.87-2.37-3.69-4.78-6.63-5.9-.98-.37-2-.56-3.05-.56-4.53,0-7.12,3.22-9.67,6.46-.62,.79-2.04,2.66-3.04,2.95-1,.3-3.21-.51-4.15-.84-2.85-.98-5.7-2.02-8.77-1.38-1.02,.21-1.99,.61-2.86,1.17-3.82,2.46-4.26,6.56-4.65,10.67-.1,1-.28,3.33-.97,4.12-.68,.79-2.97,1.31-3.94,1.54-2.93,.71-5.88,1.37-8.12,3.58-.74,.73-1.34,1.58-1.77,2.54-1.87,4.08-.02,7.84,1.86,11.48,.46,.89,1.57,2.96,1.42,3.99-.15,1.03-1.8,2.7-2.49,3.43-2.08,2.18-4.21,4.34-4.89,7.4-.23,1.02-.27,2.06-.12,3.1,.65,4.49,4.2,6.6,7.77,8.66,.87,.5,2.92,1.64,3.35,2.59s-.05,3.25-.24,4.23c-.57,2.95-1.19,5.94-.12,8.87,.36,.98,.89,1.88,1.57,2.67,2.97,3.43,7.1,3.28,11.22,3.09,1-.05,3.34-.2,4.22,.37,.88,.56,1.71,2.75,2.09,3.68,1.12,2.8,2.2,5.63,4.7,7.52,.83,.63,1.76,1.1,2.76,1.4,4.3,1.27,7.76-1.09,11.1-3.47,.82-.58,2.71-1.97,3.75-1.97s2.93,1.39,3.75,1.97c2.46,1.75,4.89,3.55,8.02,3.79,1.04,.08,2.08-.03,3.08-.32,4.35-1.28,5.93-5.09,7.46-8.92,.37-.93,1.21-3.12,2.09-3.68,.88-.57,3.22-.42,4.22-.37,3.02,.14,6.04,.34,8.8-1.15,.92-.49,1.74-1.15,2.42-1.94,2.97-3.43,2.24-7.49,1.45-11.54-.19-.98-.67-3.28-.23-4.23s2.48-2.09,3.35-2.59c2.62-1.51,5.26-2.98,6.78-5.72,.51-.92,.84-1.9,.99-2.94,.65-4.49-2.17-7.51-5.02-10.5-.69-.72-2.34-2.4-2.49-3.43-.15-1.04,.96-3.1,1.42-3.99"/>
    <path class="cls-1" d="M61,70.15c5.43,0,9.01-4.45,9.01-9.72v-.11c0-5.22-3.53-9.62-8.9-9.62s-9.02,4.4-9.02,9.72v.11c0,5.22,3.58,9.62,8.91,9.62m-3.15,17.16c0,1.19,.92,2.12,2.12,2.12,.76,0,1.47-.33,1.9-.98l24.93-34.05c.27-.38,.49-.87,.49-1.41,0-1.19-.98-2.12-2.17-2.12-.76,0-1.47,.33-1.85,.98l-24.93,34.05c-.28,.38-.49,.87-.49,1.41m26.12,2.28c5.38,0,9.02-4.46,9.02-9.72v-.11c0-5.21-3.58-9.61-8.91-9.61s-9.02,4.4-9.02,9.72v.11c0,5.21,3.58,9.61,8.91,9.61m-22.87-23.63c-2.44,0-4.18-2.44-4.18-5.54v-.11c0-2.93,1.52-5.43,4.07-5.43s4.18,2.5,4.18,5.54v.11c0,2.94-1.51,5.43-4.07,5.43m22.98,19.45c-2.44,0-4.18-2.44-4.18-5.54v-.11c0-2.93,1.52-5.43,4.07-5.43s4.18,2.5,4.18,5.54v.11c0,2.93-1.52,5.43-4.07,5.43"/>
  </g>
</svg>