<?xml version="1.0" encoding="utf-8"?>
<!-- Generator: Adobe Illustrator 27.1.1, SVG Export Plug-In . SVG Version: 6.00 Build 0)  -->
<svg version="1.1" id="Shape_5" xmlns="http://www.w3.org/2000/svg" xmlns:xlink="http://www.w3.org/1999/xlink" x="0px" y="0px"
	 viewBox="0 0 1653.97 775.56" style="enable-background:new 0 0 1653.97 775.56;" xml:space="preserve">
<style type="text/css">
	.st0{fill:url(#SVGID_1_);}
	.st1{fill:#FFFFFF;}
</style>
<g>
	<linearGradient id="SVGID_1_" gradientUnits="userSpaceOnUse" x1="295.4928" y1="370.5674" x2="1372.2112" y2="370.5674">
		<stop  offset="0" style="stop-color:#783390"/>
		<stop  offset="4.136360e-03" style="stop-color:#783390"/>
		<stop  offset="1" style="stop-color:#E72163"/>
	</linearGradient>
	<path class="st0" d="M357.8,432.88c-34.36,0-62.31-27.95-62.31-62.31s27.95-62.31,62.31-62.31h952.1
		c34.36,0,62.31,27.95,62.31,62.31s-27.95,62.31-62.31,62.31H357.8z"/>
</g>
<g>
	<path class="st1" d="M402.62,390.15c-0.62,0-1.12-0.26-1.48-0.77c-0.38-0.52-0.45-1.06-0.25-1.63l14.03-39.94
		c0.29-0.78,0.77-1.4,1.44-1.87c0.67-0.48,1.43-0.71,2.24-0.71c0.83,0,1.57,0.23,2.26,0.71c0.67,0.47,1.15,1.09,1.44,1.87
		l13.97,39.88c0.21,0.62,0.13,1.18-0.25,1.7c-0.36,0.51-0.86,0.77-1.48,0.77c-0.82,0-1.54-0.23-2.18-0.71
		c-0.64-0.47-1.08-1.08-1.32-1.82l-3.27-10.09c-0.12-0.32-0.36-0.49-0.73-0.49H410c-0.32,0-0.56,0.17-0.67,0.49l-3.38,10.22
		c-0.25,0.74-0.67,1.32-1.26,1.75C404.09,389.93,403.4,390.15,402.62,390.15z M418.43,349.71l-7.51,22.9
		c-0.04,0.12-0.01,0.23,0.06,0.34s0.18,0.16,0.31,0.16h14.46c0.12,0,0.22-0.05,0.27-0.16c0.06-0.1,0.09-0.22,0.09-0.34l-7.51-22.9
		c0-0.04-0.01-0.05-0.05-0.05C418.47,349.66,418.43,349.67,418.43,349.71z"/>
	<path class="st1" d="M459.54,390.76c-6.15,0-11.18-2.08-15.07-6.24c-3.9-4.16-5.85-9.78-5.85-16.83c0-7.13,1.97-12.77,5.9-16.9
		c3.94-4.12,9.3-6.17,16.07-6.17c3.24,0,6.17,0.3,8.79,0.92c0.62,0.12,1.13,0.44,1.52,0.95c0.39,0.52,0.58,1.08,0.58,1.7
		c0,0.53-0.23,0.96-0.67,1.28c-0.45,0.34-0.95,0.42-1.48,0.25c-2.67-0.74-5.45-1.1-8.31-1.1c-5.46,0-9.71,1.67-12.77,5.02
		c-3.05,3.35-4.58,8.03-4.58,14.06c0,5.86,1.49,10.52,4.46,13.94s6.93,5.14,11.84,5.14c3,0,5.77-0.43,8.31-1.3
		c0.32-0.12,0.49-0.36,0.49-0.74v-16.24c0-0.38-0.17-0.56-0.49-0.56h-12.06c-0.57,0-1.05-0.19-1.41-0.58
		c-0.38-0.39-0.56-0.86-0.56-1.39c0-0.53,0.18-1,0.56-1.39c0.36-0.39,0.84-0.58,1.41-0.58h13.79c0.95,0,1.76,0.35,2.46,1.05
		c0.69,0.7,1.04,1.52,1.04,2.46v17.04c0,1.06-0.3,2.05-0.88,2.93c-0.6,0.88-1.39,1.48-2.37,1.82
		C467.13,390.26,463.56,390.76,459.54,390.76z"/>
	<path class="st1" d="M487.18,390.15c-0.95,0-1.76-0.35-2.46-1.05c-0.7-0.69-1.05-1.52-1.05-2.45v-37.92c0-0.93,0.35-1.76,1.05-2.45
		c0.7-0.7,1.52-1.05,2.46-1.05h20.67c0.57,0,1.06,0.21,1.48,0.61c0.42,0.41,0.62,0.89,0.62,1.43c0,0.53-0.21,1.01-0.62,1.44
		c-0.41,0.43-0.91,0.65-1.48,0.65h-18.7c-0.38,0-0.56,0.17-0.56,0.49v13.66c0,0.34,0.18,0.49,0.56,0.49h17.6
		c0.57,0,1.04,0.19,1.41,0.58c0.36,0.39,0.56,0.86,0.56,1.39c0,0.53-0.19,1-0.56,1.39c-0.38,0.39-0.84,0.58-1.41,0.58h-17.6
		c-0.38,0-0.56,0.18-0.56,0.56v17.04c0,0.32,0.18,0.49,0.56,0.49h18.7c0.57,0,1.06,0.22,1.48,0.65c0.42,0.43,0.62,0.91,0.62,1.44
		c0,0.54-0.21,1.01-0.62,1.43c-0.41,0.4-0.91,0.61-1.48,0.61H487.18z"/>
	<path class="st1" d="M523.88,389.47c-0.48,0.45-1.04,0.67-1.7,0.67c-0.65,0-1.22-0.22-1.69-0.67c-0.47-0.45-0.71-1.02-0.71-1.72
		v-40c0-0.7,0.25-1.3,0.74-1.79c0.49-0.49,1.09-0.74,1.79-0.74c1.69,0,2.96,0.74,3.81,2.22l20.44,34.64c0,0.05,0.04,0.06,0.12,0.06
		c0.04,0,0.06-0.01,0.06-0.06v-34.46c0-0.7,0.23-1.27,0.7-1.72c0.48-0.45,1.04-0.67,1.7-0.67c0.65,0,1.22,0.22,1.69,0.67
		c0.48,0.45,0.71,1.02,0.71,1.72v40c0,0.7-0.25,1.3-0.74,1.79c-0.49,0.49-1.09,0.74-1.79,0.74c-1.67,0-2.94-0.74-3.81-2.22
		l-20.43-34.64c0-0.05-0.04-0.06-0.13-0.06c-0.04,0-0.06,0.01-0.06,0.06v34.46C524.58,388.45,524.35,389.02,523.88,389.47z"/>
	<path class="st1" d="M565.44,390.33c-0.99-0.12-1.8-0.56-2.46-1.32c-0.65-0.75-0.99-1.65-0.99-2.67v-37.3
		c0-1.02,0.32-1.92,0.96-2.67c0.64-0.77,1.47-1.21,2.49-1.32c2.26-0.29,4.73-0.43,7.44-0.43c14.6,0,21.92,7.48,21.92,22.46
		c0,15.8-7.31,23.68-21.92,23.68C570.18,390.76,567.7,390.62,565.44,390.33z M566.92,349.78v35.82c0,0.32,0.18,0.53,0.56,0.61
		c1.6,0.29,3.4,0.44,5.41,0.44c5.95,0,10.31-1.54,13.09-4.62c2.76-3.09,4.15-8.07,4.15-14.95c0-6.28-1.4-10.91-4.21-13.89
		c-2.81-2.97-7.15-4.46-13.02-4.46c-2.01,0-3.81,0.16-5.41,0.44C567.1,349.24,566.92,349.45,566.92,349.78z"/>
	<path class="st1" d="M606,390.15c-0.95,0-1.76-0.35-2.46-1.05c-0.7-0.69-1.05-1.52-1.05-2.45v-37.92c0-0.93,0.35-1.76,1.05-2.45
		c0.7-0.7,1.52-1.05,2.46-1.05h20.67c0.57,0,1.06,0.21,1.48,0.61c0.41,0.41,0.62,0.89,0.62,1.43c0,0.53-0.21,1.01-0.62,1.44
		c-0.41,0.43-0.91,0.65-1.48,0.65h-18.7c-0.38,0-0.56,0.17-0.56,0.49v13.66c0,0.34,0.18,0.49,0.56,0.49h17.6
		c0.57,0,1.04,0.19,1.41,0.58c0.36,0.39,0.56,0.86,0.56,1.39c0,0.53-0.19,1-0.56,1.39c-0.38,0.39-0.84,0.58-1.41,0.58h-17.6
		c-0.38,0-0.56,0.18-0.56,0.56v17.04c0,0.32,0.18,0.49,0.56,0.49h18.7c0.57,0,1.06,0.22,1.48,0.65s0.62,0.91,0.62,1.44
		c0,0.54-0.21,1.01-0.62,1.43c-0.41,0.4-0.91,0.61-1.48,0.61H606z"/>
	<path class="st1" d="M681.75,386.74c-2.67,2.68-6.52,4.02-11.58,4.02c-5.04,0-8.9-1.34-11.57-4.02c-2.66-2.7-3.99-6.68-3.99-11.97
		v-27.01c0-0.7,0.25-1.3,0.74-1.79c0.49-0.49,1.06-0.74,1.72-0.74c0.69,0,1.28,0.25,1.78,0.74c0.49,0.49,0.74,1.09,0.74,1.79v27.2
		c0,3.98,0.87,6.91,2.62,8.79c1.74,1.89,4.42,2.84,8.03,2.84c3.62,0,6.3-0.95,8.07-2.84c1.76-1.88,2.65-4.81,2.65-8.79v-27.33
		c0-0.7,0.23-1.27,0.7-1.72c0.48-0.45,1.04-0.67,1.7-0.67c0.65,0,1.22,0.22,1.69,0.67c0.48,0.45,0.71,1.02,0.71,1.72v27.14
		C685.74,380.06,684.41,384.04,681.75,386.74z"/>
	<path class="st1" d="M699.62,389.43c-0.47,0.48-1.04,0.71-1.69,0.71c-0.66,0-1.22-0.23-1.66-0.71c-0.45-0.47-0.69-1.02-0.69-1.69
		v-40c0-0.7,0.25-1.3,0.71-1.79c0.47-0.49,1.05-0.74,1.75-0.74c1.69,0,2.93,0.74,3.76,2.22l13.47,24.8c0,0.04,0.04,0.06,0.12,0.06
		c0.04,0,0.06-0.03,0.06-0.06l13.47-24.73c0.78-1.52,2.05-2.28,3.81-2.28c0.7,0,1.31,0.26,1.82,0.77c0.52,0.52,0.78,1.13,0.78,1.82
		v39.88c0,0.66-0.23,1.23-0.71,1.72c-0.47,0.49-1.05,0.74-1.75,0.74s-1.28-0.25-1.75-0.74c-0.48-0.49-0.71-1.06-0.71-1.72v-34.15
		c0-0.05-0.01-0.06-0.06-0.06c-0.04,0-0.05,0.01-0.05,0.06l-11.52,21.23c-0.74,1.35-1.87,2.02-3.38,2.02s-2.65-0.67-3.38-2.02
		l-11.57-21.23c0-0.05-0.01-0.06-0.06-0.06c-0.04,0-0.05,0.01-0.05,0.06v34.21C700.33,388.41,700.09,388.97,699.62,389.43z"/>
	<path class="st1" d="M762.97,349.41c-0.57,0-1.06-0.21-1.48-0.62c-0.4-0.4-0.61-0.89-0.61-1.48c0-0.57,0.21-1.06,0.61-1.48
		c0.42-0.4,0.91-0.61,1.48-0.61h27.44c0.58,0,1.08,0.21,1.48,0.61c0.41,0.41,0.62,0.91,0.62,1.48c0,0.58-0.21,1.08-0.62,1.48
		c-0.4,0.42-0.89,0.62-1.48,0.62h-10.7c-0.38,0-0.56,0.18-0.56,0.54v37.73c0,0.66-0.23,1.23-0.71,1.72
		c-0.47,0.49-1.05,0.74-1.75,0.74s-1.28-0.25-1.75-0.74c-0.47-0.49-0.71-1.06-0.71-1.72v-37.73c0-0.36-0.18-0.54-0.54-0.54H762.97z"
		/>
	<path class="st1" d="M830.01,384.7c-3.46,4.05-8.24,6.06-14.3,6.06s-10.84-2.01-14.3-6.06c-3.48-4.05-5.2-9.71-5.2-17.02
		c0-7.3,1.72-12.97,5.2-17.02c3.46-4.05,8.24-6.06,14.3-6.06s10.84,2.01,14.3,6.06c3.48,4.05,5.2,9.71,5.2,17.02
		C835.21,374.99,833.48,380.66,830.01,384.7z M826.44,353.54c-2.48-3.2-6.06-4.81-10.74-4.81s-8.26,1.61-10.74,4.81
		c-2.48,3.19-3.72,7.91-3.72,14.15c0,6.24,1.24,10.96,3.72,14.15c2.48,3.2,6.06,4.81,10.74,4.81s8.26-1.61,10.74-4.81
		c2.48-3.19,3.72-7.91,3.72-14.15C830.16,361.45,828.92,356.73,826.44,353.54z"/>
	<path class="st1" d="M869.43,386.74c-2.67,2.68-6.52,4.02-11.58,4.02c-5.04,0-8.9-1.34-11.57-4.02c-2.66-2.7-3.99-6.68-3.99-11.97
		v-27.01c0-0.7,0.25-1.3,0.74-1.79c0.49-0.49,1.06-0.74,1.72-0.74c0.69,0,1.28,0.25,1.78,0.74c0.49,0.49,0.74,1.09,0.74,1.79v27.2
		c0,3.98,0.87,6.91,2.62,8.79c1.74,1.89,4.42,2.84,8.03,2.84c3.62,0,6.3-0.95,8.07-2.84c1.76-1.88,2.65-4.81,2.65-8.79v-27.33
		c0-0.7,0.23-1.27,0.7-1.72c0.48-0.45,1.04-0.67,1.7-0.67c0.65,0,1.22,0.22,1.69,0.67c0.48,0.45,0.71,1.02,0.71,1.72v27.14
		C873.43,380.06,872.09,384.04,869.43,386.74z"/>
	<path class="st1" d="M887.49,389.41c-0.47,0.49-1.05,0.74-1.75,0.74s-1.28-0.25-1.75-0.74c-0.47-0.49-0.71-1.06-0.71-1.72v-38.65
		c0-1.02,0.34-1.92,0.99-2.67c0.66-0.77,1.48-1.21,2.46-1.32c2.43-0.29,5.11-0.43,8.07-0.43c5.75,0,10.08,1.05,13.01,3.16
		c2.93,2.11,4.41,5.12,4.41,9.01c0,3.13-0.83,5.72-2.5,7.78c-1.66,2.08-4.02,3.5-7.11,4.28c-0.04,0-0.05,0.04-0.05,0.13
		c0,0.04,0.01,0.05,0.05,0.05c1.76,1.02,3.58,3.7,5.42,8l4.44,10.78c0.25,0.53,0.19,1.05-0.16,1.57c-0.35,0.51-0.83,0.77-1.45,0.77
		c-0.78,0-1.48-0.22-2.13-0.67c-0.64-0.45-1.09-1.02-1.37-1.72l-4.31-10.58c-1.23-2.96-2.4-4.8-3.49-5.51
		c-1.08-0.71-3.23-1.08-6.42-1.08h-4.37c-0.38,0-0.56,0.17-0.56,0.49v16.61C888.2,388.35,887.96,388.92,887.49,389.41z
		 M888.2,349.71v16.38c0,0.36,0.18,0.54,0.56,0.54h4.37c4.88,0,8.47-0.79,10.76-2.36c2.3-1.58,3.45-3.93,3.45-7.06
		c0-5.75-4.33-8.61-12.99-8.61c-1.84,0-3.71,0.17-5.59,0.49C888.38,349.18,888.2,349.39,888.2,349.71z"/>
	<path class="st1" d="M941.4,389.41c-0.47,0.49-1.05,0.74-1.75,0.74s-1.28-0.25-1.75-0.74c-0.47-0.49-0.71-1.06-0.71-1.72v-38.65
		c0-0.99,0.34-1.85,0.99-2.61c0.66-0.77,1.48-1.21,2.46-1.34c3.16-0.32,6.17-0.48,9.05-0.48c5.58,0,9.8,1.18,12.71,3.53
		c2.89,2.36,4.33,5.75,4.33,10.13c0,4.76-1.45,8.36-4.37,10.83c-2.92,2.46-7.13,3.7-12.67,3.7c-2.22,0-4.57-0.1-7.02-0.31
		c-0.38,0-0.56,0.14-0.56,0.43v14.77C942.11,388.35,941.88,388.92,941.4,389.41z M942.11,349.71v18.09c0,0.34,0.18,0.54,0.56,0.62
		c1.97,0.29,4.18,0.43,6.64,0.43c4.06,0,7.17-0.88,9.32-2.65s3.23-4.28,3.23-7.57c0-3.28-1.05-5.77-3.16-7.47
		c-2.11-1.7-5.24-2.55-9.39-2.55c-2.22,0-4.44,0.17-6.64,0.49C942.29,349.18,942.11,349.39,942.11,349.71z"/>
	<path class="st1" d="M978.32,389.41c-0.47,0.49-1.05,0.74-1.75,0.74s-1.28-0.25-1.75-0.74c-0.47-0.49-0.71-1.06-0.71-1.72v-38.65
		c0-1.02,0.34-1.92,0.99-2.67c0.66-0.77,1.48-1.21,2.46-1.32c2.43-0.29,5.11-0.43,8.07-0.43c5.75,0,10.08,1.05,13.01,3.16
		c2.93,2.11,4.41,5.12,4.41,9.01c0,3.13-0.83,5.72-2.5,7.78c-1.66,2.08-4.02,3.5-7.11,4.28c-0.04,0-0.05,0.04-0.05,0.13
		c0,0.04,0.01,0.05,0.05,0.05c1.76,1.02,3.58,3.7,5.42,8l4.44,10.78c0.25,0.53,0.19,1.05-0.16,1.57c-0.35,0.51-0.83,0.77-1.45,0.77
		c-0.78,0-1.48-0.22-2.13-0.67c-0.64-0.45-1.09-1.02-1.37-1.72l-4.31-10.58c-1.23-2.96-2.4-4.8-3.49-5.51
		c-1.08-0.71-3.23-1.08-6.42-1.08h-4.37c-0.38,0-0.56,0.17-0.56,0.49v16.61C979.03,388.35,978.8,388.92,978.32,389.41z
		 M979.03,349.71v16.38c0,0.36,0.18,0.54,0.56,0.54h4.37c4.88,0,8.47-0.79,10.76-2.36c2.3-1.58,3.45-3.93,3.45-7.06
		c0-5.75-4.33-8.61-12.99-8.61c-1.84,0-3.71,0.17-5.59,0.49C979.21,349.18,979.03,349.39,979.03,349.71z"/>
	<path class="st1" d="M1014.92,390.15c-0.95,0-1.76-0.35-2.46-1.05c-0.7-0.69-1.05-1.52-1.05-2.45v-37.92
		c0-0.93,0.35-1.76,1.05-2.45c0.7-0.7,1.52-1.05,2.46-1.05h20.67c0.57,0,1.06,0.21,1.48,0.61c0.42,0.41,0.62,0.89,0.62,1.43
		c0,0.53-0.21,1.01-0.62,1.44c-0.41,0.43-0.91,0.65-1.48,0.65h-18.7c-0.38,0-0.56,0.17-0.56,0.49v13.66c0,0.34,0.18,0.49,0.56,0.49
		h17.6c0.57,0,1.04,0.19,1.41,0.58c0.36,0.39,0.56,0.86,0.56,1.39c0,0.53-0.19,1-0.56,1.39c-0.38,0.39-0.84,0.58-1.41,0.58h-17.6
		c-0.38,0-0.56,0.18-0.56,0.56v17.04c0,0.32,0.18,0.49,0.56,0.49h18.7c0.57,0,1.06,0.22,1.48,0.65c0.42,0.43,0.62,0.91,0.62,1.44
		c0,0.54-0.21,1.01-0.62,1.43c-0.41,0.4-0.91,0.61-1.48,0.61H1014.92z"/>
	<path class="st1" d="M1058.1,369.04c-8.49-2.87-12.74-7.35-12.74-13.47c0-3.45,1.1-6.13,3.32-8.05c2.22-1.93,5.32-2.89,9.29-2.89
		c3.7,0,7.12,0.54,10.28,1.66c0.66,0.25,1.19,0.66,1.6,1.26c0.42,0.6,0.62,1.26,0.62,2c0,0.53-0.23,0.93-0.67,1.21
		c-0.45,0.26-0.93,0.3-1.43,0.09c-3.32-1.48-6.67-2.22-10.02-2.22c-2.46,0-4.45,0.57-5.94,1.72c-1.49,1.14-2.24,2.89-2.24,5.23
		c0,4.02,2.68,6.94,8.05,8.74c5.1,1.69,8.66,3.61,10.71,5.78c2.05,2.18,3.07,4.97,3.07,8.36c0,4.02-1.21,7.08-3.63,9.17
		c-2.41,2.1-5.97,3.14-10.63,3.14c-3.54,0-6.72-0.64-9.55-1.91c-1.44-0.65-2.15-1.8-2.15-3.44c0-0.53,0.22-0.93,0.67-1.18
		c0.45-0.25,0.91-0.25,1.36,0c2.79,1.61,5.87,2.41,9.29,2.41c6.48,0,9.73-2.74,9.73-8.2c0-2.2-0.7-4.06-2.1-5.54
		C1063.6,371.43,1061.31,370.15,1058.1,369.04z"/>
	<path class="st1" d="M1084.44,390.15c-0.95,0-1.76-0.35-2.46-1.05c-0.7-0.69-1.05-1.52-1.05-2.45v-37.92
		c0-0.93,0.35-1.76,1.05-2.45c0.7-0.7,1.52-1.05,2.46-1.05h20.67c0.57,0,1.06,0.21,1.48,0.61c0.41,0.41,0.62,0.89,0.62,1.43
		c0,0.53-0.21,1.01-0.62,1.44c-0.42,0.43-0.91,0.65-1.48,0.65h-18.7c-0.38,0-0.56,0.17-0.56,0.49v13.66c0,0.34,0.18,0.49,0.56,0.49
		h17.6c0.57,0,1.04,0.19,1.41,0.58c0.36,0.39,0.56,0.86,0.56,1.39c0,0.53-0.19,1-0.56,1.39c-0.38,0.39-0.84,0.58-1.41,0.58h-17.6
		c-0.38,0-0.56,0.18-0.56,0.56v17.04c0,0.32,0.18,0.49,0.56,0.49h18.7c0.57,0,1.06,0.22,1.48,0.65c0.41,0.43,0.62,0.91,0.62,1.44
		c0,0.54-0.21,1.01-0.62,1.43c-0.42,0.4-0.91,0.61-1.48,0.61H1084.44z"/>
	<path class="st1" d="M1121.14,389.47c-0.48,0.45-1.04,0.67-1.7,0.67c-0.65,0-1.22-0.22-1.69-0.67c-0.47-0.45-0.71-1.02-0.71-1.72
		v-40c0-0.7,0.25-1.3,0.74-1.79c0.49-0.49,1.09-0.74,1.79-0.74c1.69,0,2.96,0.74,3.81,2.22l20.44,34.64c0,0.05,0.04,0.06,0.12,0.06
		c0.04,0,0.06-0.01,0.06-0.06v-34.46c0-0.7,0.23-1.27,0.7-1.72c0.48-0.45,1.04-0.67,1.7-0.67c0.65,0,1.22,0.22,1.69,0.67
		c0.48,0.45,0.71,1.02,0.71,1.72v40c0,0.7-0.25,1.3-0.74,1.79c-0.49,0.49-1.09,0.74-1.79,0.74c-1.67,0-2.94-0.74-3.81-2.22
		l-20.43-34.64c0-0.05-0.04-0.06-0.13-0.06c-0.04,0-0.06,0.01-0.06,0.06v34.46C1121.84,388.45,1121.61,389.02,1121.14,389.47z"/>
	<path class="st1" d="M1176.07,390.76c-5.91,0-10.65-2.01-14.21-6.06c-3.58-4.05-5.36-9.71-5.36-17.02c0-7.26,1.71-12.93,5.14-16.99
		c3.42-4.06,8.17-6.08,14.25-6.08c3.19,0,6.04,0.3,8.55,0.92c0.62,0.16,1.12,0.51,1.5,1.04c0.39,0.54,0.58,1.13,0.58,1.79
		c0,0.53-0.21,0.96-0.64,1.26c-0.44,0.31-0.92,0.39-1.45,0.22c-2.43-0.74-5.12-1.12-8.12-1.12c-4.64,0-8.27,1.67-10.89,4.99
		c-2.63,3.32-3.94,7.98-3.94,13.97c0,5.95,1.36,10.6,4.1,13.94c2.72,3.35,6.37,5.02,10.92,5.02c3.03,0,5.78-0.38,8.25-1.12
		c0.53-0.16,1.01-0.09,1.44,0.22c0.44,0.3,0.65,0.73,0.65,1.26c0,0.66-0.19,1.24-0.58,1.75c-0.39,0.52-0.89,0.86-1.5,1.02
		C1181.99,390.43,1179.1,390.76,1176.07,390.76z"/>
	<path class="st1" d="M1203.35,389.38c-0.51,0.51-1.13,0.77-1.87,0.77c-0.74,0-1.36-0.26-1.88-0.77c-0.52-0.52-0.77-1.14-0.77-1.88
		v-39.63c0-0.74,0.25-1.36,0.77-1.88c0.52-0.51,1.14-0.77,1.88-0.77c0.74,0,1.36,0.26,1.87,0.77c0.52,0.52,0.78,1.14,0.78,1.88
		v39.63C1204.13,388.24,1203.87,388.86,1203.35,389.38z"/>
	<path class="st1" d="M1215.14,390.15c-0.62,0-1.12-0.26-1.48-0.77c-0.38-0.52-0.45-1.06-0.25-1.63l14.03-39.94
		c0.29-0.78,0.77-1.4,1.44-1.87c0.67-0.48,1.43-0.71,2.24-0.71c0.83,0,1.57,0.23,2.26,0.71c0.67,0.47,1.15,1.09,1.44,1.87
		l13.97,39.88c0.21,0.62,0.13,1.18-0.25,1.7c-0.36,0.51-0.86,0.77-1.48,0.77c-0.82,0-1.54-0.23-2.18-0.71
		c-0.64-0.47-1.08-1.08-1.32-1.82l-3.27-10.09c-0.12-0.32-0.36-0.49-0.73-0.49h-17.05c-0.32,0-0.56,0.17-0.67,0.49l-3.38,10.22
		c-0.25,0.74-0.67,1.32-1.26,1.75C1216.61,389.93,1215.92,390.15,1215.14,390.15z M1230.95,349.71l-7.51,22.9
		c-0.04,0.12-0.01,0.23,0.06,0.34c0.08,0.1,0.18,0.16,0.31,0.16h14.46c0.12,0,0.22-0.05,0.27-0.16c0.06-0.1,0.09-0.22,0.09-0.34
		l-7.51-22.9c0-0.04-0.01-0.05-0.05-0.05C1230.99,349.66,1230.95,349.67,1230.95,349.71z"/>
	<path class="st1" d="M1259.26,390.15c-0.95,0-1.76-0.35-2.46-1.05c-0.7-0.69-1.05-1.52-1.05-2.45v-38.84c0-0.69,0.26-1.3,0.78-1.82
		c0.51-0.51,1.12-0.77,1.82-0.77c0.69,0,1.3,0.26,1.82,0.77c0.51,0.52,0.77,1.13,0.77,1.82v37.61c0,0.36,0.17,0.54,0.49,0.54h19.14
		c0.57,0,1.06,0.21,1.48,0.62c0.4,0.4,0.61,0.89,0.61,1.48c0,0.57-0.21,1.06-0.61,1.48c-0.42,0.4-0.91,0.61-1.48,0.61H1259.26z"/>
</g>
</svg>
