<?xml version="1.0" encoding="UTF-8"?>
<svg id="Camada_2" data-name="Camada 2" xmlns="http://www.w3.org/2000/svg" viewBox="0 0 145.08 145.08">
  <defs>
    <style>
      .cls-1 {
        fill: #fff;
      }

      .cls-2 {
        fill: #883093;
      }
    </style>
  </defs>
  <g id="Shape_5" data-name="Shape 5">
    <path class="cls-2" d="M145.08,72.54c0,40.06-32.48,72.54-72.54,72.54S0,112.6,0,72.54,32.48,0,72.54,0s72.54,32.48,72.54,72.54"/>
    <path class="cls-1" d="M81.64,41.46l-.15-.12c1.88-2.12,3.05-4.87,3.05-7.93,0-6.63-5.37-12.01-12-12.01s-12.01,5.38-12.01,12.01c0,3.05,1.18,5.81,3.05,7.93l-.15,.12c-4.37,3.48-6.88,5.93-7.71,15.96,0,1.29,.54,3.14,3.1,4.62,3.01,1.74,8.36,2.61,13.71,2.61s10.69-.87,13.7-2.61c2.56-1.48,3.1-3.32,3.09-4.82-.8-9.83-3.31-12.28-7.68-15.76m-9.09-15.25c3.97,0,7.2,3.23,7.2,7.2s-3.23,7.21-7.2,7.21-7.21-3.23-7.21-7.21c0-3.97,3.24-7.2,7.21-7.2m-2.51,33.52c-5.71-.31-8.96-1.6-9.48-2.36,.69-8.02,2.33-9.32,5.88-12.15l1.13-.91c.17,.08,2.4,.95,4.74,.95,2.43,.01,4.99-.85,5.21-.95l1.13,.91c3.55,2.82,5.19,4.13,5.89,12.15-.53,.77-3.82,2.07-9.61,2.38-1.61,.2-3.33,.03-4.89-.02"/>
    <path class="cls-1" d="M97.98,59.19c0,1.72-.17,3.43-.51,5.09-.31,1.53,.68,3.02,2.21,3.33,.19,.03,.38,.06,.57,.06,1.31,0,2.49-.92,2.76-2.27,.42-2.04,.62-4.13,.62-6.22,0-9.87-4.53-18.94-12.45-24.88-1.25-.93-3.02-.68-3.96,.56-.93,1.25-.68,3.02,.57,3.96,6.47,4.87,10.19,12.29,10.19,20.37"/>
    <path class="cls-1" d="M44.84,67.67c.19,0,.37-.02,.57-.06,1.53-.31,2.52-1.81,2.2-3.33-.34-1.66-.51-3.38-.51-5.09,0-8.07,3.71-15.49,10.18-20.35,1.25-.94,1.5-2.71,.56-3.95-.93-1.25-2.71-1.5-3.96-.57-7.9,5.94-12.43,15-12.43,24.87,0,2.1,.21,4.19,.62,6.22,.28,1.33,1.46,2.26,2.77,2.26"/>
  </g>
</svg>