<?xml version="1.0" encoding="UTF-8"?>
<svg id="Camada_2" data-name="Camada 2" xmlns="http://www.w3.org/2000/svg" viewBox="0 0 145.08 145.08">
  <defs>
    <style>
      .cls-1 {
        fill: #fff;
      }

      .cls-2 {
        fill: #883093;
      }
    </style>
  </defs>
  <g id="Shape_5" data-name="Shape 5">
    <path class="cls-2" d="M145.08,72.54c0,40.06-32.48,72.54-72.54,72.54S0,112.6,0,72.54,32.48,0,72.54,0s72.54,32.47,72.54,72.54"/>
    <path class="cls-1" d="M98.31,114.56c0,4.53-3.07,8.22-6.84,8.22H55.53c-3.77,0-6.84-3.69-6.84-8.22V30.5c0-4.53,3.07-8.21,6.84-8.21h7.1v1.63c0,1.91,1.56,3.47,3.48,3.47h14.79c1.91,0,3.48-1.56,3.48-3.47v-1.63h7.1c3.77,0,6.84,3.68,6.84,8.21V114.56h-.01Zm-6.84-95.95H55.53c-5.8,0-10.52,5.34-10.52,11.9V114.57c0,6.56,4.72,11.9,10.52,11.9h35.94c5.8,0,10.52-5.34,10.52-11.9V30.51c.01-6.57-4.71-11.9-10.52-11.9"/>
    <path class="cls-1" d="M81.85,66.07c-1.72,.67-4.07,2.69-7.18,6.17-1,1.12-1.9,2.2-2.6,3.05-1.42-1.5-3.48-3.61-4.59-4.47-.83-.64-2.01-.49-2.65,.34-.63,.82-.48,2.01,.34,2.65,1.24,.95,4.48,4.4,5.62,5.64,.36,.39,.86,.61,1.39,.61h.08c.56-.03,1.08-.3,1.41-.73,.02-.03,1.71-2.23,3.81-4.57,3.63-4.07,5.21-4.96,5.73-5.16,.97-.38,1.45-1.47,1.08-2.45-.37-.98-1.46-1.46-2.44-1.08"/>
    <path class="cls-1" d="M73.51,87.35c-8.17,0-14.81-6.64-14.81-14.81s6.64-14.81,14.81-14.81,14.81,6.64,14.81,14.81-6.65,14.81-14.81,14.81m0-32.77c-4.8,0-9.31,1.87-12.7,5.26s-5.26,7.9-5.26,12.7,1.87,9.31,5.26,12.7,7.9,5.26,12.7,5.26,9.3-1.87,12.7-5.26c3.39-3.39,5.26-7.9,5.26-12.7s-1.87-9.31-5.26-12.7c-3.4-3.39-7.91-5.26-12.7-5.26"/>
  </g>
</svg>