<?xml version="1.0" encoding="UTF-8"?>
<svg id="Camada_2" data-name="Camada 2" xmlns="http://www.w3.org/2000/svg" viewBox="0 0 145.08 145.08">
  <defs>
    <style>
      .cls-1 {
        fill: #fff;
      }

      .cls-2 {
        fill: #883093;
      }
    </style>
  </defs>
  <g id="Shape_5" data-name="Shape 5">
    <path class="cls-2" d="M145.08,72.54c0,40.06-32.48,72.54-72.54,72.54S0,112.6,0,72.54,32.48,0,72.54,0c40.06,0,72.54,32.48,72.54,72.54"/>
    <path class="cls-1" d="M27.74,90.71c.73-.73,1.74-1.12,2.77-1.06l15.83,1.4c.53,.05,1.06-.16,1.41-.56l19.11-21.47c.35-.39,.5-.93,.4-1.44-.1-.52-.43-.96-.9-1.2L28.21,46.97l3.14-3.13c1.05-1.05,2.58-1.46,4.01-1.07l44.53,12.04c.59,.16,1.21-.01,1.64-.44l14.45-14.45c3.74-3.74,8.7-5.89,13.99-6.07,.01,0,.02,0,.03,.01s.01,.02,.01,.03c-.18,5.28-2.33,10.25-6.07,13.99l-14.45,14.45c-.43,.43-.6,1.05-.44,1.64l12.04,44.52c.39,1.43-.02,2.96-1.07,4.01l-3.13,3.13-19.41-38.15c-.24-.47-.68-.8-1.2-.9-.52-.1-1.05,.05-1.44,.4l-21.47,19.11c-.4,.36-.61,.89-.56,1.42l1.4,15.83c.05,1.03-.33,2.04-1.07,2.77l-.73,.73-5.61-15.39c-.37-1.02-.95-1.91-1.71-2.68s-1.67-1.34-2.68-1.71l-15.39-5.62,.72-.73Zm-2.9,3.56l16.39,5.98c.55,.2,1.03,.51,1.44,.92,.41,.41,.72,.9,.92,1.45l5.99,16.39c.32,.87,1.05,1.52,1.96,1.72,.2,.04,.39,.07,.59,.07,.71,0,1.4-.28,1.91-.8l1.48-1.48c1.42-1.42,2.17-3.38,2.05-5.39v-.05l-1.32-15.01,19.19-17.08,18.8,36.95c.4,.79,1.16,1.35,2.04,1.48,.87,.14,1.77-.15,2.4-.78l3.74-3.74c1.9-1.9,2.65-4.7,1.95-7.29l-11.79-43.58,13.75-13.75c4.35-4.35,6.86-10.13,7.06-16.28,.03-.95-.33-1.87-1-2.54s-1.6-1.04-2.54-1c-6.15,.2-11.93,2.71-16.28,7.06l-13.75,13.75-43.58-11.78c-2.6-.7-5.39,.04-7.3,1.94l-3.74,3.74c-.62,.63-.92,1.52-.78,2.4s.69,1.64,1.48,2.04l36.95,18.81-17.08,19.19-15.01-1.32h-.05c-2-.12-3.97,.63-5.39,2.05l-1.48,1.48c-.66,.66-.93,1.6-.73,2.5,.21,.89,.85,1.63,1.73,1.95"/>
    <path class="cls-1" d="M52.13,121.77c-.28,0-.55-.03-.82-.09-1.22-.27-2.22-1.14-2.66-2.33l-5.99-16.39c-.15-.41-.38-.78-.69-1.09-.31-.31-.67-.54-1.08-.68l-16.39-5.99c-1.19-.43-2.08-1.44-2.35-2.67-.28-1.24,.1-2.52,1-3.42l1.48-1.48c1.63-1.63,3.89-2.48,6.15-2.34l14.6,1.29,15.9-17.86L25.47,50.49c-1.07-.54-1.82-1.57-2.01-2.76-.19-1.19,.2-2.4,1.05-3.25l3.73-3.74c2.15-2.15,5.32-2.98,8.25-2.2l43.03,11.63,13.35-13.34c4.52-4.53,10.53-7.14,16.94-7.35,1.23-.04,2.41,.43,3.28,1.29,.85,.87,1.32,2.06,1.29,3.27-.22,6.4-2.82,12.42-7.35,16.94l-13.35,13.35,11.64,43.03c.8,2.94-.05,6.1-2.21,8.25l-3.73,3.74c-.85,.85-2.06,1.25-3.25,1.06s-2.22-.94-2.76-2.01l-18.22-35.81-17.87,15.9,1.29,14.52c.14,2.36-.72,4.6-2.33,6.22l-1.49,1.49c-.69,.66-1.65,1.05-2.62,1.05Zm-21.81-34.53c-1.61,0-3.15,.63-4.29,1.77l-1.48,1.49c-.42,.42-.6,1.02-.47,1.6,.13,.58,.54,1.04,1.1,1.25h0l16.38,5.99c.67,.24,1.29,.63,1.81,1.15,.51,.52,.89,1.12,1.14,1.8l5.99,16.39c.21,.55,.68,.97,1.25,1.09,.55,.12,1.19-.05,1.59-.47l1.49-1.49c1.22-1.23,1.87-2.92,1.77-4.64l-1.37-15.53,20.52-18.26,19.38,38.09c.26,.51,.75,.87,1.32,.96,.57,.1,1.15-.1,1.54-.5l3.74-3.74c1.66-1.65,2.31-4.08,1.7-6.34l-11.94-44.13,14.15-14.16c4.17-4.17,6.58-9.72,6.78-15.61,.02-.67-.24-1.34-.72-1.82-.45-.45-1.08-.72-1.72-.72h-.08c-5.9,.2-11.45,2.6-15.61,6.78l-14.16,14.15-.55-.15-43.58-11.78c-2.28-.62-4.69,.04-6.34,1.69l-3.74,3.74c-.41,.4-.59,.98-.51,1.55,.09,.56,.45,1.05,.96,1.31l38.08,19.39-18.25,20.51-15.51-1.37c-.12,.01-.24,.01-.37,.01Zm21.69,31.39l-6.15-16.84c-.32-.87-.82-1.65-1.49-2.32-.66-.66-1.44-1.16-2.32-1.48l-16.83-6.15,1.81-1.82c.93-.93,2.14-1.43,3.52-1.35l15.87,1.4c.19-.02,.44-.07,.58-.23l19.12-21.47c.15-.17,.22-.39,.17-.61-.04-.22-.18-.4-.38-.51L26.55,47.23l4.1-4.09c1.28-1.29,3.18-1.81,4.96-1.32l44.52,12.04c.27,.06,.52,0,.69-.18l14.44-14.44c3.91-3.91,9.11-6.17,14.66-6.36l.42-.02,.62,.61v.43c-.17,5.56-2.44,10.76-6.35,14.68l-14.44,14.45c-.18,.18-.25,.44-.19,.68l12.04,44.53c.47,1.77-.03,3.67-1.32,4.96l-4.09,4.09-20.03-39.36c-.1-.2-.28-.34-.51-.38-.18-.01-.43,.03-.6,.17l-21.48,19.11c-.15,.15-.25,.37-.22,.6l1.39,15.83c.07,1.35-.42,2.63-1.35,3.55l-1.8,1.82Zm-23.15-27.56l13.87,5.07c1.15,.42,2.17,1.07,3.04,1.94,.87,.88,1.52,1.9,1.93,3.04l5.07,13.88c.31-.47,.46-1.03,.43-1.6l-1.39-15.8c-.07-.83,.25-1.66,.87-2.23l21.49-19.12c.62-.56,1.46-.79,2.27-.64,.83,.16,1.52,.68,1.9,1.42l18.8,36.95,2.17-2.17c.8-.8,1.12-1.97,.82-3.06l-12.04-44.52c-.25-.92,.02-1.92,.7-2.6l14.44-14.44c3.32-3.32,5.33-7.65,5.73-12.29-4.63,.39-8.97,2.4-12.28,5.72l-14.44,14.44c-.69,.68-1.69,.94-2.61,.69l-44.52-12.04c-1.07-.28-2.25,.02-3.06,.82l-2.18,2.18,36.95,18.8c.75,.38,1.27,1.09,1.42,1.9s-.08,1.65-.64,2.28l-19.11,21.47c-.56,.63-1.42,.99-2.23,.89l-15.84-1.4c-.57-.07-1.09,.11-1.56,.42Z"/>
  </g>
</svg>