<?xml version="1.0" encoding="UTF-8"?>
<svg id="Camada_2" data-name="Camada 2" xmlns="http://www.w3.org/2000/svg" viewBox="0 0 145.08 145.08">
  <defs>
    <style>
      .cls-1 {
        fill: #fff;
      }

      .cls-2 {
        fill: #883093;
      }
    </style>
  </defs>
  <g id="Shape_5" data-name="Shape 5">
    <g>
      <path class="cls-2" d="M145.08,72.54c0,40.06-32.48,72.54-72.54,72.54S0,112.6,0,72.54,32.48,0,72.54,0c40.06,0,72.54,32.47,72.54,72.54"/>
      <path class="cls-1" d="M78.92,79.04c-10.08,10.25-26.47,10.25-36.54,0-10.08-10.25-10.08-26.94,0-37.2,10.08-10.25,26.47-10.25,36.54,0,10.08,10.26,10.08,26.94,0,37.2m5.53-42.83c-13.13-13.36-34.48-13.36-47.61,0-13.13,13.36-13.13,35.1,0,48.45,11.71,11.92,29.98,13.2,43.1,3.85l23.4,23.81c2.29,2.33,6.01,2.33,8.3,0s2.29-6.11,0-8.44l-23.4-23.81c9.19-13.35,7.93-31.94-3.79-43.86"/>
    </g>
  </g>
</svg>