<?xml version="1.0" encoding="UTF-8"?>
<svg id="Camada_2" data-name="Camada 2" xmlns="http://www.w3.org/2000/svg" viewBox="0 0 217.22 217.22">
  <defs>
    <style>
      .cls-1 {
        fill: #893094;
      }

      .cls-2 {
        fill: #fff;
        fill-rule: evenodd;
      }
    </style>
  </defs>
  <g id="Shape_5" data-name="Shape 5">
    <path class="cls-2" d="M108.61,217.22c59.99,0,108.61-48.62,108.61-108.61S168.59,0,108.61,0,0,48.62,0,108.61c0,59.98,48.62,108.61,108.61,108.61Z"/>
    <g>
      <path class="cls-1" d="M108.53,189.84c-.94,0-1.88-.36-2.6-1.08-1.44-1.44-1.44-3.77,0-5.21l48.19-48.19c1.44-1.44,3.77-1.44,5.21,0s1.44,3.77,0,5.21l-48.19,48.19c-.73,.72-1.67,1.08-2.61,1.08Zm-35.87-5.43c-.94,0-1.88-.36-2.6-1.08-1.44-1.44-1.44-3.77,0-5.21l19.92-19.93c1.43-1.44,3.77-1.44,5.21,0s1.44,3.77,0,5.21l-19.92,19.93c-.72,.72-1.67,1.08-2.61,1.08Zm-13.77-32.61c-.94,0-1.88-.36-2.6-1.08-1.44-1.44-1.44-3.77,0-5.21l44.92-44.92c1.44-1.44,3.77-1.44,5.21,0s1.44,3.77,0,5.21l-44.92,44.92c-.73,.72-1.67,1.08-2.61,1.08Zm53.63-7.25c-.94,0-1.88-.36-2.6-1.08-1.44-1.44-1.44-3.77,0-5.21l63.04-63.04c1.44-1.44,3.77-1.44,5.21,0s1.44,3.77,0,5.21l-63.04,63.04c-.73,.72-1.67,1.08-2.61,1.08ZM46.21,110.86c-.94,0-1.89-.36-2.61-1.08-1.43-1.44-1.43-3.77,.01-5.21l8.7-8.69c1.44-1.44,3.77-1.44,5.21,0,1.43,1.44,1.43,3.77-.01,5.21l-8.7,8.69c-.72,.72-1.66,1.08-2.6,1.08Zm26.81-26.81c-.94,0-1.88-.36-2.6-1.08-1.44-1.44-1.44-3.77,0-5.21l29.71-29.71c1.44-1.44,3.77-1.44,5.21,0s1.44,3.77,0,5.21l-29.71,29.71c-.73,.72-1.67,1.08-2.61,1.08Z"/>
      <path class="cls-1" d="M176.09,107.93h0c-2.03,0-3.68-1.65-3.68-3.69v-23.01h-23.01c-2.03,0-3.68-1.65-3.68-3.69s1.65-3.69,3.68-3.69h26.7c.98,0,1.91,.39,2.6,1.08,.7,.69,1.08,1.63,1.08,2.61v26.7c0,2.04-1.66,3.69-3.69,3.69Zm-70.52-29.34c-2.03,0-3.68-1.65-3.68-3.69v-23.01h-23.01c-2.03,0-3.68-1.65-3.68-3.69s1.65-3.69,3.68-3.69h26.7c2.03,0,3.68,1.65,3.68,3.69v26.69c-.01,2.05-1.66,3.7-3.69,3.7Z"/>
    </g>
  </g>
</svg>