<?xml version="1.0" encoding="UTF-8"?>
<svg id="Camada_2" data-name="Camada 2" xmlns="http://www.w3.org/2000/svg" viewBox="0 0 217.22 217.22">
  <defs>
    <style>
      .cls-1 {
        fill: #893094;
      }

      .cls-2 {
        fill: #fff;
        fill-rule: evenodd;
      }
    </style>
  </defs>
  <g id="Shape_5" data-name="Shape 5">
    <path class="cls-2" d="M108.61,217.22c59.99,0,108.61-48.62,108.61-108.61S168.59,0,108.61,0,0,48.62,0,108.61c-.01,59.98,48.62,108.61,108.61,108.61Z"/>
    <path class="cls-1" d="M193.61,95c0,7.96-6.45,14.41-14.41,14.41-3.87,0-7.39-1.52-9.97-4-2.42-2.31-4.03-5.46-4.38-8.97-.04-.47-.07-.95-.07-1.43,0-7.96,6.45-14.41,14.41-14.41,7.97-.01,14.42,6.45,14.42,14.4"/>
    <path class="cls-1" d="M150.13,147.99c0,7.96-6.45,14.41-14.41,14.41s-14.41-6.45-14.41-14.41c0-7.01,5.01-12.85,11.64-14.14,.9-.17,1.82-.26,2.77-.26,2.03,0,3.96,.42,5.72,1.18,5.11,2.2,8.69,7.29,8.69,13.22"/>
    <path class="cls-1" d="M116.09,71.09c0,7.96-6.45,14.41-14.41,14.41s-14.41-6.45-14.41-14.41c0-7.01,5.01-12.85,11.64-14.14,.9-.17,1.82-.26,2.77-.26,2.03,0,3.96,.42,5.72,1.18,5.11,2.21,8.69,7.3,8.69,13.22"/>
    <path class="cls-1" d="M51.41,116.95c0,7.96-6.45,14.41-14.41,14.41s-14.41-6.45-14.41-14.41c0-7.01,5.01-12.85,11.64-14.14,.9-.17,1.82-.26,2.77-.26,2.03,0,3.96,.42,5.72,1.18,5.11,2.21,8.69,7.3,8.69,13.22"/>
    <path class="cls-1" d="M136,143.58c-.17,0-.34-.01-.5-.04-1.01-.16-1.87-.82-2.29-1.75l-15.87-34.62-82.09,13.17c-1.41,.22-2.83-.57-3.35-1.93-.52-1.36-.02-2.89,1.19-3.68l69.8-45.35c.75-.49,1.67-.62,2.53-.37,.86,.25,1.56,.86,1.93,1.67l13.62,29.7,58.56-9.39c1.28-.21,2.59,.43,3.2,1.6,.61,1.16,.42,2.59-.49,3.54l-44.02,46.5c-.58,.61-1.39,.95-2.22,.95Zm-12.37-37.42l13.27,28.93,34.67-36.62-47.94,7.69Zm-20.37-29.7l-54.64,35.5,66.06-10.6-9.75-21.26h0l-1.67-3.64Z"/>
  </g>
</svg>