<?xml version="1.0" encoding="UTF-8"?>
<svg id="Camada_2" data-name="Camada 2" xmlns="http://www.w3.org/2000/svg" viewBox="0 0 217.22 217.22">
  <defs>
    <style>
      .cls-1 {
        fill: #893094;
      }

      .cls-2 {
        fill: #fff;
        fill-rule: evenodd;
      }
    </style>
  </defs>
  <g id="Shape_5" data-name="Shape 5">
    <path class="cls-2" d="M108.61,217.22c59.99,0,108.61-48.62,108.61-108.61S168.59,0,108.61,0,0,48.62,0,108.61c0,59.98,48.62,108.61,108.61,108.61Z"/>
    <g>
      <path class="cls-1" d="M162.55,98.11c-.5-.49-1.2-.72-1.89-.61l-3.98,.66v-9.37c0-.34-.08-.67-.23-.97l-8.67-17.35c-.41-.68-1.14-1.1-1.94-1.1s-1.53,.42-1.94,1.1l-8.67,17.35c-.15,.3-.23,.63-.23,.97v12.99l-13.58,2.26h0c.24-.93,.37-1.89,.37-2.85v-9.75c-.02-1.96,.82-3.82,2.3-5.11,5.36-4.64,8.47-11.36,8.55-18.44,.07-7.09-2.9-13.87-8.17-18.62-5-4.52-11.71-6.66-18.4-5.86-5.46,.69-10.53,3.23-14.35,7.2s-6.18,9.12-6.67,14.6c-.8,8.05,2.4,15.98,8.56,21.23,1.41,1.27,2.2,3.09,2.16,4.99v9.75c.01,.94,.13,1.88,.36,2.79l-15.34-2.56v-27.8c0-.57-.23-1.13-.64-1.53-.41-.41-.96-.64-1.53-.64h-17.35c-.58,0-1.13,.23-1.53,.64-.41,.41-.64,.96-.64,1.53v24.18l-1.81-.3c-.69-.11-1.39,.11-1.89,.61l-13.01,13.01c-.56,.56-.77,1.38-.55,2.14s.84,1.34,1.62,1.51l9.14,1.99v34.92c0,1,.69,1.87,1.66,2.11l54.21,13.01c.33,.09,.68,.08,1.01-.03v.02s54.22-13.01,54.22-13.01h0c.97-.24,1.66-1.11,1.66-2.11v-34.92l9.14-1.99c.77-.17,1.39-.75,1.62-1.51,.22-.76,.01-1.58-.55-2.14l-13.02-12.99Zm-16.71-21.8l5.16,10.33h-10.33l5.17-10.33Zm-6.51,14.66h13.01v7.92l-13.01,2.17v-10.09Zm-49.97-25.34c.39-4.5,2.32-8.72,5.44-11.98,3.13-3.26,7.27-5.35,11.75-5.92,5.46-.64,10.94,1.1,15.02,4.79,4.33,3.91,6.78,9.5,6.72,15.33-.06,5.84-2.62,11.37-7.03,15.2-2.44,2.11-3.83,5.18-3.81,8.4v3.86h-17.35v-3.86c.05-3.18-1.3-6.22-3.7-8.31-5.07-4.33-7.7-10.87-7.04-17.51h0Zm10.75,35.56v-1.55h17.35v1.55c0,1.3-.35,2.57-1.01,3.68l-7.47,1.24-7.89-1.32h0c-.64-1.08-.98-2.33-.98-3.6h0Zm-36.67-8.05h6.51v-4.34h-6.51v-4.34h6.51v-4.34h-6.51v-4.34h13.01v24.91l-13.01-2.17v-5.38Zm-5.76,8.83l46.78,7.8-11.36,11.36-44.84-9.75,9.42-9.41Zm-.75,48.01v-32.27l36.4,7.91c.15,.03,.31,.05,.46,.05,.58,0,1.13-.23,1.53-.64l11.48-11.48v48.39l-49.87-11.96Zm104.09,0l-49.87,11.97v-48.39l11.48,11.48h0c.41,.41,.96,.64,1.53,.64,.15,0,.31-.02,.46-.05l36.4-7.91v32.26Zm-36.17-28.85l-11.36-11.36,46.78-7.8,9.41,9.41-44.83,9.75Z"/>
      <path class="cls-1" d="M101.78,69.46l-.98,5.98h0c-.13,.82,.21,1.64,.89,2.12s1.57,.53,2.3,.12l4.98-2.75,4.98,2.75c.73,.4,1.62,.35,2.3-.12,.68-.48,1.02-1.3,.89-2.12l-.98-5.98,4.11-4.22h0c.57-.58,.76-1.43,.5-2.2-.26-.77-.92-1.33-1.73-1.45l-5.6-.86-2.52-5.38c-.36-.76-1.12-1.25-1.96-1.25s-1.61,.49-1.96,1.25l-2.52,5.38-5.6,.86h0c-.8,.12-1.47,.68-1.73,1.45-.26,.77-.06,1.62,.5,2.2l4.13,4.22Zm4.5-4.61c.71-.11,1.33-.57,1.64-1.22l1.05-2.24,1.05,2.24h0c.31,.66,.92,1.11,1.63,1.22l2.57,.39-1.93,1.98c-.48,.49-.7,1.18-.59,1.86l.43,2.65-2.12-1.17h0c-.65-.36-1.44-.36-2.1,0l-2.12,1.17,.43-2.65h0c.11-.68-.11-1.37-.59-1.86l-1.93-1.98,2.58-.39Z"/>
      <path class="cls-1" d="M106.8,32.43h4.34v6.51h-4.34v-6.51Z"/>
      <path class="cls-1" d="M82.91,44.12l3.07-3.07,4.6,4.6-3.07,3.07-4.6-4.6Z"/>
      <path class="cls-1" d="M127.37,45.65l4.6-4.6,3.07,3.07-4.6,4.6-3.07-3.07Z"/>
    </g>
  </g>
</svg>