<?xml version="1.0" encoding="UTF-8"?>
<svg id="Camada_2" data-name="Camada 2" xmlns="http://www.w3.org/2000/svg" viewBox="0 0 166.04 42.53">
  <defs>
    <style>
      .cls-1 {
        fill: #fff;
      }
    </style>
  </defs>
  <g id="Camada_1-2" data-name="Camada 1">
    <path class="cls-1" d="M153.37,15.21c.25-1.46,.75-3.97-.96-6.27-1.88-2.51-5.55-3.51-10.27-3.51-3.63,0-9.02,.63-13.32,4.01-4.13,3.3-6.31,8.35-7.06,11.99-1.04,4.8-.29,9.56,2.96,12.45,2.92,2.63,7.35,3.13,10.61,3.13,4.47,0,9.06-.63,13.66-1.67l3.42-16.12h-14.24l-1.21,5.72h6.39l-1.25,5.85c-1.59,.29-3.17,.5-4.72,.5-5.05,0-8.31-2.96-6.81-10.02,1.04-5.05,4.22-10.07,9.94-10.07,2.3,0,4.55,.88,4.39,4.01h8.47Zm-75.29,21.13h7.23l5.22-25.52,1.46,25.52h7.52l12.53-25.31-5.76,25.31h7.89l6.39-30.2-13.16,.04-9.06,20.42-.71-20.42h-13.16l-6.39,30.16Zm-27.34,0h22.97l1.25-5.85h-14.7l1.34-6.43h13.53l1.25-5.76h-13.53l1.34-6.27h14.37l1.21-5.76h-22.64l-6.39,30.07Zm-14.02,0h8.6l6.39-30.16h-8.6l-6.39,30.16Zm-24.8,0h8.31l2.42-11.44h12.11l1.25-5.81h-12.11l1.46-7.02h13.03l1.25-5.81H18.31l-6.39,30.08Zm-11.92,0H8.56v-1.12H0v-6.02H8.56v-1.12H0v-6.21H8.56v-1.12H0v-6.31H8.56v-1.12H0V7.26H8.56v-1.12H0V0H166.04V6.14h-8.55v1.12h8.55v6.05h-8.55v1.12h8.55v6.31h-8.55v1.12h8.55v6.21h-8.55v1.12h8.55v6.02h-8.55v1.12h8.55v6.2H0v-6.2Z"/>
  </g>
</svg>