<?xml version="1.0" encoding="UTF-8"?>
<svg id="Camada_2" data-name="Camada 2" xmlns="http://www.w3.org/2000/svg" viewBox="0 0 1055.28 608.56">
  <defs>
    <style>
      .cls-1 {
        fill: #fff;
      }

      .cls-2 {
        fill: #090909;
      }
    </style>
  </defs>
  <g id="Camada_1-2" data-name="Camada 1">
    <g>
      <path class="cls-1" d="m779.31,606.65c-1.58-.88-2.89-1.98-3.98-3.52-30.97-43.73-61.98-87.44-93.01-131.13-4.53-6.38-9.19-12.68-13.83-18.97-3.51-4.76-7.53-9.04-12.58-12.23-1.34-.85-2.64-1.8-4.23-2.19-.16-.13-.33-.26-.49-.39-.81.11-1.41-.24-1.89-.87-.25-.58-.55-.78-.96-.13-.92.31-1.8-.2-2.46-.53-3.79-1.88-7.76-1.66-11.7-1.11-7.22,1.01-13.2,4.66-18.63,9.32-3.72,3.2-6.85,6.95-9.7,10.9-4.82,6.67-9.54,13.41-14.3,20.13-.88,1.24-1.82,2.43-2.98,3.44-.75-.5-1.14-1.32-1.64-2.03-33.11-46.76-66.21-93.53-99.31-140.29-16.58-23.41-33.16-46.82-49.74-70.23-.05-.07-.1-.13-.14-.19-2.87-4.05-2.87-5-.05-8.96,27.46-38.62,54.93-77.23,82.38-115.85,28.52-40.12,57.02-80.25,85.54-120.38,2.22-3.12,4.45-6.24,7.31-8.84.66-.08.9-.49.85-1.12,3.83-3.76,8.07-7.05,12.98-9.14,4.7-2,9.69-2.93,14.92-1.99,1.93.34,3.86.6,5.75,1.19,5.29,1.66,9.76,4.62,13.67,8.47,4.29,4.22,7.96,8.96,11.46,13.84,14.29,19.94,28.58,39.88,42.82,59.86,14.61,20.49,29.16,41.02,43.72,61.54,33.15,46.72,66.26,93.48,99.46,140.17,32.13,45.19,63.69,90.79,95.89,135.93,30.21,42.35,60.33,84.76,90.49,127.15,2.5,3.52,4.96,7.08,6.68,11.05,1.53,3.55,3.12,7.11,3.27,11.07.01.28.19.4.41.5v6.72c-.39,3.19-1.28,6.24-2.37,9.26-1.47,4.06-3.77,7.55-6.66,10.69-2.05,2.22-4.37,4.14-7.12,5.43-2.5,1.17-5.09,2.15-7.77,2.89-4.16,1.15-8.43,1.28-12.7,1.33-12.15.13-24.3.23-36.46.39-25.83.35-51.66.32-77.48.3-22.15-.01-44.3-.09-66.45-.15-12.95-.04-25.91-.1-38.86-.16-4.8-.02-9.59-.09-14.39-.08-1.78,0-3.49-.28-5.2-.71-.17-.13-.33-.26-.5-.4Z"/>
      <path class="cls-1" d="m313.33,483.81c-2.72-1.1-5.56-1.68-8.46-1.95-4.77-.44-8.96,1.16-12.85,3.79-2.97,2.01-5.45,4.52-7.76,7.25-4.97,5.87-9.3,12.2-13.77,18.43-19.82,27.66-39.57,55.38-59.15,83.21-1.7,2.42-3.41,4.83-5.05,7.28-2.89,4.3-6.94,6.13-12.06,6.02-23.98-.54-47.96-.13-71.94-.09-16.15.03-32.29.25-48.44.31-14.39.05-28.78.03-43.17,0-4.73-.01-9.39-.61-13.98-1.84-6.91-1.86-11.91-5.95-14.82-12.53-.12-.17-.25-.33-.37-.5-.36-1.47-.76-2.93-1.06-4.42-1.22-6.04.06-11.64,3.08-16.91,2.94-5.13,6.25-10.03,9.69-14.85,35.94-50.45,71.82-100.93,107.81-151.34,23.5-32.91,46.66-66.06,69.96-99.11,29.83-42.31,59.77-84.53,89.85-126.65,1.52-2.13,2.99-4.36,4.83-6.21,5.87-5.91,12.54-10.13,21.4-9.06,4.5.54,8.41,2.43,11.86,5.31,3.96,3.3,7.26,7.2,10.24,11.38,8.96,12.56,17.91,25.12,26.86,37.68,71.35,100.19,142.49,200.52,213.4,301.01,10.09,14.3,20.33,28.49,30.5,42.74,1.9,2.67,3.81,5.33,5.32,8.25,2.09,4.04,3.68,8.28,3.64,12.89-.08,10.56-6.93,20.58-17.77,23-1.63.36-3.33.48-5,.52-11.67.27-23.34.49-35.01.71-.72.01-1.43-.05-2.15-.08-6.61,0-13.22,0-19.83,0-.62,0-1.3-.13-1.75.48h-.96c-.8-.44-1.68-.33-2.54-.33-25.18-.08-50.36-.13-75.54-.23-12.55-.05-25.1-.24-37.64-.28-2.58,0-4.4-1.01-5.85-3.07-4.36-6.22-8.75-12.4-13.15-18.59-20.92-29.44-41.64-59.01-62.87-88.23-1.97-2.71-3.88-5.49-6.33-7.81-2.56-2.42-5.24-4.69-8.68-5.81-.17-.13-.33-.26-.5-.39Zm-26.37-20.09c.24-.04.5-.04.7-.14,3.68-1.8,7.65-2.44,11.65-2.87,4.71-.5,9.31-.03,13.99.9,5.81,1.15,11.04,3.39,16.07,6.33,4.45,2.6,7.76,6.49,11.37,10.03,2.05,2.02,3.65,4.44,5.33,6.78,23.16,32.27,46.19,64.63,69.06,97.09,2.48,3.52,5.48,5.13,9.82,5.1,18.47-.14,36.94-.11,55.41-.11,31.03-.01,62.05,0,93.08,0,3.68,0,7.35-.26,11-.7,2.84-.35,3.36-1.93,2.18-4.1-1.15-2.11-2.42-4.13-3.81-6.09-31.38-44.24-62.75-88.48-94.13-132.72-7.52-10.6-14.98-21.25-22.55-31.82-4.77-6.66-9.52-13.34-14.27-20.01-4.05-5.69-8.06-11.43-12.08-17.15-9.42-13.37-18.94-26.68-28.41-40.01-7.76-10.92-15.52-21.85-23.28-32.77-20.07-28.25-40.14-56.5-60.22-84.76-4.34-6.1-8.66-12.22-13.01-18.31-2.14-2.99-4.28-5.98-6.5-8.9-.8-1.05-1.61-2.23-3.17-2.29-.07-.37-.14-.75-.62-.8-.6-.07-.76.34-.83.81-1.06.08-1.72.83-2.33,1.55-1.04,1.21-2.04,2.46-2.97,3.77-26.1,36.74-52.26,73.43-78.26,110.24-41.87,59.27-83.59,118.64-125.81,177.67-21.8,30.49-43.52,61.04-65.26,91.57-2.02,2.84-3.96,5.75-5.9,8.65-.48.72-.95,1.52-1.15,2.35-.43,1.73-.06,3.55,2.8,3.21.55-.06,1.11.03,1.67.05,7.27.2,14.54.55,21.81.58,19.83.08,39.67.03,59.5.03,25.91,0,51.82-.02,77.73.02,3.09,0,5.47-.93,7.33-3.56,19.8-27.99,39.67-55.93,59.5-83.9,4.9-6.91,9.81-13.82,15.24-20.33,4.28-5.14,9.12-9.63,14.95-12.98,1.25-.72,2.36-1.73,3.85-1.96l.5-.4Z"/>
      <path class="cls-2" d="m527.39,608.56c.46-.62,1.13-.48,1.75-.48,6.61,0,13.22,0,19.83,0-.04.11-.1.22-.11.33,0,.05.08.1.13.16h-21.6Z"/>
      <path class="cls-2" d="m613.76,11.5c.05.63-.18,1.04-.85,1.12.12-.5.11-1.09.85-1.12Z"/>
      <path class="cls-2" d="m648.33,437.23c.41-.65.71-.45.96.13-.35.19-.72.5-.96-.13Z"/>
      <path class="cls-2" d="m651.18,438.22c.16.13.33.26.49.39-.34.09-.46-.09-.49-.39Z"/>
      <path class="cls-2" d="m313.33,483.81c.17.13.33.26.5.39-.34.09-.47-.09-.5-.39Z"/>
      <path class="cls-2" d="m1.52,593.21c.12.17.25.33.37.5-.3-.04-.5-.14-.37-.5Z"/>
      <path class="cls-2" d="m779.31,606.65c.17.13.33.26.5.4-.34.09-.47-.09-.5-.4Z"/>
      <path class="cls-2" d="m305.2,187.17c-.48,0-.96,0-1.45,0,.08-.48.23-.88.83-.81.47.05.55.43.62.8Z"/>
      <path class="cls-2" d="m286.46,464.12c.04-.29.15-.49.5-.4-.17.13-.33.26-.5.4Z"/>
    </g>
  </g>
</svg>