<?xml version="1.0" encoding="UTF-8"?>
<svg id="Camada_2" data-name="Camada 2" xmlns="http://www.w3.org/2000/svg" viewBox="0 0 145.08 145.08">
  <defs>
    <style>
      .cls-1 {
        fill: #fff;
      }

      .cls-2 {
        fill: #883093;
      }
    </style>
  </defs>
  <g id="Shape_5" data-name="Shape 5">
    <path class="cls-2" d="M145.08,72.54c0,40.06-32.48,72.54-72.54,72.54S0,112.6,0,72.54,32.48,0,72.54,0s72.54,32.48,72.54,72.54"/>
    <path class="cls-1" d="M116.83,66.03l-22.15-22.15c-.56-.56-1.28-.83-2.01-.83s-1.46,.28-2.01,.83l-10.07,10.07c-1.11,1.11-1.11,2.91,0,4.03l2.86,2.86-4.14,4.14c-3.69-2.74-8.66-2.97-12.55-.67l-4.3-4.3,2.03-2.03c1.11-1.12,1.11-2.92,0-4.03l-10.07-10.07c-.56-.56-1.28-.83-2.01-.83s-1.46,.28-2.01,.83l-22.15,22.15c-1.11,1.11-1.11,2.92,0,4.03l10.07,10.07c.56,.56,1.28,.83,2.01,.83s1.46-.28,2.01-.83l2.04-2.03,4.58,4.58c-1.21,4.64,3.24,11.3,8.5,16.56,3.11,3.1,6.42,5.64,9.33,7.12,2.26,1.16,4.09,1.59,5.56,1.59,1.98,0,3.32-.79,4.2-1.66l4.03-4.03,7.62-7.62c.15,.01,.3,.05,.45,.05,2.18,0,4.36-.83,6.02-2.49,1.61-1.61,2.5-3.75,2.5-6.02,0-1.81-.58-3.52-1.62-4.96l4.14-4.14,3.06,3.06c.56,.56,1.28,.83,2.01,.83s1.46-.28,2.01-.83l10.07-10.07c1.1-1.12,1.1-2.93,0-4.04m-82.62,2.01l18.19-18.19,6.11,6.12-1.95,1.95s-.08,.04-.12,.07c-.03,.04-.04,.08-.08,.12l-13.9,13.9s-.08,.04-.11,.07-.05,.08-.08,.11l-1.96,1.96-6.1-6.11Zm56.46,20.16c-1.08,1.08-2.82,1.09-3.95,.07l-.07-.07h-.03l-6.04-6.04c-1.11-1.1-2.89-1.1-3.99,0s-1.1,2.89,0,3.99l6.04,6.04s.02,.01,.02,.01l-4.07,4.07-6.06-6.06c-1.1-1.1-2.89-1.1-3.99,0s-1.1,2.89,0,3.99l6.06,6.06-.02,.02h0l-1.98,1.98c-.85,.38-5.25-1.12-11.15-7.02s-7.39-10.31-7.05-11.11c.53-.53,.82-1.25,.82-2s-.3-1.47-.82-1.99l-6.04-6.04,10.11-10.11,6.04,6.04s.03,.01,.03,.02l-.69,.69c-1.65,1.65-1.65,4.33,0,5.98,.83,.82,1.91,1.24,2.99,1.24s2.17-.42,2.99-1.24l5.7-5.7c.36-.36,.59-.77,.8-1.2,.08,.07,.17,.13,.25,.21l14.09,14.09c.54,.54,.84,1.27,.84,2.03,.02,.78-.28,1.5-.83,2.05m14.08-14.04l-18.19-18.19,6.11-6.12,18.19,18.19-6.11,6.12Z"/>
  </g>
</svg>