<?xml version="1.0" encoding="UTF-8"?>
<svg id="Camada_2" data-name="Camada 2" xmlns="http://www.w3.org/2000/svg" viewBox="0 0 145.08 145.08">
  <defs>
    <style>
      .cls-1 {
        fill: #fff;
      }

      .cls-2 {
        fill: #883093;
      }
    </style>
  </defs>
  <g id="Shape_5" data-name="Shape 5">
    <g>
      <path class="cls-2" d="M145.08,72.54c0,40.06-32.48,72.54-72.54,72.54S0,112.6,0,72.54,32.48,0,72.54,0s72.54,32.48,72.54,72.54"/>
      <path class="cls-1" d="M105.26,78.19h-10.31c-1.22-12.77-4.54-16.21-10.18-20.98l-.15-.13c3.19-3.14,5.17-7.51,5.17-12.34,0-9.56-7.75-17.32-17.32-17.32s-17.32,7.75-17.32,17.32c0,4.86,2,9.24,5.22,12.38l-.1,.08c-5.61,4.75-8.92,8.18-10.16,20.98h-10.32c-3.72,0-6.76,3.03-6.76,6.76v.58c0,3.35,2.45,6.11,5.64,6.65v25.5h5.64v-25.38h56.41v25.38h5.64v-25.5c3.19-.54,5.64-3.3,5.64-6.65v-.58c.02-3.72-3.01-6.75-6.74-6.75m-32.77-45.13c6.44,0,11.68,5.24,11.68,11.68s-5.24,11.68-11.68,11.68-11.68-5.24-11.68-11.68c-.01-6.44,5.24-11.68,11.68-11.68m-7.06,45.13h-9.66c1.07-10.66,3.52-12.75,8.16-16.68l1.26-1.07c.24,.11,.48,.23,.72,.33l.16,.23h.06c3.9,1.01,7.75,1.29,11.64,.1h.01c.15-.07,.31-.13,.46-.21,.37-.23,.72-.26,1.05-.22,.19-.08,.37-.16,.55-.25l1.3,1.1c4.66,3.95,7.12,6.05,8.17,16.68h-9.77m26.84,7.33c0,.62-.5,1.12-1.12,1.12H39.8c-.62,0-1.12-.5-1.12-1.12v-.58c0-.62,.5-1.12,1.12-1.12H105.26c.62,0,1.12,.5,1.12,1.12v.58Z"/>
    </g>
  </g>
</svg>