<?xml version="1.0" encoding="UTF-8"?>
<svg id="Camada_2" data-name="Camada 2" xmlns="http://www.w3.org/2000/svg" viewBox="0 0 145.08 145.08">
  <defs>
    <style>
      .cls-1 {
        fill: #fff;
      }

      .cls-2 {
        fill: #883093;
      }
    </style>
  </defs>
  <g id="Shape_5" data-name="Shape 5">
    <path class="cls-2" d="M145.08,72.54c0,40.06-32.48,72.54-72.54,72.54S0,112.6,0,72.54,32.48,0,72.54,0c40.07,0,72.54,32.47,72.54,72.54"/>
    <path class="cls-1" d="M72.39,102.89c1.3-2.02,2.63-4.67,4.31-7.34,1.64-3.35,3.67-6.64,5.68-10.31,2.97-6.01,6.32-12.01,8.34-17.64,1.65-4.04,2.66-8.02,2.66-10.37,0-1.33,0-2.66-.35-3.98-.32-1.33-.66-2.66-.98-3.99-.69-1.01-1.33-2.34-1.99-3.35-1.01-1.33-1.67-2.34-2.69-3.29-1.01-1.01-2.02-1.7-3.35-2.39-.98-.96-2.34-1.65-3.67-1.97-.98-.69-2.34-1.01-3.99-1.33-1.36,0-2.69-.32-3.99-.32-1.38,0-2.68,.32-4.01,.32-1.35,.32-2.68,.64-4.01,1.33-1.33,.32-2.66,1.01-3.69,1.97-.98,.69-2.31,1.38-3.32,2.39-.66,.95-1.65,1.97-2.66,3.29-.66,1.01-1.35,2.34-1.67,3.35-.66,1.33-.98,2.66-1.33,3.99s-.35,2.66-.35,3.98c0,2.66,1.33,7.02,3.35,12.01,2,5,4.99,10.64,7.65,16,2.34,4.31,5,8.67,7.02,12.33,1.03,1.97,2.35,3.67,3.04,5.32m7.34-50.98c-1.7-2.02-4.36-3.03-7.33-3.03s-5.68,1.01-7.36,3.03c-1.99,2.02-3,4.31-3,7.34s1.01,5.32,3,7.33c1.68,1.64,4.33,2.98,7.36,2.98s5.64-1.33,7.33-2.98c1.97-2.02,3.33-4.36,3.33-7.33s-1.36-5.31-3.33-7.34m-7.34-7.33c3.99,0,7.65,1.65,10.31,4.3,2.65,2.71,4.36,6.38,4.36,10.37s-1.71,7.65-4.36,10.31c-2.66,2.34-6.33,3.99-10.31,3.99s-7.71-1.65-10.36-3.99c-2.66-2.66-4.33-6.32-4.33-10.31s1.67-7.65,4.33-10.37c2.66-2.65,6.35-4.3,10.36-4.3m27.67,12.65c0,13.98-24.69,52.67-25.04,53.31l-.98,2.02-1.65,2.29-1.7-2.66-.98-1.65-.35-.32c-.66-1.33-6.67-10.68-12.36-21.31-5.98-11.32-11.98-24.66-11.98-31.68,0-1.64,0-3.67,.32-5.32,.35-1.64,1.01-3.35,1.67-4.99,.66-1.65,1.67-2.98,2.34-4.68,1.01-1.33,2.34-2.66,3.67-3.99,1.33-1.33,2.68-2.34,3.98-3.35,1.67-1.01,3-1.96,5.02-2.66,1.64-.64,3.35-1.01,4.99-1.32,1.67-.32,3.67-.69,5.37-.69,1.97,0,3.67,.37,5.32,.69,2.02,.32,3.67,.69,5.35,1.32,1.67,.69,3,1.65,4.65,2.66,1.67,1.01,3.03,2.02,4.01,3.35,2.69,2.34,4.68,5.32,6.01,8.67,.66,1.65,1.33,2.98,1.67,4.68,0,.64,.32,1.65,.32,2.66h.35v2.97Z"/>
  </g>
</svg>