<?xml version="1.0" encoding="UTF-8"?>
<svg id="Camada_2" data-name="Camada 2" xmlns="http://www.w3.org/2000/svg" viewBox="0 0 86 24">
  <defs>
    <style>
      .cls-1 {
        fill: #fff;
      }
    </style>
  </defs>
  <g id="Camada_2-2" data-name="Camada 2">
    <g id="Camada_1-2" data-name="Camada 1-2">
      <path class="cls-1" d="M0,3.49H5.84v.63H0v3.4H5.84v.63H0v3.51H5.84v.63H0v3.56H5.84v.63H0v3.41H5.84v.63H0v3.47H86v-3.47h-5.84v-.63h5.84v-3.41h-5.84v-.63h5.84v-3.56h-5.84v-.63h5.84v-3.51h-5.84v-.63h5.84v-3.4h-5.84v-.63h5.84V0H0V3.49Zm72.26,0h5.72l-4.38,17.06h-5.72s4.38-17.06,4.38-17.06Zm-22.21,4.8c1.27-4.04,5.84-5.15,10.15-5.15s8.3,1.25,6.91,5.36h-5.72c.2-.66,.07-1.16-.36-1.51-.4-.36-1.09-.54-2.06-.54-1.32,0-2.64,.71-2.85,1.56-.32,1.25,1.41,1.65,2.83,1.99,3.27,.73,8.23,1.02,7.05,5.62-.92,3.59-5.65,5.3-10.42,5.3-3.54,0-6.6-.63-7.52-2.81-.33-.78-.4-1.76-.1-2.98h5.72c-.44,1.61,.76,2.48,2.82,2.48,1.32,0,3.15-.56,3.44-1.7,.59-2.31-3.76-1.82-7.83-3.45-1.9-.76-2.53-2.32-2.06-4.16ZM32.62,3.49h15.71l-.29,1.12-.57,2.18h-10l-.9,3.52h9.2l-.85,3.31h-9.19l-.93,3.61h10l-.85,3.31h-15.72S32.62,3.49,32.62,3.49ZM8.26,15.11h5.72c-.44,1.61,.76,2.48,2.82,2.48,1.32,0,3.15-.56,3.44-1.7,.59-2.31-3.76-1.82-7.83-3.45-1.89-.76-2.51-2.31-2.04-4.16,1.27-4.04,5.84-5.15,10.15-5.15s8.3,1.25,6.91,5.36h-5.72c.2-.66,.07-1.16-.36-1.51-.4-.36-1.09-.54-2.06-.54-1.31,0-2.64,.71-2.85,1.56-.32,1.25,1.41,1.65,2.83,1.99,3.27,.73,8.22,1.02,7.04,5.62-.92,3.59-5.65,5.3-10.42,5.3s-8.74-1.17-7.63-5.8Z"/>
    </g>
  </g>
</svg>