<?xml version="1.0" encoding="utf-8"?>
<!-- Generator: Adobe Illustrator 27.1.1, SVG Export Plug-In . SVG Version: 6.00 Build 0)  -->
<svg version="1.1" id="Camada_1" xmlns="http://www.w3.org/2000/svg" xmlns:xlink="http://www.w3.org/1999/xlink" x="0px" y="0px"
	 viewBox="0 0 311.55 265.89" style="enable-background:new 0 0 311.55 265.89;" xml:space="preserve">
<style type="text/css">
	.st0{fill:#FFFFFF;}
</style>
<path class="st0" d="M231.79,201.16c0.25-1.46,0.75-3.97-0.96-6.27c-1.88-2.51-5.55-3.51-10.27-3.51c-3.63,0-9.02,0.63-13.32,4.01
	c-4.13,3.3-6.31,8.35-7.06,11.99c-1.04,4.8-0.29,9.56,2.96,12.45c2.92,2.63,7.35,3.13,10.61,3.13c4.47,0,9.06-0.63,13.66-1.67
	l3.42-16.12h-14.24l-1.21,5.72h6.39l-1.25,5.85c-1.59,0.29-3.17,0.5-4.72,0.5c-5.05,0-8.31-2.96-6.81-10.02
	c1.04-5.05,4.22-10.07,9.94-10.07c2.3,0,4.55,0.88,4.39,4.01H231.79z M156.5,222.29h7.23l5.22-25.52l1.46,25.52h7.52l12.53-25.31
	l-5.76,25.31h7.89l6.39-30.2l-13.16,0.04l-9.06,20.42l-0.71-20.42h-13.16L156.5,222.29z M129.16,222.29h22.97l1.25-5.85h-14.7
	l1.34-6.43h13.53l1.25-5.76h-13.53l1.34-6.27h14.37l1.21-5.76h-22.64L129.16,222.29z M115.14,222.29h8.6l6.39-30.16h-8.6
	L115.14,222.29z M90.34,222.29h8.31l2.42-11.44h12.11l1.25-5.81h-12.11l1.46-7.02h13.03l1.25-5.81H96.73L90.34,222.29z
	 M78.42,222.28h8.56v-1.12h-8.56v-6.02h8.56v-1.12h-8.56v-6.21h8.56v-1.12h-8.56v-6.31h8.56v-1.12h-8.56v-6.05h8.56v-1.12h-8.56
	v-6.14h166.04v6.14h-8.55v1.12h8.55v6.05h-8.55v1.12h8.55v6.31h-8.55v1.12h8.55v6.21h-8.55v1.12h8.55v6.02h-8.55v1.12h8.55v6.2
	H78.42V222.28z"/>
<path class="st0" d="M197.6,142.58v-1.12h8.59v-6.2h-89.5v42.53h89.5v-6.14h-8.59v-1.12h8.59v-6.04h-8.59v-1.12h8.59v-6.31h-8.59
	v-1.12h8.59v-6.21h-8.59v-1.12h8.59v-6.02H197.6z M125.64,171.65h-8.95v-1.12h8.95V171.65z M125.64,164.49h-8.95v-1.12h8.95V164.49z
	 M125.64,157.05h-8.95v-1.12h8.95V157.05z M125.64,149.72h-8.95v-1.12h8.95V149.72z M125.64,142.58h-8.95v-1.12h8.95V142.58z
	 M129.1,171.63l6.41-30.17h7.97h0.39l-0.39,1.82l-6.03,28.35H129.1z M167.51,159.38h-13.45l-1.36,6.39h14.62l-1.25,5.85h-22.59
	h-0.39l0.39-1.82l6.03-28.35h22.17h0.8l-0.8,3.78l-0.44,2.07h-14.62l-1.32,6.23h13.45L167.51,159.38z M192.9,171.63h-21.21h-0.8
	l0.8-3.78l5.61-26.38h8.35l-5.17,24.31h13.66L192.9,171.63z"/>
<path class="st0" d="M98.47,40.09h8.56v1.12h-8.56v6.02h8.56v1.12h-8.56v6.21h8.56v1.12h-8.56v6.31h8.56v1.12h-8.56v6.04h8.56v1.12
	h-8.56v6.14h125.95v-6.14h-8.55v-1.12h8.55v-6.04h-8.55v-1.12h8.55v-6.31h-8.55v-1.12h8.55v-6.21h-8.55v-1.12h8.55v-6.02h-8.55
	v-1.12h8.55v-6.19H98.47V40.09z M204.29,40.08h8.37l-6.42,30.21h-8.37L204.29,40.08z M171.76,48.58c1.86-7.16,8.55-9.12,14.87-9.12
	c6.23,0,12.16,2.22,10.12,9.5h-8.37c0.29-1.17,0.1-2.05-0.52-2.68c-0.58-0.63-1.6-0.96-3.02-0.96c-1.93,0-3.86,1.26-4.18,2.76
	c-0.47,2.22,2.06,2.93,4.15,3.52c4.79,1.3,12.05,1.8,10.32,9.96c-1.35,6.36-8.27,9.38-15.26,9.38c-5.18,0-9.66-1.12-11.02-4.98
	c-0.49-1.38-0.58-3.12-0.15-5.28h0.15h8.22c-0.64,2.85,1.12,4.39,4.13,4.39c1.93,0,4.61-1,5.04-3.01c0.87-4.1-5.51-3.22-11.47-6.11
	C171.99,54.6,171.07,51.84,171.76,48.58z M146.24,40.08h22.59h0.42l-0.42,1.99l-0.83,3.87h-14.65l-1.32,6.24h13.47l-1.24,5.86H150.8
	l-1.36,6.4h14.65l-1.25,5.86h-23.02L146.24,40.08z M110.56,60.67h8.37c-0.64,2.85,1.12,4.39,4.13,4.39c1.93,0,4.61-1,5.04-3.01
	c0.87-4.1-5.51-3.22-11.47-6.11c-2.77-1.34-3.68-4.1-2.99-7.36c1.86-7.16,8.55-9.12,14.87-9.12c6.23,0,12.16,2.22,10.12,9.5h-8.37
	c0.29-1.17,0.1-2.05-0.52-2.68c-0.58-0.63-1.6-0.96-3.02-0.96c-1.92,0-3.86,1.26-4.18,2.76c-0.47,2.22,2.06,2.93,4.15,3.52
	c4.79,1.3,12.04,1.8,10.31,9.96c-1.35,6.36-8.27,9.38-15.26,9.38C114.7,70.93,108.94,68.87,110.56,60.67z"/>
<path class="st0" d="M78.43,84.58v6.2h8.92v1.12h-8.92v6.02h8.92v1.12h-8.92v6.21h8.92v1.12h-8.92v6.31h8.92v1.12h-8.92v6.04h8.92
	v1.12h-8.92v6.14h166.03V84.58H78.43z M118.9,99.64h-8.37c0.29-1.17,0.1-2.05-0.52-2.68c-0.58-0.63-1.6-0.96-3.02-0.96
	c-1.92,0-3.86,1.25-4.18,2.76c-0.47,2.22,2.05,2.93,4.15,3.51c4.79,1.3,12.04,1.8,10.31,9.95c-1.35,6.36-8.27,9.38-15.25,9.38
	c-7.03,0-12.79-2.06-11.17-10.25h8.37c-0.64,2.84,1.12,4.39,4.13,4.39c1.93,0,4.61-1,5.03-3.01c0.87-4.1-5.51-3.22-11.46-6.11
	c-2.77-1.34-3.68-4.1-2.99-7.36c1.85-7.15,8.55-9.12,14.86-9.12C115.02,90.15,120.95,92.36,118.9,99.64z M144.53,108.71h-13.47
	l-1.36,6.4h14.64l-1.25,5.86h-23l6.42-30.2h22.16h0.85l-0.85,3.97l-0.4,1.88h-14.64l-1.33,6.23h13.47L144.53,108.71z M165.68,120.97
	l-5.33-23.13h-0.08l-4.91,23.13h-6.68h-0.85l0.85-3.98l5.57-26.21h11.71l5.34,22.5l0.1-0.08l4.77-22.42h5.87h1.66l-1.66,7.82
	l-4.76,22.38H165.68z M204.95,120.97l-0.75-5.9h-4.84h-7.41l-3.22,5.9h-6.7h-1.66l1.66-2.74l16.68-27.46h0.66h9.55l5.5,30.2H204.95z
	 M225.95,120.97h-8.36l6.42-30.2h8.36L225.95,120.97z M244.45,120.96h-8.92v-1.12h8.92V120.96z M244.45,113.8h-8.92v-1.12h8.92
	V113.8z M244.45,106.37h-8.92v-1.12h8.92V106.37z M244.45,99.04h-8.92v-1.12h8.92V99.04z M244.45,91.89h-8.92v-1.12h8.92V91.89z
	 M202.09,96.67l-2.73,5.07l-4.04,7.48h4.04h4.04l-1.18-12.55H202.09z"/>
</svg>
