<?xml version="1.0" encoding="utf-8"?>
<!-- Generator: Adobe Illustrator 27.1.1, SVG Export Plug-In . SVG Version: 6.00 Build 0)  -->
<svg version="1.1" id="Layer_1" xmlns="http://www.w3.org/2000/svg" xmlns:xlink="http://www.w3.org/1999/xlink" x="0px" y="0px"
	 viewBox="0 0 311.81 139.2" style="enable-background:new 0 0 311.81 139.2;" xml:space="preserve">
<style type="text/css">
	.st0{fill:#FFFFFF;}
</style>
<g>
	<g>
		<path class="st0" d="M73.84,90.02c-10.97,0-19.89-8.92-19.89-19.89s8.92-19.89,19.89-19.89h166.37c10.97,0,19.89,8.92,19.89,19.89
			s-8.92,19.89-19.89,19.89H73.84z M73.84,52.31c-9.83,0-17.82,7.99-17.82,17.82c0,9.83,7.99,17.82,17.82,17.82h166.37
			c9.83,0,17.82-7.99,17.82-17.82c0-9.83-7.99-17.82-17.82-17.82H73.84z"/>
	</g>
	<g>
		<path class="st0" d="M79.51,76.38c-0.3,0-0.56-0.11-0.79-0.33s-0.33-0.48-0.33-0.79v-12.1c0-0.3,0.11-0.56,0.33-0.79
			s0.48-0.33,0.79-0.33h6.6c0.18,0,0.34,0.07,0.47,0.2s0.2,0.28,0.2,0.45s-0.07,0.32-0.2,0.46c-0.13,0.14-0.29,0.21-0.47,0.21h-5.97
			c-0.12,0-0.18,0.05-0.18,0.16v4.36c0,0.11,0.06,0.16,0.18,0.16h5.62c0.18,0,0.33,0.06,0.45,0.19c0.12,0.12,0.18,0.27,0.18,0.44
			s-0.06,0.32-0.18,0.44c-0.12,0.12-0.27,0.19-0.45,0.19h-5.62c-0.12,0-0.18,0.06-0.18,0.18v5.44c0,0.1,0.06,0.16,0.18,0.16h5.97
			c0.18,0,0.34,0.07,0.47,0.21s0.2,0.29,0.2,0.46c0,0.17-0.07,0.32-0.2,0.45s-0.29,0.2-0.47,0.2H79.51z"/>
		<path class="st0" d="M91.23,76.16c-0.15,0.14-0.33,0.22-0.54,0.22c-0.21,0-0.39-0.07-0.54-0.22c-0.15-0.14-0.23-0.33-0.23-0.55
			V62.85c0-0.22,0.08-0.41,0.24-0.57s0.35-0.24,0.57-0.24c0.54,0,0.94,0.24,1.22,0.71l6.52,11.06c0,0.01,0.01,0.02,0.04,0.02
			c0.01,0,0.02-0.01,0.02-0.02v-11c0-0.22,0.08-0.41,0.23-0.55c0.15-0.14,0.33-0.22,0.54-0.22c0.21,0,0.39,0.07,0.54,0.22
			c0.15,0.14,0.23,0.33,0.23,0.55v12.77c0,0.22-0.08,0.41-0.24,0.57s-0.35,0.24-0.57,0.24c-0.54,0-0.94-0.24-1.22-0.71l-6.52-11.06
			c0-0.01-0.01-0.02-0.04-0.02c-0.01,0-0.02,0.01-0.02,0.02v11C91.46,75.84,91.38,76.02,91.23,76.16z"/>
		<path class="st0" d="M103.58,63.38c-0.18,0-0.34-0.07-0.47-0.2s-0.2-0.29-0.2-0.47s0.07-0.34,0.2-0.47s0.29-0.2,0.47-0.2h8.76
			c0.18,0,0.34,0.07,0.47,0.2s0.2,0.29,0.2,0.47s-0.07,0.34-0.2,0.47s-0.29,0.2-0.47,0.2h-3.42c-0.12,0-0.18,0.06-0.18,0.18v12.04
			c0,0.21-0.08,0.39-0.23,0.55s-0.34,0.24-0.56,0.24c-0.22,0-0.41-0.08-0.56-0.24s-0.23-0.34-0.23-0.55V63.55
			c0-0.12-0.06-0.18-0.18-0.18H103.58z"/>
		<path class="st0" d="M117.2,76.14c-0.15,0.16-0.34,0.24-0.56,0.24s-0.41-0.08-0.56-0.24s-0.23-0.34-0.23-0.55V63.26
			c0-0.33,0.1-0.61,0.31-0.85c0.21-0.24,0.47-0.38,0.79-0.42c0.77-0.09,1.63-0.14,2.57-0.14c1.83,0,3.22,0.34,4.16,1.01
			c0.94,0.67,1.4,1.63,1.4,2.88c0,1-0.26,1.82-0.8,2.48c-0.53,0.66-1.29,1.12-2.27,1.37c-0.01,0-0.02,0.01-0.02,0.04
			c0,0.01,0.01,0.02,0.02,0.02c0.56,0.33,1.14,1.18,1.73,2.55l1.42,3.44c0.08,0.17,0.06,0.34-0.05,0.5s-0.26,0.25-0.46,0.25
			c-0.25,0-0.48-0.07-0.68-0.22c-0.2-0.14-0.35-0.33-0.44-0.55l-1.38-3.38c-0.39-0.94-0.76-1.53-1.11-1.76
			c-0.35-0.23-1.03-0.34-2.05-0.34h-1.39c-0.12,0-0.18,0.05-0.18,0.16v5.3C117.43,75.8,117.35,75.99,117.2,76.14z M117.43,63.47
			v5.23c0,0.12,0.06,0.18,0.18,0.18H119c1.56,0,2.7-0.25,3.44-0.76s1.1-1.25,1.1-2.25c0-1.83-1.38-2.75-4.14-2.75
			c-0.59,0-1.19,0.05-1.79,0.16C117.48,63.3,117.43,63.37,117.43,63.47z"/>
		<path class="st0" d="M128.88,76.38c-0.3,0-0.56-0.11-0.79-0.33c-0.22-0.22-0.33-0.48-0.33-0.79v-12.1c0-0.3,0.11-0.56,0.33-0.79
			c0.22-0.22,0.48-0.33,0.79-0.33h6.6c0.18,0,0.34,0.07,0.47,0.2s0.2,0.28,0.2,0.45s-0.07,0.32-0.2,0.46
			c-0.13,0.14-0.29,0.21-0.47,0.21h-5.97c-0.12,0-0.18,0.05-0.18,0.16v4.36c0,0.11,0.06,0.16,0.18,0.16h5.62
			c0.18,0,0.33,0.06,0.45,0.19c0.12,0.12,0.18,0.27,0.18,0.44s-0.06,0.32-0.18,0.44c-0.12,0.12-0.27,0.19-0.45,0.19h-5.62
			c-0.12,0-0.18,0.06-0.18,0.18v5.44c0,0.1,0.06,0.16,0.18,0.16h5.97c0.18,0,0.34,0.07,0.47,0.21s0.2,0.29,0.2,0.46
			c0,0.17-0.07,0.32-0.2,0.45s-0.29,0.2-0.47,0.2H128.88z"/>
		<path class="st0" d="M145.94,76.14c-0.15,0.16-0.34,0.24-0.56,0.24s-0.41-0.08-0.56-0.24s-0.23-0.34-0.23-0.55V63.26
			c0-0.31,0.1-0.59,0.31-0.83c0.21-0.24,0.47-0.38,0.79-0.42c1.01-0.1,1.97-0.16,2.89-0.16c1.78,0,3.13,0.38,4.06,1.13
			c0.92,0.75,1.38,1.83,1.38,3.23c0,1.52-0.46,2.67-1.39,3.46c-0.93,0.79-2.28,1.18-4.05,1.18c-0.71,0-1.45-0.03-2.24-0.1
			c-0.12,0-0.18,0.05-0.18,0.14v4.71C146.16,75.8,146.09,75.99,145.94,76.14z M146.16,63.47v5.78c0,0.11,0.06,0.17,0.18,0.2
			c0.63,0.09,1.34,0.14,2.12,0.14c1.3,0,2.29-0.28,2.98-0.84c0.69-0.56,1.03-1.37,1.03-2.42s-0.34-1.84-1.01-2.39
			c-0.67-0.54-1.67-0.82-3-0.82c-0.71,0-1.42,0.05-2.12,0.16C146.22,63.3,146.16,63.37,146.16,63.47z"/>
		<path class="st0" d="M154.59,76.38c-0.2,0-0.35-0.08-0.47-0.25c-0.12-0.16-0.14-0.34-0.08-0.52l4.48-12.75
			c0.09-0.25,0.25-0.45,0.46-0.6c0.22-0.15,0.46-0.23,0.72-0.23s0.5,0.08,0.72,0.23c0.22,0.15,0.37,0.35,0.46,0.6l4.46,12.73
			c0.06,0.2,0.04,0.38-0.08,0.54s-0.28,0.25-0.47,0.25c-0.26,0-0.49-0.08-0.7-0.23s-0.34-0.34-0.42-0.58l-1.04-3.22
			c-0.04-0.11-0.12-0.16-0.24-0.16h-5.44c-0.1,0-0.18,0.05-0.22,0.16l-1.08,3.26c-0.08,0.24-0.21,0.42-0.4,0.56
			S154.84,76.38,154.59,76.38z M159.64,63.47l-2.4,7.31c-0.01,0.04-0.01,0.08,0.02,0.11c0.03,0.03,0.06,0.05,0.1,0.05h4.62
			c0.04,0,0.07-0.02,0.09-0.05c0.02-0.03,0.03-0.07,0.03-0.11l-2.4-7.31c0-0.01-0.01-0.02-0.02-0.02
			C159.65,63.45,159.64,63.46,159.64,63.47z"/>
		<path class="st0" d="M168.9,76.14c-0.15,0.16-0.34,0.24-0.56,0.24s-0.41-0.08-0.56-0.24s-0.23-0.34-0.23-0.55V63.26
			c0-0.33,0.1-0.61,0.31-0.85c0.21-0.24,0.47-0.38,0.79-0.42c0.77-0.09,1.63-0.14,2.57-0.14c1.83,0,3.22,0.34,4.16,1.01
			c0.94,0.67,1.4,1.63,1.4,2.88c0,1-0.26,1.82-0.8,2.48c-0.53,0.66-1.29,1.12-2.27,1.37c-0.01,0-0.02,0.01-0.02,0.04
			c0,0.01,0.01,0.02,0.02,0.02c0.56,0.33,1.14,1.18,1.73,2.55l1.42,3.44c0.08,0.17,0.06,0.34-0.05,0.5s-0.26,0.25-0.46,0.25
			c-0.25,0-0.48-0.07-0.68-0.22c-0.2-0.14-0.35-0.33-0.44-0.55l-1.38-3.38c-0.39-0.94-0.76-1.53-1.11-1.76
			c-0.35-0.23-1.03-0.34-2.05-0.34h-1.39c-0.12,0-0.18,0.05-0.18,0.16v5.3C169.13,75.8,169.05,75.99,168.9,76.14z M169.13,63.47
			v5.23c0,0.12,0.06,0.18,0.18,0.18h1.39c1.56,0,2.7-0.25,3.44-0.76s1.1-1.25,1.1-2.25c0-1.83-1.38-2.75-4.14-2.75
			c-0.59,0-1.19,0.05-1.79,0.16C169.19,63.3,169.13,63.37,169.13,63.47z"/>
		<path class="st0" d="M179.25,76.38c-0.2,0-0.35-0.08-0.47-0.25c-0.12-0.16-0.14-0.34-0.08-0.52l4.48-12.75
			c0.09-0.25,0.25-0.45,0.46-0.6c0.22-0.15,0.46-0.23,0.72-0.23s0.5,0.08,0.72,0.23c0.22,0.15,0.37,0.35,0.46,0.6l4.46,12.73
			c0.06,0.2,0.04,0.38-0.08,0.54s-0.28,0.25-0.47,0.25c-0.26,0-0.49-0.08-0.7-0.23s-0.34-0.34-0.42-0.58l-1.04-3.22
			c-0.04-0.11-0.12-0.16-0.24-0.16h-5.44c-0.1,0-0.18,0.05-0.22,0.16l-1.08,3.26c-0.08,0.24-0.21,0.42-0.4,0.56
			S179.49,76.38,179.25,76.38z M184.29,63.47l-2.4,7.31c-0.01,0.04-0.01,0.08,0.02,0.11c0.03,0.03,0.06,0.05,0.1,0.05h4.62
			c0.04,0,0.07-0.02,0.09-0.05c0.02-0.03,0.03-0.07,0.03-0.11l-2.4-7.31c0-0.01-0.01-0.02-0.02-0.02
			C184.31,63.45,184.29,63.46,184.29,63.47z"/>
		<path class="st0" d="M207.42,74.64c-1.11,1.29-2.63,1.93-4.57,1.93s-3.46-0.64-4.57-1.93s-1.66-3.1-1.66-5.43s0.55-4.14,1.66-5.43
			c1.11-1.29,2.63-1.93,4.57-1.93s3.46,0.65,4.57,1.93c1.11,1.29,1.66,3.1,1.66,5.43S208.53,73.35,207.42,74.64z M206.29,64.69
			c-0.79-1.02-1.93-1.53-3.43-1.53s-2.64,0.51-3.43,1.53c-0.79,1.02-1.19,2.53-1.19,4.52c0,1.99,0.4,3.5,1.19,4.52
			s1.93,1.53,3.43,1.53s2.64-0.51,3.43-1.53c0.79-1.02,1.19-2.53,1.19-4.52C207.47,67.22,207.08,65.71,206.29,64.69z"/>
		<path class="st0" d="M218.19,76.14c-0.15,0.16-0.34,0.24-0.56,0.24s-0.41-0.08-0.56-0.24s-0.23-0.34-0.23-0.55V63.26
			c0-0.31,0.1-0.59,0.31-0.83c0.21-0.24,0.47-0.38,0.79-0.42c1.01-0.1,1.97-0.16,2.89-0.16c1.78,0,3.13,0.38,4.06,1.13
			c0.92,0.75,1.38,1.83,1.38,3.23c0,1.52-0.46,2.67-1.39,3.46c-0.93,0.79-2.28,1.18-4.05,1.18c-0.71,0-1.45-0.03-2.24-0.1
			c-0.12,0-0.18,0.05-0.18,0.14v4.71C218.42,75.8,218.34,75.99,218.19,76.14z M218.42,63.47v5.78c0,0.11,0.06,0.17,0.18,0.2
			c0.63,0.09,1.34,0.14,2.12,0.14c1.3,0,2.29-0.28,2.98-0.84c0.69-0.56,1.03-1.37,1.03-2.42s-0.34-1.84-1.01-2.39
			c-0.67-0.54-1.67-0.82-3-0.82c-0.71,0-1.42,0.05-2.12,0.16C218.47,63.3,218.42,63.37,218.42,63.47z"/>
		<path class="st0" d="M229.16,62.04h7.92c0.17,0,0.32,0.07,0.45,0.2s0.2,0.28,0.2,0.45c0,0.43-0.11,0.84-0.33,1.22
			c-2,3.38-3.71,7.28-5.11,11.71c-0.07,0.22-0.2,0.41-0.39,0.55c-0.2,0.14-0.42,0.22-0.67,0.22c-0.21,0-0.37-0.08-0.49-0.25
			s-0.14-0.34-0.08-0.54c1.48-4.49,3.33-8.55,5.54-12.18V63.4l0.02-0.02c0-0.01-0.01-0.02-0.02-0.02h-7.03
			c-0.18,0-0.34-0.07-0.47-0.21c-0.13-0.14-0.2-0.29-0.2-0.46s0.07-0.32,0.2-0.45S228.98,62.04,229.16,62.04z"/>
	</g>
</g>
</svg>
