<?xml version="1.0" encoding="UTF-8"?>
<svg id="Camada_2" data-name="Camada 2" xmlns="http://www.w3.org/2000/svg" viewBox="0 0 131.8 135.99">
  <defs>
    <style>
      .cls-1 {
        fill: #fff;
      }
    </style>
  </defs>
  <g id="Camada_2-2" data-name="Camada 2">
    <g id="Layer_1" data-name="Layer 1">
      <g>
        <g>
          <path class="cls-1" d="M30.87,132.25c-.33-.19-.7-.2-1.06,0h-.02c-.29,.19-.59,.32-.92,.39-.87,.2-1.83,.15-2.65-.21-.5-.22-.95-.53-1.32-.92-.37-.38-.68-.85-.9-1.36-.22-.52-.33-1.07-.33-1.66s.11-1.15,.33-1.66c.23-.52,.52-.97,.9-1.36,.37-.38,.83-.7,1.32-.92,.81-.36,1.73-.44,2.63-.2,.34,.09,.66,.21,.97,.38,.06,.03,.14,.05,.23,.08,.34,.1,.57,.04,.82-.1,.18-.1,.32-.26,.42-.45,.15-.26,.17-.54,.08-.84-.1-.29-.26-.51-.53-.68-.45-.22-.95-.41-1.46-.55-1.42-.4-2.81-.25-4.03,.29-.77,.34-1.45,.81-2.03,1.41-.57,.59-1.03,1.29-1.37,2.08-.33,.78-.5,1.64-.5,2.52s.17,1.74,.5,2.53c.33,.79,.79,1.49,1.37,2.08s1.25,1.06,2.03,1.4,1.6,.51,2.47,.51c.5,0,1.03-.07,1.56-.21,.52-.14,1.02-.33,1.5-.58,.24-.16,.41-.38,.5-.67,.1-.29,.07-.58-.07-.83-.12-.2-.27-.36-.44-.45h0Z"/>
          <path class="cls-1" d="M42.15,130.14c.31-.19,.59-.41,.83-.66,.11-.12,.22-.23,.31-.36v.19l.42-.86c.12-.25,.22-.51,.29-.75,.07-.24,.12-.45,.16-.65,.03-.19,.06-.36,.06-.5v-.23c0-.86-.2-1.62-.58-2.28-.39-.66-.93-1.19-1.62-1.55-.24-.12-.49-.2-.72-.28s-.44-.12-.63-.16c-.19-.04-.35-.06-.48-.07-.13,0-.22-.02-.24-.02h-2.88c-.3,0-.55,.11-.76,.33-.21,.21-.32,.48-.32,.78v10.82c0,.3,.1,.56,.32,.78,.43,.45,1.12,.43,1.54,0,.21-.21,.32-.48,.32-.78v-3.21h1.71l2.32,3.8c.22,.34,.54,.52,.94,.52,.22,0,.41-.05,.57-.17s.28-.26,.37-.42c.1-.17,.14-.35,.14-.52,0-.09,0-.17-.03-.26h.09l-2.11-3.49h0Zm-.17-3.43c-.03,.12-.05,.24-.1,.39-.03,.13-.09,.27-.15,.39-.36,.64-.95,.94-1.79,.94h-1.78v-4.22h1.78c.11,0,.23,0,.34,.04,.11,.03,.23,.05,.37,.09,.12,.04,.25,.08,.38,.14,.66,.35,.98,.95,.98,1.84v.12c0,.07,0,.16-.03,.27h0Z"/>
          <path class="cls-1" d="M49.19,122.29c-.21,.21-.32,.48-.32,.78v10.82c0,.3,.1,.56,.32,.78,.21,.21,.47,.33,.76,.33s.55-.11,.77-.32,.33-.48,.33-.78v-10.82c0-.3-.11-.56-.33-.78-.43-.43-1.1-.42-1.52,0h0Z"/>
          <path class="cls-1" d="M62.07,122.66c-.1-.19-.23-.35-.4-.48-.38-.29-.85-.28-1.21,0-.17,.13-.3,.29-.41,.5-.68,1.74-1.38,3.54-2.11,5.39s-1.43,3.65-2.1,5.4c-.04,.12-.07,.27-.07,.42,0,.27,.1,.53,.29,.75,.2,.23,.47,.36,.79,.36,.21,0,.42-.08,.61-.22,.17-.14,.31-.3,.4-.49l.78-1.98h4.84l.78,2.01c.1,.17,.23,.32,.41,.46,.19,.15,.39,.22,.61,.22,.33,0,.6-.12,.8-.35,.18-.22,.28-.47,.28-.76,0-.16-.03-.3-.07-.42l-4.23-10.81h0Zm.52,7.42h-3.05l1.54-3.97s1.51,3.97,1.51,3.97Z"/>
          <path class="cls-1" d="M75.92,121.96h-6.31c-.3,0-.55,.11-.77,.32s-.33,.48-.33,.78,.11,.58,.33,.8,.48,.34,.77,.34h2.08v9.68c0,.3,.1,.56,.32,.78,.21,.21,.47,.33,.76,.33,.3,0,.57-.11,.77-.33,.21-.21,.32-.48,.32-.78v-9.67h2.06c.3,0,.57-.12,.78-.34s.33-.49,.33-.8-.11-.56-.33-.78c-.22-.21-.48-.33-.78-.33Z"/>
          <path class="cls-1" d="M81.98,122.29c-.21,.21-.32,.48-.32,.78v10.82c0,.3,.1,.56,.32,.78,.21,.21,.47,.33,.76,.33s.55-.11,.77-.32,.33-.48,.33-.78v-10.82c0-.3-.11-.56-.33-.78-.43-.43-1.1-.42-1.52,0h0Z"/>
          <path class="cls-1" d="M98.07,121.96c-.22,0-.43,.06-.61,.19-.19,.12-.33,.3-.42,.53l-3.18,8.2-3.21-8.18c-.07-.23-.21-.41-.4-.54-.19-.12-.39-.19-.61-.19-.32,0-.59,.12-.79,.36-.19,.22-.29,.48-.29,.77,0,.16,.03,.29,.07,.41l4.22,10.81c.1,.19,.23,.35,.4,.48,.18,.14,.39,.21,.62,.21,.21,0,.41-.07,.6-.21,.17-.13,.3-.29,.42-.5,.67-1.73,1.37-3.55,2.1-5.39,.73-1.84,1.43-3.65,2.1-5.39,.04-.12,.07-.25,.07-.43,0-.27-.1-.52-.28-.75-.22-.24-.49-.37-.82-.37Z"/>
          <path class="cls-1" d="M114.12,125.95c-.32-.78-.76-1.48-1.3-2.08s-1.2-1.07-1.94-1.41c-1.48-.69-3.26-.69-4.74,0-.74,.34-1.39,.81-1.94,1.41-.55,.59-.99,1.29-1.3,2.08-.32,.78-.48,1.63-.48,2.52s.17,1.74,.48,2.53c.32,.79,.76,1.49,1.3,2.08s1.2,1.06,1.94,1.4,1.54,.52,2.37,.52,1.63-.17,2.37-.52c.74-.34,1.39-.81,1.94-1.4s.99-1.28,1.3-2.08c.32-.79,.48-1.64,.48-2.53s-.17-1.73-.49-2.52h0Zm-1.7,2.53c0,.59-.1,1.15-.3,1.67-.21,.52-.49,.97-.84,1.36-.36,.38-.77,.7-1.23,.91-.93,.44-2.1,.44-3.03,0-.47-.22-.89-.53-1.23-.91-.36-.38-.63-.85-.84-1.36s-.3-1.08-.3-1.67,.1-1.15,.3-1.67c.21-.52,.49-.97,.84-1.36,.36-.38,.77-.7,1.23-.91,.47-.22,.97-.33,1.51-.33s1.04,.11,1.51,.33,.89,.53,1.23,.91c.36,.38,.63,.85,.84,1.36,.2,.51,.3,1.07,.3,1.67h0Z"/>
        </g>
        <path class="cls-1" d="M130.09,10.16C126.03,1.36,117.2-.34,112.4,.05h-47.87c2.57,1.97,4.83,4.63,6.44,8.12,.48,1.02,.85,2.03,1.17,3.01h40.5c1.25,.02,5.56-.46,7.64,3.74,.44,.89,1.78,3.85-5.91,12.72-7.52,8.67-72.42,74.22-73.11,74.93-2.14,2.16-2.16,5.69-.05,7.87,1.06,1.11,2.46,1.66,3.87,1.66s2.76-.53,3.82-1.6c2.84-2.87,65.85-66.51,73.61-75.45,7.05-8.15,12.1-15.14,7.59-24.88h0Z"/>
        <path class="cls-1" d="M66.09,10.19C62.03,1.4,54.49,.09,48.4,.09L10.57,.05C3.77,.05,.03,4.8,.03,12.17l-.03,118.25c0,3.07,2.43,5.57,5.43,5.57s5.43-2.5,5.43-5.57v-46.5c4-4,40.14-40.2,47.62-48.84,7.06-8.15,12.1-15.15,7.6-24.88Zm-15.72,17.49c-5.42,6.25-27.49,28.55-39.51,40.65V17.86c0-2.13,.65-6.68,5.9-6.68H49.17c.33,.02,5.75-.39,7.02,3.61,.46,1.43,1.87,4.02-5.82,12.89Z"/>
      </g>
    </g>
  </g>
</svg>