<?xml version="1.0" encoding="UTF-8"?>
<svg id="Camada_2" data-name="Camada 2" xmlns="http://www.w3.org/2000/svg" viewBox="0 0 141.4 18.59">
  <defs>
    <style>
      .cls-1 {
        fill: #fff;
      }
    </style>
  </defs>
  <g id="Camada_1-2" data-name="Camada 1">
    <g>
      <path class="cls-1" d="M10.52,15.9v-7.67c0-1.58-.78-2.5-2.13-2.5-.57,0-1.13,.14-1.64,.38,1.09-.71,2.35-1.09,3.65-1.1,1.94-.17,3.65,1.27,3.83,3.21,.02,.19,.02,.38,0,.56v7.36c-.14,.98,.52,1.9,1.49,2.09h-6.46c.54-.2,1.26-.63,1.26-2.33Zm-8.62,.09V7.99c.05-1.14-.77-2.13-1.9-2.29l5.63-.72v11.15c-.16,.97,.47,1.9,1.44,2.1H.43c.63-.2,1.47-.63,1.47-2.24Z"/>
      <path class="cls-1" d="M20.72,11.34c0-2.56,.72-5.61,2.16-6.3-3.54,.28-6.23,3.29-6.12,6.84,0,4.11,3,6.7,7.38,6.7,1.89,.07,3.73-.54,5.2-1.73-1.1,.59-2.32,.9-3.56,.92-3.33,0-5.06-2.44-5.06-6.43Z"/>
      <path class="cls-1" d="M26.93,9.08c-.4,.99-1.37,1.62-2.43,1.59h6c-.02-3.02-2.39-5.5-5.4-5.66,1.25,.69,2.26,2.87,1.83,4.07Z"/>
      <path class="cls-1" d="M43,11.77c0-3.77-.83-6.07-2.44-6.79,4.77,.46,6.53,3.68,6.53,6.67,.08,3.63-2.73,6.67-6.36,6.87,1.46-.8,2.27-3.07,2.27-6.75Zm-11.29,.05c0-3.88,2.56-6.43,6.64-6.84-1.58,.72-2.53,3-2.53,6.87,0,4.08,1,6,2.3,6.67-3.12-.29-6.42-2.29-6.42-6.7h0Z"/>
      <path class="cls-1" d="M60.61,4.94l-5.3,13.2h-2.17l-5.27-13.2h2.41l3.94,10.56,4-10.56h2.39Zm12.62,6.48v.79h-10c-.01,1.17,.44,2.29,1.26,3.12,.72,.72,1.69,1.13,2.7,1.14,.85,.05,1.69-.16,2.41-.6,.62-.4,1.08-1,1.3-1.7h1.91c-.07,.47-.22,.93-.45,1.35-.27,.48-.61,.93-1,1.32-.48,.46-1.07,.8-1.7,1-.76,.26-1.56,.39-2.36,.39-1.71,.05-3.36-.66-4.5-1.93-1.15-1.33-1.76-3.05-1.7-4.81-.07-1.77,.52-3.5,1.65-4.86,1.14-1.29,2.8-1.99,4.52-1.91,1.65-.07,3.25,.6,4.35,1.84,1.13,1.36,1.7,3.1,1.61,4.86Zm-6-4.84c-1.03-.04-2.02,.34-2.75,1.07-.72,.8-1.16,1.82-1.24,2.89h7.88c-.05-1.06-.44-2.07-1.12-2.89-.71-.74-1.71-1.13-2.73-1.07h-.04Zm14.32-1.89c1.28-.05,2.53,.42,3.45,1.32,.9,.95,1.37,2.23,1.31,3.54v8.59h-2.2V9.77c.04-.84-.27-1.65-.86-2.25-.61-.57-1.42-.88-2.25-.85-.98-.02-1.93,.3-2.69,.91-.72,.54-1.15,1.39-1.14,2.29v8.27h-2.25V4.84h1.94l.21,2c.5-.68,1.16-1.22,1.93-1.56,.79-.39,1.67-.59,2.55-.59Zm12,13.47c-1.04,.06-2.07-.21-2.95-.77-.77-.74-1.14-1.79-1-2.85V6.54h-2.1v-1.75h2.08V0h2.15V4.79h3.15v1.79h-3.2v7.74c-.04,.52,.09,1.04,.38,1.47,.4,.39,.96,.57,1.51,.49h1.43v1.91l-1.45-.03Zm14.66-13.32v13.3h-2l-.22-2c-.5,.67-1.16,1.21-1.92,1.56-.79,.39-1.65,.59-2.53,.59-2.63,.14-4.86-1.88-5-4.51,0-.16,0-.33,0-.49V4.84h2.27V13.04c-.04,.87,.28,1.72,.88,2.35,.63,.6,1.47,.92,2.34,.88,.98,.02,1.94-.3,2.71-.91,.78-.52,1.25-1.39,1.26-2.32V4.84h2.21Zm9.33-.13v1.91c-1.25-.12-2.49,.24-3.48,1-.93,.85-1.42,2.07-1.33,3.33v7.21h-2.27V4.84h2l.24,2.39c.79-1.79,2.41-2.63,4.84-2.52Zm12.76,6.71c0,.14,0,.4-.05,.79h-10c-.02,1.17,.43,2.29,1.25,3.12,.72,.72,1.69,1.13,2.71,1.14,.84,.05,1.68-.16,2.4-.6,.62-.4,1.08-1,1.3-1.7h1.92c-.08,.47-.23,.93-.45,1.35-.28,.48-.61,.92-1,1.32-.49,.45-1.07,.8-1.7,1-.77,.26-1.58,.38-2.39,.37-1.71,.05-3.36-.66-4.5-1.93-1.15-1.33-1.76-3.05-1.7-4.81-.07-1.77,.52-3.5,1.66-4.86,1.14-1.29,2.8-1.99,4.52-1.91,1.65-.07,3.25,.6,4.34,1.84,1.16,1.35,1.76,3.1,1.69,4.88Zm-6-4.84c-1.03-.04-2.02,.34-2.75,1.07-.72,.8-1.16,1.82-1.24,2.89h7.87c-.06-1.07-.48-2.09-1.18-2.89-.7-.72-1.66-1.11-2.66-1.07h-.04Zm12,11.77c-1.39,.09-2.77-.37-3.83-1.28-.8-.74-1.3-1.75-1.4-2.84h2c.13,.69,.53,1.3,1.11,1.7,.63,.48,1.4,.74,2.19,.72,.72,.01,1.42-.22,2-.65,.5-.39,.79-.99,.78-1.62,.02-.64-.31-1.23-.87-1.54-.77-.42-1.61-.69-2.48-.81-1.1-.19-2.16-.58-3.11-1.16-.78-.54-1.21-1.45-1.15-2.39-.03-1.1,.49-2.14,1.39-2.78,2.03-1.37,4.68-1.4,6.74-.08,.88,.67,1.43,1.7,1.49,2.81h-1.9c-.09-.62-.46-1.17-1-1.49-.52-.3-1.1-.48-1.7-.52-.66-.05-1.33,.1-1.91,.42-.54,.25-.87,.8-.84,1.39-.03,.59,.28,1.14,.8,1.41,.76,.36,1.56,.6,2.39,.72,2.93,.57,4.4,1.87,4.4,3.9,.03,1.15-.49,2.25-1.4,2.97-1.04,.79-2.33,1.19-3.63,1.12h-.07Z"/>
    </g>
  </g>
</svg>