<?xml version="1.0" encoding="utf-8"?>
<!-- Generator: Adobe Illustrator 27.1.1, SVG Export Plug-In . SVG Version: 6.00 Build 0)  -->
<svg version="1.1" id="Layer_1" xmlns="http://www.w3.org/2000/svg" xmlns:xlink="http://www.w3.org/1999/xlink" x="0px" y="0px"
	 viewBox="0 0 700.3 415.28" style="enable-background:new 0 0 700.3 415.28;" xml:space="preserve">
<style type="text/css">
	.st0{fill:#E82163;}
</style>
<polygon class="st0" points="506.65,304.97 396.34,415.28 424.85,415.28 535.66,304.47 "/>
<polygon class="st0" points="339.59,415.28 368.11,415.28 440.79,342.6 412.94,341.93 "/>
<polygon class="st0" points="282.85,415.28 311.36,415.28 535.66,190.97 507.65,190.47 "/>
<polygon class="st0" points="419.18,106.32 112.61,415.28 141.12,415.28 449.29,104.45 "/>
<polygon class="st0" points="199.64,301.78 490.68,9.21 462.29,9.21 171.13,301.78 "/>
<polygon class="st0" points="416.9,0 0,415.28 28.51,415.28 445.41,0 "/>
<polygon class="st0" points="618.69,9.21 590.18,9.21 535.76,62.72 564.88,62.72 "/>
<polygon class="st0" points="646.47,9.21 401.21,252.5 429.96,252.26 674.98,9.21 "/>
<polygon class="st0" points="516.04,252.38 545.24,252.38 700.3,97.36 700.3,68.69 "/>
<polygon class="st0" points="644.7,236.19 466,415.28 496.28,415.28 673.21,236.19 "/>
<polygon class="st0" points="532.19,415.28 562.47,415.28 700.3,275.09 700.3,246.71 "/>
</svg>
