<?xml version="1.0" encoding="utf-8"?>
<!-- Generator: Adobe Illustrator 27.1.1, SVG Export Plug-In . SVG Version: 6.00 Build 0)  -->
<svg version="1.1" id="Shape_5" xmlns="http://www.w3.org/2000/svg" xmlns:xlink="http://www.w3.org/1999/xlink" x="0px" y="0px"
	 viewBox="0 0 3150 853.75" style="enable-background:new 0 0 3150 853.75;" xml:space="preserve">
<style type="text/css">
	.st0{fill-rule:evenodd;clip-rule:evenodd;fill:#FFFFFF;}
	.st1{fill:#893094;}
</style>
<g>
	<path class="st0" d="M1573.31,517.44c59.99,0,108.61-48.62,108.61-108.61c0-59.99-48.63-108.61-108.61-108.61
		c-59.99,0-108.61,48.62-108.61,108.61C1464.7,468.81,1513.32,517.44,1573.31,517.44z"/>
</g>
<g>
	<path class="st0" d="M950.87,517.44c59.99,0,108.61-48.62,108.61-108.61c0-59.99-48.63-108.61-108.61-108.61
		c-59.99,0-108.61,48.62-108.61,108.61C842.25,468.81,890.88,517.44,950.87,517.44z"/>
</g>
<g>
	<path class="st0" d="M2199.85,517.44c59.99,0,108.61-48.62,108.61-108.61c0-59.99-48.63-108.61-108.61-108.61
		c-59.99,0-108.61,48.62-108.61,108.61C2091.24,468.81,2139.86,517.44,2199.85,517.44z"/>
</g>
<g>
	<path class="st0" d="M2816.15,517.44c59.99,0,108.61-48.62,108.61-108.61c0-59.99-48.63-108.61-108.61-108.61
		c-59.99,0-108.61,48.62-108.61,108.61C2707.54,468.81,2756.17,517.44,2816.15,517.44z"/>
</g>
<g>
	<g>
		<path class="st1" d="M1573.23,490.06c-0.94,0-1.88-0.36-2.6-1.08c-1.44-1.44-1.44-3.77,0-5.21l48.19-48.19
			c1.44-1.44,3.77-1.44,5.21,0s1.44,3.77,0,5.21l-48.19,48.19C1575.11,489.7,1574.17,490.06,1573.23,490.06z M1537.36,484.63
			c-0.94,0-1.88-0.36-2.6-1.08c-1.44-1.44-1.44-3.77,0-5.21l19.92-19.93c1.43-1.44,3.77-1.44,5.21,0s1.44,3.77,0,5.21l-19.92,19.93
			C1539.25,484.27,1538.3,484.63,1537.36,484.63z M1523.59,452.02c-0.94,0-1.88-0.36-2.6-1.08c-1.44-1.44-1.44-3.77,0-5.21
			l44.92-44.92c1.44-1.44,3.77-1.44,5.21,0c1.44,1.44,1.44,3.77,0,5.21l-44.92,44.92C1525.47,451.66,1524.53,452.02,1523.59,452.02z
			 M1577.22,444.77c-0.94,0-1.88-0.36-2.6-1.08c-1.44-1.44-1.44-3.77,0-5.21l63.04-63.04c1.44-1.44,3.77-1.44,5.21,0
			s1.44,3.77,0,5.21l-63.04,63.04C1579.1,444.41,1578.16,444.77,1577.22,444.77z M1510.91,411.08c-0.94,0-1.89-0.36-2.61-1.08
			c-1.43-1.44-1.43-3.77,0.01-5.21l8.7-8.69c1.44-1.44,3.77-1.44,5.21,0c1.43,1.44,1.43,3.77-0.01,5.21l-8.7,8.69
			C1512.79,410.72,1511.85,411.08,1510.91,411.08z M1537.72,384.27c-0.94,0-1.88-0.36-2.6-1.08c-1.44-1.44-1.44-3.77,0-5.21
			l29.71-29.71c1.44-1.44,3.77-1.44,5.21,0c1.44,1.44,1.44,3.77,0,5.21l-29.71,29.71C1539.6,383.91,1538.66,384.27,1537.72,384.27z"
			/>
	</g>
	<g>
		<path class="st1" d="M1640.79,408.15L1640.79,408.15c-2.03,0-3.68-1.65-3.68-3.69v-23.01h-23.01c-2.03,0-3.68-1.65-3.68-3.69
			c0-2.04,1.65-3.69,3.68-3.69h26.7c0.98,0,1.91,0.39,2.6,1.08c0.7,0.69,1.08,1.63,1.08,2.61l-0.01,26.7
			C1644.47,406.5,1642.82,408.15,1640.79,408.15z M1570.27,378.81c-2.03,0-3.68-1.65-3.68-3.69v-23.01l-23.01,0
			c-2.03,0-3.68-1.65-3.68-3.69c0-2.04,1.65-3.69,3.68-3.69l0,0l26.7,0c2.03,0,3.68,1.65,3.68,3.69v26.69
			C1573.95,377.16,1572.3,378.81,1570.27,378.81z"/>
	</g>
</g>
<g>
	<path class="st1" d="M1035.87,395.22c0,7.96-6.45,14.41-14.41,14.41c-3.87,0-7.39-1.52-9.97-4c-2.42-2.31-4.03-5.46-4.38-8.97
		c-0.04-0.47-0.07-0.95-0.07-1.43c0-7.96,6.45-14.41,14.41-14.41C1029.42,380.81,1035.87,387.27,1035.87,395.22"/>
</g>
<g>
	<path class="st1" d="M992.39,448.21c0,7.96-6.45,14.41-14.41,14.41c-7.96,0-14.41-6.45-14.41-14.41c0-7.01,5.01-12.85,11.64-14.14
		c0.9-0.17,1.82-0.26,2.77-0.26c2.03,0,3.96,0.42,5.72,1.18C988.81,437.19,992.39,442.28,992.39,448.21"/>
</g>
<g>
	<path class="st1" d="M958.35,371.31c0,7.96-6.45,14.41-14.41,14.41c-7.96,0-14.41-6.45-14.41-14.41c0-7.01,5.01-12.85,11.64-14.14
		c0.9-0.17,1.82-0.26,2.77-0.26c2.03,0,3.96,0.42,5.72,1.18C954.77,360.3,958.35,365.39,958.35,371.31"/>
</g>
<g>
	<path class="st1" d="M893.67,417.17c0,7.96-6.45,14.41-14.41,14.41c-7.96,0-14.41-6.45-14.41-14.41c0-7.01,5.01-12.85,11.64-14.14
		c0.9-0.17,1.82-0.26,2.77-0.26c2.03,0,3.96,0.42,5.72,1.18C890.09,406.16,893.67,411.25,893.67,417.17"/>
</g>
<g>
	<path class="st1" d="M978.26,443.8c-0.17,0-0.34-0.01-0.5-0.04c-1.01-0.16-1.87-0.82-2.29-1.75l-15.87-34.62l-82.09,13.17
		c-1.41,0.22-2.83-0.57-3.35-1.93c-0.52-1.36-0.02-2.89,1.19-3.68l69.8-45.35c0.75-0.49,1.67-0.62,2.53-0.37
		c0.86,0.25,1.56,0.86,1.93,1.67l13.62,29.7l58.56-9.39c1.28-0.21,2.59,0.43,3.2,1.6c0.61,1.16,0.42,2.59-0.49,3.54l-44.02,46.5
		C979.9,443.46,979.09,443.8,978.26,443.8z M965.89,406.38l13.27,28.93l34.67-36.62L965.89,406.38z M945.52,376.68l-54.64,35.5
		l66.06-10.6l-9.75-21.26l0,0L945.52,376.68z"/>
</g>
<g>
	<path class="st0" d="M327.03,517.44c59.99,0,108.61-48.62,108.61-108.61c0-59.99-48.63-108.61-108.61-108.61
		c-59.99,0-108.61,48.62-108.61,108.61C218.42,468.81,267.04,517.44,327.03,517.44z"/>
</g>
<g>
	<g>
		<path class="st1" d="M2785.73,365.32c0,0.67,0.27,1.31,0.74,1.78c0.47,0.47,1.11,0.74,1.78,0.74h4.86c0.44,0,0.88-0.04,1.31-0.13
			c1.93,5.99,6.33,10.88,12.09,13.41c5.76,2.53,12.34,2.47,18.05-0.16s10.03-7.6,11.85-13.62c0.45,0.09,0.9,0.13,1.36,0.13h4.74
			c0.67,0,1.31-0.27,1.78-0.74c0.47-0.47,0.74-1.11,0.74-1.78v-9.4c-0.01-0.74-0.35-1.45-0.93-1.91c-2.1-8.69-8.02-15.97-16.1-19.79
			c-8.08-3.83-17.46-3.79-25.52,0.09c-8.06,3.88-13.92,11.2-15.97,19.9c-0.51,0.47-0.8,1.14-0.81,1.84L2785.73,365.32z
			 M2790.76,362.8v-2.52v-2.04h2.24c0.6,0.01,1.17,0.27,1.57,0.71c0.4,0.44,0.61,1.03,0.57,1.63c0,1.18-0.96,2.14-2.14,2.14
			L2790.76,362.8z M2815.35,377.92c-3.81-0.01-7.51-1.31-10.49-3.67c-2.99-2.37-5.09-5.67-5.98-9.37c0.92-1.29,1.41-2.83,1.41-4.41
			c0-1.45-0.44-2.86-1.26-4.06c1.23-4.9,4.59-9,9.16-11.16c4.57-2.16,9.87-2.16,14.44,0c4.57,2.16,7.93,6.26,9.16,11.16
			c-0.72,1.15-1.11,2.49-1.11,3.85c0,1.5,0.48,2.97,1.36,4.18c-0.83,3.82-2.94,7.23-5.97,9.68c-3.04,2.45-6.82,3.79-10.73,3.79
			L2815.35,377.92z M2839.96,362.43h-2.19c-0.48-0.01-0.94-0.19-1.31-0.5c-0.47-0.42-0.74-1.03-0.73-1.66
			c0-1.18,0.96-2.14,2.14-2.14h2.04c0.11,0.93,0.17,1.86,0.18,2.8L2839.96,362.43z M2815.33,336.2c5.16,0.01,10.18,1.64,14.36,4.66
			c4.18,3.02,7.31,7.27,8.94,12.16h-0.91c-0.59,0.01-1.17,0.1-1.74,0.25c-2.06-5.72-6.4-10.34-11.99-12.74
			c-5.59-2.4-11.93-2.38-17.5,0.06c-5.57,2.44-9.88,7.09-11.9,12.83c-0.5-0.11-1-0.17-1.51-0.18h-1.16
			c1.6-4.95,4.73-9.26,8.93-12.32C2805.06,337.87,2810.12,336.21,2815.33,336.2L2815.33,336.2z"/>
	</g>
	<g>
		<path class="st1" d="M2765.17,468.6v5.54c0.05,1.84,0.82,3.59,2.13,4.88c1.32,1.29,3.08,2.01,4.92,2.03h86.07
			c1.84-0.01,3.61-0.74,4.92-2.03s2.08-3.04,2.13-4.88v-5.54l6.73-53.71v-0.23v0c0.08-2.25-0.77-4.43-2.34-6.05
			c-1.54-1.61-3.67-2.52-5.9-2.52h-7.56c-1.67-5.97-5.24-11.23-10.18-14.98c-4.93-3.75-10.96-5.79-17.16-5.8h-27.41
			c-6.2,0.01-12.22,2.05-17.16,5.8c-4.93,3.75-8.51,9.01-10.18,14.98h-7.56c-2.23,0-4.36,0.91-5.89,2.52
			c-1.61,1.68-2.45,3.95-2.32,6.27L2765.17,468.6L2765.17,468.6z M2858.38,476.01h-86.03c-1.09-0.01-1.98-0.88-2.02-1.96v-3.22
			h90.06v3.25v0c-0.05,1.11-0.98,1.97-2.09,1.94L2858.38,476.01z M2824.02,390.36c-0.72,2.52-2.5,4.6-4.88,5.7
			c-2.38,1.1-5.12,1.1-7.5,0c-2.38-1.1-4.16-3.18-4.88-5.7H2824.02z M2801.55,390.36c0.75,4.39,3.54,8.17,7.53,10.18
			c3.98,2.01,8.68,2.01,12.66,0c3.98-2.01,6.77-5.78,7.53-10.18c4.84,0.02,9.55,1.55,13.48,4.37c3.93,2.82,6.9,6.78,8.48,11.35
			h-71.72c1.58-4.58,4.54-8.55,8.48-11.37c3.93-2.82,8.65-4.35,13.49-4.38L2801.55,390.36z M2764.39,412.08
			c0.59-0.61,1.41-0.96,2.27-0.96h97.34c0.85,0,1.67,0.34,2.27,0.96c0.6,0.61,0.94,1.43,0.93,2.29l-6.42,51.39h-90.89l-6.42-51.29
			C2763.43,413.58,2763.76,412.71,2764.39,412.08L2764.39,412.08z"/>
	</g>
	<g>
		<path class="st1" d="M2806.08,442.76l-1.31,7.71c-0.15,0.94,0.24,1.88,1,2.43c0.77,0.56,1.78,0.64,2.62,0.21l6.93-3.55l6.9,3.63
			c0.85,0.44,1.87,0.37,2.65-0.19c0.77-0.56,1.16-1.51,1.01-2.45l-1.31-7.71l5.57-5.44v0c0.69-0.67,0.95-1.67,0.65-2.59
			s-1.08-1.58-2.04-1.72l-7.76-1.16l-3.45-7c-0.43-0.85-1.3-1.4-2.25-1.4c-0.95,0-1.83,0.54-2.25,1.4l-3.43,7l-7.71,1.13
			c-0.95,0.14-1.74,0.81-2.04,1.72c-0.29,0.92-0.04,1.92,0.65,2.59L2806.08,442.76z M2811.65,436.69L2811.65,436.69
			c0.82-0.12,1.53-0.64,1.89-1.39l1.76-3.6l1.76,3.6c0.36,0.74,1.07,1.26,1.89,1.39l3.98,0.58l-2.87,2.82
			c-0.59,0.57-0.86,1.4-0.73,2.22l0.68,3.98l-3.53-1.76c-0.73-0.39-1.61-0.39-2.34,0l-3.55,1.86l0.68-3.98v0
			c0.13-0.81-0.14-1.64-0.73-2.22l-2.87-2.82L2811.65,436.69z"/>
	</g>
</g>
<g>
	<path class="st1" d="M2199.84,340.58c38.1-0.44,68.56,31.46,68.25,68.24c-0.31,36.78-30.62,68.24-68.25,68.24
		c-37.63,0-68.24-30.61-68.24-68.24C2131.61,371.2,2161.75,341.02,2199.84,340.58L2199.84,340.58z M2210.78,444.53h-21.85
		c2.87,12.42,7.05,20.23,10.92,25.63C2203.72,464.76,2207.91,456.96,2210.78,444.53z M2232.51,444.53h-16.41
		c-2.52,11.5-6.14,19.45-9.74,25.24C2216.68,465.43,2225.97,456.13,2232.51,444.53z M2183.6,444.53h-16.41
		c6.55,11.6,15.83,20.89,26.15,25.24C2189.73,463.99,2186.12,456.04,2183.6,444.53z M2251.75,444.53h-13.45
		c-5.29,10.13-12.53,18.84-20.81,24.78C2231.56,465.2,2243.61,456.33,2251.75,444.53z M2161.4,444.53h-13.45
		c8.14,11.79,20.19,20.67,34.26,24.78C2173.92,463.37,2166.69,454.67,2161.4,444.53z M2262.76,411.42h-15.48
		c-0.37,9.61-2.7,19.16-6.52,27.91h14.2C2259.61,431,2262.35,421.52,2262.76,411.42z M2152.41,411.42h-15.47
		c0.41,10.1,3.15,19.58,7.79,27.91h14.2C2155.11,430.58,2152.77,421.03,2152.41,411.42L2152.41,411.42z M2180.24,411.42h-22.7
		c0.38,9.67,2.92,19.28,6.95,27.91h18.1C2181.24,431.58,2180.36,422.4,2180.24,411.42L2180.24,411.42z M2214.23,411.42h-28.77
		c0.12,11.07,1,20.29,2.39,27.91h24C2213.24,431.71,2214.11,422.49,2214.23,411.42L2214.23,411.42z M2242.16,411.42h-22.7
		c-0.12,10.98-0.99,20.15-2.35,27.91h18.09C2239.24,430.7,2241.77,421.09,2242.16,411.42L2242.16,411.42z M2254.97,378.32
		c-1.46-0.12-13.42-0.06-14.2,0c3.68,7.96,6.38,19.26,6.52,27.9h15.48C2263.38,398.95,2259.08,383.26,2254.97,378.32z
		 M2158.91,378.32h-14.19c-4.64,8.33-7.37,17.83-7.79,27.9h15.47C2152.76,396.62,2155.1,387.07,2158.91,378.32L2158.91,378.32z
		 M2182.59,378.32h-18.1c-4.03,8.64-6.56,18.24-6.94,27.9h22.7C2180.36,395.25,2181.24,386.08,2182.59,378.32L2182.59,378.32z
		 M2211.85,378.32h-24c-1.39,7.63-2.26,16.84-2.39,27.9h28.77C2214.11,395.16,2213.24,385.95,2211.85,378.32L2211.85,378.32z
		 M2235.17,378.32c-0.78-0.04-16.79-0.02-18.06,0c1.35,7.76,2.23,16.94,2.35,27.9c0,0,22.42-0.02,22.7,0
		C2242.41,398.97,2239.75,387.78,2235.17,378.32L2235.17,378.32z M2206.36,347.87c2.83,4.04,7.22,14.04,9.74,25.53
		c0,0,15.77-0.01,16.41,0C2230.66,368.25,2213.91,348.95,2206.36,347.87z M2193.33,347.87c-10.32,4.36-19.61,13.93-26.15,25.53
		h16.41C2186.11,361.9,2189.73,353.66,2193.33,347.87z M2199.84,347.5c-3.87,5.39-8.05,13.49-10.92,25.9h21.85
		C2207.9,360.99,2203.71,352.9,2199.84,347.5z M2182.21,348.34c-14.08,4.11-26.13,13.27-34.26,25.06h13.45
		C2166.69,363.27,2173.92,354.28,2182.21,348.34z M2217.48,348.74c7.07,5.4,18.1,18.53,20.81,24.67c0.53,0.06,13.24,0,13.04,0
		C2246.81,363.92,2226.72,350.53,2217.48,348.74z"/>
</g>
<g>
	<g>
		<path class="st1" d="M380.97,398.33c-0.5-0.49-1.2-0.72-1.89-0.61l-3.98,0.66v-9.37c0-0.34-0.08-0.67-0.23-0.97l-8.67-17.35
			c-0.41-0.68-1.14-1.1-1.94-1.1c-0.8,0-1.53,0.42-1.94,1.1l-8.67,17.35c-0.15,0.3-0.23,0.63-0.23,0.97V402l-13.58,2.26v0
			c0.24-0.93,0.37-1.89,0.37-2.85v-9.75c-0.02-1.96,0.82-3.82,2.3-5.11c5.36-4.64,8.47-11.36,8.55-18.44
			c0.07-7.09-2.9-13.87-8.17-18.62c-5-4.52-11.71-6.66-18.4-5.86c-5.46,0.69-10.53,3.23-14.35,7.2c-3.82,3.97-6.18,9.12-6.67,14.6
			c-0.8,8.05,2.4,15.98,8.56,21.23c1.41,1.27,2.2,3.09,2.16,4.99v9.75c0.01,0.94,0.13,1.88,0.36,2.79l-15.34-2.56v-27.8
			c0-0.57-0.23-1.13-0.64-1.53c-0.41-0.41-0.96-0.64-1.53-0.64h-17.35c-0.58,0-1.13,0.23-1.53,0.64c-0.41,0.41-0.64,0.96-0.64,1.53
			v24.18l-1.81-0.3c-0.69-0.11-1.39,0.11-1.89,0.61l-13.01,13.01c-0.56,0.56-0.77,1.38-0.55,2.14c0.22,0.76,0.84,1.34,1.62,1.51
			l9.14,1.99v34.92c0,1,0.69,1.87,1.66,2.11l54.21,13.01c0.33,0.09,0.68,0.08,1.01-0.03l0.01,0.02l54.21-13.01v0
			c0.97-0.24,1.66-1.11,1.66-2.11v-34.92l9.14-1.99c0.77-0.17,1.39-0.75,1.62-1.51c0.22-0.76,0.01-1.58-0.55-2.14L380.97,398.33z
			 M364.26,376.53l5.16,10.33h-10.33L364.26,376.53z M357.75,391.19h13.01v7.92l-13.01,2.17V391.19z M307.78,365.85
			c0.39-4.5,2.32-8.72,5.44-11.98c3.13-3.26,7.27-5.35,11.75-5.92c5.46-0.64,10.94,1.1,15.02,4.79c4.33,3.91,6.78,9.5,6.72,15.33
			c-0.06,5.84-2.62,11.37-7.03,15.2c-2.44,2.11-3.83,5.18-3.81,8.4v3.86h-17.35v-3.86c0.05-3.18-1.3-6.22-3.7-8.31
			C309.75,379.03,307.12,372.49,307.78,365.85L307.78,365.85z M318.53,401.41v-1.55h17.35v1.55c0,1.3-0.35,2.57-1.01,3.68
			l-7.47,1.24l-7.89-1.32v0C318.87,403.93,318.53,402.68,318.53,401.41L318.53,401.41z M281.86,393.36h6.51v-4.34h-6.51v-4.34h6.51
			v-4.34h-6.51v-4.34h13.01v24.91l-13.01-2.17V393.36z M276.1,402.19l46.78,7.8l-11.36,11.36l-44.84-9.75L276.1,402.19z
			 M275.35,450.2v-32.27l36.4,7.91c0.15,0.03,0.31,0.05,0.46,0.05c0.58,0,1.13-0.23,1.53-0.64l11.48-11.48v48.39L275.35,450.2z
			 M379.44,450.2l-49.87,11.97v-48.39l11.48,11.48v0c0.41,0.41,0.96,0.64,1.53,0.64c0.15,0,0.31-0.02,0.46-0.05l36.4-7.91
			L379.44,450.2z M343.27,421.35l-11.36-11.36l46.78-7.8l9.41,9.41L343.27,421.35z"/>
	</g>
	<g>
		<path class="st1" d="M320.2,369.68l-0.98,5.98l0,0c-0.13,0.82,0.21,1.64,0.89,2.12s1.57,0.53,2.3,0.12l4.98-2.75l4.98,2.75
			c0.73,0.4,1.62,0.35,2.3-0.12c0.68-0.48,1.02-1.3,0.89-2.12l-0.98-5.98l4.11-4.22h0c0.57-0.58,0.76-1.43,0.5-2.2
			c-0.26-0.77-0.92-1.33-1.73-1.45l-5.6-0.86l-2.52-5.38c-0.36-0.76-1.12-1.25-1.96-1.25c-0.84,0-1.61,0.49-1.96,1.25l-2.52,5.38
			l-5.6,0.86h0c-0.8,0.12-1.47,0.68-1.73,1.45c-0.26,0.77-0.06,1.62,0.5,2.2L320.2,369.68z M324.7,365.07
			c0.71-0.11,1.33-0.57,1.64-1.22l1.05-2.24l1.05,2.24v0c0.31,0.66,0.92,1.11,1.63,1.22l2.57,0.39l-1.93,1.98
			c-0.48,0.49-0.7,1.18-0.59,1.86l0.43,2.65l-2.12-1.17h0c-0.65-0.36-1.44-0.36-2.1,0l-2.12,1.17l0.43-2.65h0
			c0.11-0.68-0.11-1.37-0.59-1.86l-1.93-1.98L324.7,365.07z"/>
	</g>
	<g>
		<path class="st1" d="M325.22,332.65h4.34v6.51h-4.34V332.65z"/>
	</g>
	<g>
		<path class="st1" d="M301.33,344.34l3.07-3.07l4.6,4.6l-3.07,3.07L301.33,344.34z"/>
	</g>
	<g>
		<path class="st1" d="M345.79,345.87l4.6-4.6l3.07,3.07l-4.6,4.6L345.79,345.87z"/>
	</g>
</g>
</svg>
