<?xml version="1.0" encoding="UTF-8"?>
<svg id="Camada_2" data-name="Camada 2" xmlns="http://www.w3.org/2000/svg" viewBox="0 0 69.82 28.22">
  <defs>
    <style>
      .cls-1 {
        fill: #fff;
      }
    </style>
  </defs>
  <g id="Camada_2-2" data-name="Camada 2">
    <g id="Camada_1-2" data-name="Camada 1-2">
      <path class="cls-1" d="M63.12,4.86v-.74h6.7V0H0V28.22H69.82v-4.07h-6.7v-.74h6.7v-4.01h-6.7v-.74h6.7v-4.19h-6.7v-.74h6.7v-4.12h-6.7v-.74h6.7v-3.99h-6.7ZM6.98,24.15H0v-.74H6.98v.74Zm0-4.75H0v-.74H6.98v.74Zm0-4.94H0v-.74H6.98v.74Zm0-4.86H0v-.74H6.98v.74Zm0-4.74H0v-.74H6.98v.74Zm2.7,19.28L14.68,4.11h6.52l-.3,1.21-4.7,18.81h-6.51Zm29.97-8.13h-10.49l-1.06,4.24h11.41l-.98,3.88H20.6l.3-1.21L25.6,4.11h17.92l-.62,2.51-.34,1.37h-11.41l-1.03,4.13h10.49s-.97,3.88-.97,3.88Zm19.81,8.13h-17.17l.62-2.51,4.38-17.5h6.51l-4.03,16.13h10.66l-.97,3.88Z"/>
    </g>
  </g>
</svg>