<?xml version="1.0" encoding="utf-8"?>
<!-- Generator: Adobe Illustrator 27.1.1, SVG Export Plug-In . SVG Version: 6.00 Build 0)  -->
<svg version="1.1" id="Layer_1" xmlns="http://www.w3.org/2000/svg" xmlns:xlink="http://www.w3.org/1999/xlink" x="0px" y="0px"
	 viewBox="0 0 327.42 159.31" style="enable-background:new 0 0 327.42 159.31;" xml:space="preserve">
<style type="text/css">
	.st0{fill:url(#SVGID_1_);}
	.st1{fill:#FFFFFF;}
</style>
<g>
	<linearGradient id="SVGID_1_" gradientUnits="userSpaceOnUse" x1="65.1003" y1="85.9497" x2="277.908" y2="85.9497">
		<stop  offset="0" style="stop-color:#DA1A61"/>
		<stop  offset="4.136360e-03" style="stop-color:#DA1A61"/>
		<stop  offset="1" style="stop-color:#F89721"/>
	</linearGradient>
	<path class="st0" d="M92.06,112.91c-14.86,0-26.96-12.09-26.96-26.96s12.09-26.96,26.96-26.96h158.89
		c14.86,0,26.96,12.09,26.96,26.96s-12.09,26.96-26.96,26.96H92.06z"/>
</g>
<g>
	<path class="st1" d="M100.52,94.1c-0.21,0.21-0.46,0.32-0.76,0.32S99.21,94.31,99,94.1c-0.2-0.21-0.31-0.46-0.31-0.75V76.5
		c0-0.41,0.15-0.76,0.46-1.07c0.3-0.3,0.66-0.45,1.07-0.45h8.68c0.25,0,0.46,0.09,0.64,0.27c0.18,0.18,0.27,0.38,0.27,0.61
		s-0.09,0.44-0.27,0.63c-0.18,0.19-0.39,0.28-0.64,0.28h-7.83c-0.16,0-0.24,0.07-0.24,0.21v6.18c0,0.14,0.08,0.21,0.24,0.21h7.35
		c0.25,0,0.46,0.08,0.61,0.25c0.16,0.17,0.24,0.37,0.24,0.6c0,0.23-0.08,0.43-0.24,0.6c-0.16,0.17-0.36,0.25-0.61,0.25h-7.35
		c-0.16,0-0.24,0.08-0.24,0.24v8.04C100.83,93.64,100.73,93.89,100.52,94.1z"/>
	<path class="st1" d="M111.64,94.42c-0.27,0-0.48-0.11-0.64-0.33c-0.16-0.22-0.2-0.46-0.11-0.71l6.07-17.28
		c0.12-0.34,0.34-0.61,0.63-0.81s0.61-0.31,0.97-0.31s0.68,0.1,0.98,0.31s0.5,0.47,0.62,0.81l6.05,17.25
		c0.08,0.27,0.05,0.51-0.11,0.73c-0.16,0.22-0.37,0.33-0.64,0.33c-0.36,0-0.67-0.1-0.94-0.31c-0.28-0.2-0.47-0.47-0.58-0.79
		l-1.41-4.36c-0.05-0.14-0.16-0.21-0.32-0.21h-7.37c-0.14,0-0.24,0.07-0.29,0.21l-1.47,4.42c-0.1,0.32-0.29,0.57-0.55,0.76
		C112.28,94.33,111.98,94.42,111.64,94.42z M118.48,76.93l-3.25,9.9c-0.02,0.06-0.01,0.1,0.03,0.15c0.04,0.05,0.08,0.07,0.14,0.07
		h6.25c0.05,0,0.1-0.02,0.12-0.07c0.03-0.04,0.04-0.09,0.04-0.15l-3.25-9.9c0-0.02-0.01-0.03-0.03-0.03
		C118.5,76.9,118.48,76.91,118.48,76.93z"/>
	<path class="st1" d="M135.76,94.66c-2.35-0.16-4.22-1.11-5.64-2.85c-1.41-1.74-2.11-4.11-2.11-7.11c0-3.14,0.74-5.59,2.22-7.35
		s3.54-2.64,6.16-2.64c1.38,0,2.62,0.13,3.7,0.4c0.27,0.07,0.49,0.22,0.66,0.45s0.25,0.49,0.25,0.77c0,0.23-0.1,0.41-0.28,0.55
		c-0.19,0.13-0.4,0.16-0.63,0.09c-1.05-0.32-2.22-0.48-3.51-0.48c-2.01,0-3.58,0.72-4.71,2.15c-1.14,1.44-1.7,3.45-1.7,6.05
		c0,2.57,0.59,4.58,1.77,6.03c1.18,1.45,2.76,2.17,4.73,2.17c1.31,0,2.5-0.16,3.57-0.48c0.23-0.07,0.44-0.04,0.62,0.09
		s0.28,0.32,0.28,0.55c0,0.29-0.08,0.54-0.25,0.76c-0.17,0.22-0.38,0.37-0.65,0.44c-0.82,0.2-1.55,0.32-2.18,0.37
		c-0.14,0-0.17,0.07-0.08,0.21c0.51,0.73,0.77,1.49,0.77,2.29c0,0.92-0.38,1.68-1.14,2.26s-1.93,0.88-3.52,0.88
		c-0.68,0-1.38-0.1-2.11-0.29c-0.25-0.07-0.45-0.21-0.6-0.41s-0.23-0.44-0.23-0.71c0-0.2,0.08-0.34,0.25-0.45s0.35-0.12,0.55-0.06
		c0.64,0.21,1.29,0.32,1.94,0.32c1.95,0,2.93-0.68,2.93-2.02c0-0.64-0.23-1.24-0.7-1.81C136.04,94.72,135.92,94.66,135.76,94.66z"/>
	<path class="st1" d="M144.97,94.42c-0.27,0-0.48-0.11-0.64-0.33c-0.16-0.22-0.2-0.46-0.11-0.71l6.07-17.28
		c0.12-0.34,0.34-0.61,0.63-0.81s0.61-0.31,0.97-0.31s0.68,0.1,0.98,0.31s0.5,0.47,0.62,0.81l6.05,17.25
		c0.08,0.27,0.05,0.51-0.11,0.73c-0.16,0.22-0.37,0.33-0.64,0.33c-0.36,0-0.67-0.1-0.94-0.31c-0.28-0.2-0.47-0.47-0.58-0.79
		l-1.41-4.36c-0.05-0.14-0.16-0.21-0.32-0.21h-7.37c-0.14,0-0.24,0.07-0.29,0.21l-1.47,4.42c-0.1,0.32-0.29,0.57-0.55,0.76
		C145.61,94.33,145.31,94.42,144.97,94.42z M151.82,76.93l-3.25,9.9c-0.02,0.06-0.01,0.1,0.03,0.15c0.04,0.05,0.08,0.07,0.14,0.07
		h6.25c0.05,0,0.1-0.02,0.12-0.07c0.03-0.04,0.04-0.09,0.04-0.15l-3.25-9.9c0-0.02-0.01-0.03-0.03-0.03
		C151.84,76.9,151.82,76.91,151.82,76.93z"/>
	<path class="st1" d="M171.56,94.1c-0.21,0.21-0.46,0.32-0.76,0.32s-0.55-0.11-0.76-0.32c-0.2-0.21-0.31-0.46-0.31-0.75V76.63
		c0-0.43,0.14-0.8,0.43-1.13c0.28-0.33,0.64-0.52,1.07-0.58c1.37-0.14,2.67-0.21,3.91-0.21c2.41,0,4.24,0.51,5.49,1.53
		c1.25,1.02,1.88,2.48,1.88,4.38c0,2.06-0.63,3.62-1.89,4.68c-1.25,1.07-3.09,1.6-5.48,1.6c-0.96,0-1.97-0.05-3.04-0.13
		c-0.16,0-0.24,0.06-0.24,0.19v6.39C171.86,93.64,171.76,93.89,171.56,94.1z M171.86,76.93v7.83c0,0.14,0.08,0.23,0.24,0.27
		c0.85,0.12,1.81,0.19,2.87,0.19c1.76,0,3.1-0.38,4.04-1.15c0.93-0.76,1.4-1.85,1.4-3.27s-0.46-2.5-1.37-3.24
		c-0.92-0.73-2.27-1.11-4.06-1.11c-0.96,0-1.92,0.07-2.87,0.21C171.94,76.7,171.86,76.78,171.86,76.93z"/>
	<path class="st1" d="M183.29,94.42c-0.27,0-0.48-0.11-0.64-0.33c-0.16-0.22-0.2-0.46-0.11-0.71l6.07-17.28
		c0.12-0.34,0.34-0.61,0.63-0.81s0.61-0.31,0.97-0.31s0.68,0.1,0.98,0.31s0.5,0.47,0.62,0.81l6.05,17.25
		c0.08,0.27,0.05,0.51-0.11,0.73c-0.16,0.22-0.37,0.33-0.64,0.33c-0.36,0-0.67-0.1-0.94-0.31c-0.28-0.2-0.47-0.47-0.58-0.79
		l-1.41-4.36c-0.05-0.14-0.16-0.21-0.32-0.21h-7.37c-0.14,0-0.24,0.07-0.29,0.21l-1.47,4.42c-0.1,0.32-0.29,0.57-0.55,0.76
		C183.92,94.33,183.62,94.42,183.29,94.42z M190.13,76.93l-3.25,9.9c-0.02,0.06-0.01,0.1,0.03,0.15c0.04,0.05,0.08,0.07,0.14,0.07
		h6.25c0.05,0,0.1-0.02,0.12-0.07c0.03-0.04,0.04-0.09,0.04-0.15l-3.25-9.9c0-0.02-0.01-0.03-0.03-0.03
		C190.15,76.9,190.13,76.91,190.13,76.93z"/>
	<path class="st1" d="M202.68,94.1c-0.21,0.21-0.46,0.32-0.76,0.32s-0.55-0.11-0.76-0.32c-0.2-0.21-0.31-0.46-0.31-0.75V76.63
		c0-0.45,0.14-0.83,0.43-1.16c0.28-0.33,0.64-0.52,1.07-0.57c1.05-0.12,2.21-0.19,3.48-0.19c2.48,0,4.36,0.46,5.63,1.37
		c1.27,0.91,1.9,2.21,1.9,3.9c0,1.35-0.36,2.47-1.08,3.37c-0.72,0.9-1.74,1.51-3.07,1.85c-0.01,0-0.03,0.02-0.03,0.05
		c0,0.02,0.01,0.03,0.03,0.03c0.77,0.45,1.55,1.6,2.35,3.46l1.92,4.66c0.1,0.23,0.08,0.46-0.07,0.68c-0.15,0.22-0.36,0.33-0.62,0.33
		c-0.34,0-0.64-0.1-0.92-0.29c-0.28-0.2-0.47-0.45-0.6-0.74l-1.87-4.58c-0.53-1.28-1.03-2.07-1.5-2.38
		c-0.47-0.31-1.4-0.46-2.78-0.46h-1.89c-0.16,0-0.24,0.07-0.24,0.21v7.19C202.99,93.64,202.88,93.89,202.68,94.1z M202.99,76.93
		v7.08c0,0.16,0.08,0.24,0.24,0.24h1.89c2.11,0,3.66-0.34,4.65-1.03c0.99-0.68,1.5-1.7,1.5-3.05c0-2.48-1.87-3.73-5.62-3.73
		c-0.79,0-1.61,0.07-2.42,0.21C203.07,76.7,202.99,76.78,202.99,76.93z"/>
	<path class="st1" d="M216.3,76.79c-0.25,0-0.46-0.09-0.64-0.27c-0.18-0.18-0.27-0.39-0.27-0.64c0-0.25,0.08-0.46,0.27-0.64
		c0.18-0.18,0.39-0.27,0.64-0.27h11.88c0.25,0,0.46,0.09,0.64,0.27c0.18,0.18,0.27,0.39,0.27,0.64c0,0.25-0.09,0.46-0.27,0.64
		s-0.39,0.27-0.64,0.27h-4.63c-0.16,0-0.24,0.08-0.24,0.24v16.32c0,0.29-0.1,0.53-0.31,0.75c-0.2,0.21-0.46,0.32-0.76,0.32
		c-0.3,0-0.55-0.11-0.75-0.32c-0.21-0.21-0.31-0.46-0.31-0.75V77.03c0-0.16-0.08-0.24-0.24-0.24H216.3z"/>
	<path class="st1" d="M234.46,94.42c-0.41,0-0.77-0.15-1.07-0.45c-0.31-0.3-0.46-0.66-0.46-1.07V76.5c0-0.41,0.15-0.76,0.46-1.07
		c0.3-0.3,0.66-0.45,1.07-0.45h8.94c0.25,0,0.46,0.09,0.64,0.27c0.18,0.18,0.27,0.38,0.27,0.61s-0.09,0.44-0.27,0.63
		c-0.18,0.19-0.39,0.28-0.64,0.28h-8.09c-0.16,0-0.24,0.07-0.24,0.21v5.91c0,0.14,0.08,0.21,0.24,0.21h7.61
		c0.25,0,0.46,0.08,0.61,0.25c0.16,0.17,0.24,0.37,0.24,0.6s-0.08,0.43-0.24,0.6c-0.16,0.17-0.36,0.25-0.61,0.25h-7.61
		c-0.16,0-0.24,0.08-0.24,0.24v7.38c0,0.14,0.08,0.21,0.24,0.21h8.09c0.25,0,0.46,0.09,0.64,0.28s0.27,0.4,0.27,0.63
		s-0.09,0.44-0.27,0.61c-0.18,0.18-0.39,0.27-0.64,0.27H234.46z"/>
</g>
</svg>
