<?xml version="1.0" encoding="utf-8"?>
<!-- Generator: Adobe Illustrator 27.1.1, SVG Export Plug-In . SVG Version: 6.00 Build 0)  -->
<svg version="1.1" id="Layer_1" xmlns="http://www.w3.org/2000/svg" xmlns:xlink="http://www.w3.org/1999/xlink" x="0px" y="0px"
	 viewBox="0 0 2046.73 1537.78" style="enable-background:new 0 0 2046.73 1537.78;" xml:space="preserve">
<style type="text/css">
	.st0{opacity:0.3;}
	.st1{fill:#FFFFFF;}
</style>
<g class="st0">
	<path class="st1" d="M499.65,1193.17c-5.06,0-10.13-1.93-13.99-5.79c-7.73-7.73-7.73-20.25,0-27.98l398.05-398.05
		c7.73-7.73,20.25-7.73,27.98,0c7.73,7.73,7.73,20.25,0,27.98l-398.05,398.05C509.77,1191.24,504.71,1193.17,499.65,1193.17z"/>
</g>
<g class="st0">
	<path class="st1" d="M189.44,1106.12c-5.06,0-10.13-1.93-13.99-5.79c-7.73-7.73-7.73-20.25,0-27.98L573.5,674.3
		c7.73-7.73,20.25-7.73,27.98,0c7.73,7.73,7.73,20.25,0,27.98l-398.05,398.05C199.57,1104.19,194.5,1106.12,189.44,1106.12z"/>
</g>
<g class="st0">
	<path class="st1" d="M422.1,664.55c-5.06,0-10.13-1.93-13.99-5.79c-7.73-7.73-7.73-20.25,0-27.98l398.05-398.05
		c7.73-7.73,20.25-7.73,27.98,0c7.73,7.73,7.73,20.25,0,27.98L436.08,658.75C432.22,662.62,427.16,664.55,422.1,664.55z"/>
</g>
<g class="st0">
	<path class="st1" d="M713.31,753.18c-5.06,0-10.13-1.93-13.99-5.79c-7.73-7.73-7.73-20.25,0-27.98l398.05-398.05
		c7.73-7.73,20.25-7.73,27.98,0c7.73,7.73,7.73,20.25,0,27.98L727.3,747.38C723.44,751.25,718.37,753.18,713.31,753.18z"/>
</g>
<g class="st0">
	<path class="st1" d="M600.94,622.61c-10.13,0-20.25-3.86-27.98-11.59c-15.45-15.45-15.45-40.5,0-55.96l398.05-398.05
		c15.45-15.45,40.5-15.45,55.96,0c15.45,15.45,15.45,40.5,0,55.96L628.92,611.02C621.19,618.74,611.07,622.61,600.94,622.61z"/>
</g>
<g class="st0">
	<path class="st1" d="M914.31,687.5c-10.13,0-20.25-3.86-27.98-11.59c-15.45-15.45-15.45-40.5,0-55.96l398.05-398.05
		c15.45-15.45,40.5-15.45,55.96,0c15.45,15.45,15.45,40.5,0,55.96L942.29,675.91C934.57,683.63,924.44,687.5,914.31,687.5z"/>
</g>
<g class="st0">
	<g>
		<g>
			<path class="st1" d="M675.39,1508.53c-7.68,0-14.91-2.99-20.34-8.43c-11.22-11.22-11.22-29.47,0-40.68l531.02-531.02
				c11.22-11.22,29.47-11.22,40.68,0c11.22,11.22,11.22,29.47,0,40.68l-531.02,531.02C690.3,1505.54,683.08,1508.53,675.39,1508.53z
				 M1206.42,924.74c-6.15,0-12.3,2.34-16.98,7.02l-531.02,531.02c-9.36,9.36-9.36,24.6,0,33.97c4.54,4.54,10.57,7.03,16.98,7.03
				c6.41,0,12.45-2.5,16.98-7.03l531.02-531.02c9.36-9.36,9.36-24.6,0-33.97C1218.72,927.08,1212.57,924.74,1206.42,924.74z"/>
		</g>
	</g>
	<g>
		<g>
			<path class="st1" d="M261.56,1392.41c-7.68,0-14.91-2.99-20.34-8.43c-11.22-11.22-11.22-29.47,0-40.68l531.02-531.02
				c11.22-11.22,29.47-11.22,40.68,0c11.22,11.22,11.22,29.47,0,40.68L281.9,1383.98C276.47,1389.41,269.24,1392.41,261.56,1392.41z
				 M792.58,808.61c-6.15,0-12.3,2.34-16.98,7.02l-531.02,531.02c-9.36,9.36-9.36,24.6,0,33.97c4.54,4.54,10.57,7.03,16.98,7.03
				c6.41,0,12.45-2.5,16.98-7.03L809.56,849.6c9.36-9.36,9.36-24.6,0-33.97C804.88,810.95,798.73,808.61,792.58,808.61z"/>
		</g>
	</g>
	<g>
		<g>
			<path class="st1" d="M571.94,803.32c-7.68,0-14.91-2.99-20.34-8.43c-11.22-11.22-11.22-29.47,0-40.68l531.02-531.02
				c11.22-11.22,29.47-11.22,40.68,0c11.22,11.22,11.22,29.47,0,40.68L592.28,794.89C586.84,800.33,579.62,803.32,571.94,803.32z
				 M1102.96,219.53c-6.15,0-12.3,2.34-16.98,7.02L554.95,757.57c-9.36,9.36-9.36,24.6,0,33.97c4.54,4.54,10.57,7.03,16.98,7.03
				c6.41,0,12.45-2.5,16.98-7.03l531.02-531.02c9.36-9.36,9.36-24.6,0-33.97C1115.26,221.87,1109.11,219.53,1102.96,219.53z"/>
		</g>
	</g>
	<g>
		<g>
			<path class="st1" d="M960.44,921.56c-7.68,0-14.91-2.99-20.34-8.43c-11.22-11.22-11.22-29.47,0-40.68l531.02-531.02
				c11.22-11.22,29.47-11.22,40.68,0c11.22,11.22,11.22,29.47,0,40.68L980.78,913.13C975.34,918.57,968.12,921.56,960.44,921.56z
				 M1491.46,337.77c-6.15,0-12.3,2.34-16.98,7.02L943.45,875.81c-9.36,9.36-9.36,24.6,0,33.97c4.54,4.54,10.57,7.03,16.98,7.03
				c6.41,0,12.45-2.5,16.98-7.03l531.02-531.02c9.36-9.36,9.36-24.6,0-33.97C1503.76,340.11,1497.61,337.77,1491.46,337.77z"/>
		</g>
	</g>
	<g>
		<g>
			<path class="st1" d="M810.53,747.37c-14.73,0-28.59-5.74-39-16.16c-21.51-21.51-21.51-56.5,0-78.01l531.02-531.02
				c21.51-21.51,56.5-21.51,78.01,0c21.51,21.51,21.51,56.5,0,78.01L849.53,731.21C839.11,741.63,825.26,747.37,810.53,747.37z
				 M1341.55,110.8c-12.91,0-25.82,4.91-35.65,14.74L774.88,656.56c-19.65,19.65-19.65,51.64,0,71.29
				c9.52,9.52,22.18,14.76,35.65,14.76c13.47,0,26.12-5.24,35.65-14.76l531.02-531.02c19.65-19.65,19.65-51.64,0-71.29
				C1367.37,115.72,1354.45,110.8,1341.55,110.8z"/>
		</g>
	</g>
	<g>
		<g>
			<path class="st1" d="M1228.59,833.94c-14.73,0-28.59-5.74-39-16.16c-21.51-21.51-21.51-56.5,0-78.01l531.02-531.02
				c21.51-21.51,56.5-21.51,78.01,0c21.51,21.51,21.51,56.5,0,78.01l-531.02,531.02C1257.17,828.2,1243.32,833.94,1228.59,833.94z
				 M1759.61,197.37c-12.91,0-25.82,4.91-35.65,14.74l-531.02,531.02c-19.65,19.66-19.65,51.64,0,71.29
				c9.52,9.52,22.18,14.76,35.65,14.76c13.47,0,26.12-5.24,35.65-14.76l531.02-531.02c19.65-19.65,19.65-51.64,0-71.29
				C1785.43,202.28,1772.51,197.37,1759.61,197.37z"/>
		</g>
	</g>
</g>
</svg>
