<?xml version="1.0" encoding="UTF-8"?>
<svg id="Camada_2" data-name="Camada 2" xmlns="http://www.w3.org/2000/svg" viewBox="0 0 217.22 217.22">
  <defs>
    <style>
      .cls-1 {
        fill: #893094;
      }

      .cls-2 {
        fill: #fff;
        fill-rule: evenodd;
      }
    </style>
  </defs>
  <g id="Shape_5" data-name="Shape 5">
    <path class="cls-2" d="M108.61,217.22c59.99,0,108.61-48.62,108.61-108.61S168.59,0,108.61,0,0,48.62,0,108.61s48.62,108.61,108.61,108.61Z"/>
    <path class="cls-1" d="M108.6,40.36c38.1-.44,68.56,31.46,68.25,68.24s-30.62,68.24-68.25,68.24-68.24-30.61-68.24-68.24c.01-37.62,30.15-67.8,68.24-68.24h0Zm10.94,103.95h-21.85c2.87,12.42,7.05,20.23,10.92,25.63,3.87-5.4,8.06-13.2,10.93-25.63Zm21.73,0h-16.41c-2.52,11.5-6.14,19.45-9.74,25.24,10.32-4.34,19.61-13.64,26.15-25.24Zm-48.91,0h-16.41c6.55,11.6,15.83,20.89,26.15,25.24-3.61-5.78-7.22-13.73-9.74-25.24Zm68.15,0h-13.45c-5.29,10.13-12.53,18.84-20.81,24.78,14.07-4.11,26.12-12.98,34.26-24.78Zm-90.35,0h-13.45c8.14,11.79,20.19,20.67,34.26,24.78-8.29-5.94-15.52-14.64-20.81-24.78Zm101.36-33.11h-15.48c-.37,9.61-2.7,19.16-6.52,27.91h14.2c4.65-8.33,7.39-17.81,7.8-27.91Zm-110.35,0h-15.47c.41,10.1,3.15,19.58,7.79,27.91h14.2c-3.82-8.75-6.16-18.3-6.52-27.91h0Zm27.83,0h-22.7c.38,9.67,2.92,19.28,6.95,27.91h18.1c-1.35-7.75-2.23-16.93-2.35-27.91h0Zm33.99,0h-28.77c.12,11.07,1,20.29,2.39,27.91h24c1.39-7.62,2.26-16.84,2.38-27.91h0Zm27.93,0h-22.7c-.12,10.98-.99,20.15-2.35,27.91h18.09c4.04-8.63,6.57-18.24,6.96-27.91h0Zm12.81-33.1c-1.46-.12-13.42-.06-14.2,0,3.68,7.96,6.38,19.26,6.52,27.9h15.48c.61-7.27-3.69-22.96-7.8-27.9Zm-96.06,0h-14.19c-4.64,8.33-7.37,17.83-7.79,27.9h15.47c.36-9.6,2.7-19.15,6.51-27.9h0Zm23.68,0h-18.1c-4.03,8.64-6.56,18.24-6.94,27.9h22.7c.11-10.97,.99-20.14,2.34-27.9h0Zm29.26,0h-24c-1.39,7.63-2.26,16.84-2.39,27.9h28.77c-.12-11.06-.99-20.27-2.38-27.9h0Zm23.32,0c-.78-.04-16.79-.02-18.06,0,1.35,7.76,2.23,16.94,2.35,27.9,0,0,22.42-.02,22.7,0,.25-7.25-2.41-18.44-6.99-27.9h0Zm-28.81-30.45c2.83,4.04,7.22,14.04,9.74,25.53,0,0,15.77-.01,16.41,0-1.85-5.15-18.6-24.45-26.15-25.53Zm-13.03,0c-10.32,4.36-19.61,13.93-26.15,25.53h16.41c2.52-11.5,6.14-19.74,9.74-25.53Zm6.51-.37c-3.87,5.39-8.05,13.49-10.92,25.9h21.85c-2.87-12.41-7.06-20.5-10.93-25.9Zm-17.63,.84c-14.08,4.11-26.13,13.27-34.26,25.06h13.45c5.29-10.13,12.52-19.12,20.81-25.06Zm35.27,.4c7.07,5.4,18.1,18.53,20.81,24.67,.53,.06,13.24,0,13.04,0-4.52-9.49-24.61-22.88-33.85-24.67Z"/>
  </g>
</svg>