<?xml version="1.0" encoding="utf-8"?>
<!-- Generator: Adobe Illustrator 27.1.1, SVG Export Plug-In . SVG Version: 6.00 Build 0)  -->
<svg version="1.1" id="Layer_1" xmlns="http://www.w3.org/2000/svg" xmlns:xlink="http://www.w3.org/1999/xlink" x="0px" y="0px"
	 viewBox="0 0 2105.37 1811.44" style="enable-background:new 0 0 2105.37 1811.44;" xml:space="preserve">
<style type="text/css">
	.st0{opacity:0.3;}
	.st1{fill:#FFFFFF;}
</style>
<g class="st0">
	<path class="st1" d="M613.02,1294.81c-5.06,0-10.13-1.93-13.99-5.79c-7.73-7.73-7.73-20.25,0-27.98l398.05-398.05
		c7.73-7.73,20.25-7.73,27.98,0c7.73,7.73,7.73,20.25,0,27.98l-398.05,398.05C623.15,1292.88,618.09,1294.81,613.02,1294.81z"/>
</g>
<g class="st0">
	<path class="st1" d="M302.81,1207.77c-5.06,0-10.13-1.93-13.99-5.79c-7.73-7.73-7.73-20.25,0-27.98l398.05-398.05
		c7.73-7.73,20.25-7.73,27.98,0c7.73,7.73,7.73,20.25,0,27.98L316.8,1201.97C312.94,1205.83,307.88,1207.77,302.81,1207.77z"/>
</g>
<g class="st0">
	<path class="st1" d="M535.47,766.19c-5.06,0-10.13-1.93-13.99-5.79c-7.73-7.73-7.73-20.25,0-27.98l398.05-398.05
		c7.73-7.73,20.25-7.73,27.98,0c7.73,7.73,7.73,20.25,0,27.98L549.46,760.4C545.6,764.26,540.53,766.19,535.47,766.19z"/>
</g>
<g class="st0">
	<path class="st1" d="M826.69,854.82c-5.06,0-10.13-1.93-13.99-5.79c-7.73-7.73-7.73-20.25,0-27.98L1210.75,423
		c7.73-7.73,20.25-7.73,27.98,0c7.73,7.73,7.73,20.25,0,27.98L840.68,849.03C836.81,852.89,831.75,854.82,826.69,854.82z"/>
</g>
<g class="st0">
	<path class="st1" d="M714.32,724.25c-10.13,0-20.25-3.86-27.98-11.59c-15.45-15.45-15.45-40.5,0-55.96l398.05-398.05
		c15.45-15.45,40.5-15.45,55.96,0c15.45,15.45,15.45,40.5,0,55.96L742.29,712.66C734.57,720.39,724.44,724.25,714.32,724.25z"/>
</g>
<g class="st0">
	<path class="st1" d="M1027.69,789.14c-10.13,0-20.25-3.86-27.98-11.59c-15.45-15.45-15.45-40.5,0-55.96l398.05-398.05
		c15.45-15.45,40.5-15.45,55.96,0c15.45,15.45,15.45,40.5,0,55.96l-398.05,398.05C1047.94,785.28,1037.82,789.14,1027.69,789.14z"/>
</g>
<g class="st0">
	<g>
		<g>
			<path class="st1" d="M788.77,1610.18c-7.68,0-14.91-2.99-20.34-8.43c-11.22-11.22-11.22-29.47,0-40.68l531.02-531.02
				c11.22-11.22,29.47-11.22,40.68,0c11.22,11.22,11.22,29.47,0,40.68l-531.02,531.02C803.68,1607.19,796.45,1610.18,788.77,1610.18
				z M1319.79,1026.39c-6.15,0-12.3,2.34-16.98,7.02l-531.02,531.02c-9.36,9.36-9.36,24.6,0,33.97c4.54,4.54,10.57,7.03,16.98,7.03
				c6.41,0,12.45-2.5,16.98-7.03l531.02-531.02c9.36-9.36,9.36-24.6,0-33.97C1332.09,1028.73,1325.94,1026.39,1319.79,1026.39z"/>
		</g>
	</g>
	<g>
		<g>
			<path class="st1" d="M374.93,1494.05c-7.68,0-14.91-2.99-20.34-8.43c-11.22-11.22-11.22-29.47,0-40.68l531.02-531.02
				c11.22-11.22,29.47-11.22,40.68,0c11.22,11.22,11.22,29.47,0,40.68l-531.02,531.02C389.84,1491.06,382.62,1494.05,374.93,1494.05
				z M905.95,910.26c-6.15,0-12.3,2.34-16.98,7.02L357.95,1448.3c-9.36,9.36-9.36,24.6,0,33.97c4.54,4.54,10.57,7.03,16.98,7.03
				c6.41,0,12.45-2.5,16.98-7.03l531.02-531.02c9.36-9.36,9.36-24.6,0-33.97C918.26,912.6,912.1,910.26,905.95,910.26z"/>
		</g>
	</g>
	<g>
		<g>
			<path class="st1" d="M685.31,904.97c-7.68,0-14.91-2.99-20.34-8.43c-11.22-11.22-11.22-29.47,0-40.68l531.02-531.02
				c11.22-11.22,29.47-11.22,40.68,0c11.22,11.22,11.22,29.47,0,40.68L705.65,896.54C700.22,901.98,692.99,904.97,685.31,904.97z
				 M1216.33,321.17c-6.15,0-12.3,2.34-16.98,7.02L668.33,859.22c-9.36,9.36-9.36,24.6,0,33.97c4.54,4.54,10.57,7.03,16.98,7.03
				c6.41,0,12.45-2.5,16.98-7.03l531.02-531.02c9.36-9.36,9.36-24.6,0-33.97C1228.63,323.51,1222.48,321.17,1216.33,321.17z"/>
		</g>
	</g>
	<g>
		<g>
			<path class="st1" d="M1073.81,1023.21c-7.68,0-14.91-2.99-20.34-8.43c-11.22-11.22-11.22-29.47,0-40.68l531.02-531.02
				c11.22-11.22,29.47-11.22,40.68,0c11.22,11.22,11.22,29.47,0,40.68l-531.02,531.02
				C1088.72,1020.21,1081.49,1023.21,1073.81,1023.21z M1604.83,439.41c-6.15,0-12.3,2.34-16.98,7.02l-531.02,531.02
				c-9.36,9.36-9.36,24.6,0,33.97c4.54,4.54,10.57,7.03,16.98,7.03s12.45-2.5,16.98-7.03l531.02-531.02c9.36-9.36,9.36-24.6,0-33.97
				C1617.13,441.75,1610.98,439.41,1604.83,439.41z"/>
		</g>
	</g>
	<g>
		<g>
			<path class="st1" d="M923.9,849.02c-14.73,0-28.59-5.74-39-16.16c-21.51-21.51-21.51-56.5,0-78.01l531.02-531.02
				c21.51-21.51,56.5-21.51,78.01,0c21.51,21.51,21.51,56.5,0,78.01L962.91,832.86C952.49,843.28,938.63,849.02,923.9,849.02z
				 M1454.92,212.45c-12.91,0-25.82,4.91-35.65,14.74L888.26,758.21c-19.65,19.65-19.65,51.64,0,71.29
				c9.52,9.52,22.18,14.76,35.65,14.76c13.47,0,26.12-5.24,35.65-14.76l531.02-531.02c19.65-19.65,19.65-51.64,0-71.29
				C1480.74,217.36,1467.83,212.45,1454.92,212.45z"/>
		</g>
	</g>
	<g>
		<g>
			<path class="st1" d="M1341.96,935.58c-14.73,0-28.59-5.74-39-16.16c-21.51-21.51-21.51-56.5,0-78.01l531.02-531.02
				c21.51-21.51,56.5-21.51,78.01,0c21.51,21.51,21.51,56.5,0,78.01l-531.02,531.02C1370.55,929.85,1356.69,935.58,1341.96,935.58z
				 M1872.98,299.02c-12.91,0-25.82,4.91-35.65,14.74l-531.02,531.02c-19.65,19.66-19.65,51.64,0,71.29
				c9.52,9.52,22.18,14.76,35.65,14.76s26.12-5.24,35.65-14.76l531.02-531.02c19.65-19.65,19.65-51.64,0-71.29
				C1898.8,303.93,1885.89,299.02,1872.98,299.02z"/>
		</g>
	</g>
</g>
</svg>
