<?xml version="1.0" encoding="utf-8"?>
<!-- Generator: Adobe Illustrator 27.1.1, SVG Export Plug-In . SVG Version: 6.00 Build 0)  -->
<svg version="1.1" id="Shape_5" xmlns="http://www.w3.org/2000/svg" xmlns:xlink="http://www.w3.org/1999/xlink" x="0px" y="0px"
	 viewBox="0 0 1007.6 645.25" style="enable-background:new 0 0 1007.6 645.25;" xml:space="preserve">
<style type="text/css">
	.st0{fill:url(#SVGID_1_);}
	.st1{fill:#FFFFFF;}
</style>
<g>
	<linearGradient id="SVGID_1_" gradientUnits="userSpaceOnUse" x1="240.1067" y1="314.4415" x2="807.2408" y2="314.4415">
		<stop  offset="0" style="stop-color:#DA1A61"/>
		<stop  offset="4.136360e-03" style="stop-color:#DA1A61"/>
		<stop  offset="1" style="stop-color:#F89721"/>
	</linearGradient>
	<path class="st0" d="M285.16,359.49c-24.84,0-45.05-20.21-45.05-45.05c0-24.84,20.21-45.05,45.05-45.05h477.03
		c24.84,0,45.05,20.21,45.05,45.05c0,24.84-20.21,45.05-45.05,45.05H285.16z"/>
</g>
<g>
	<path class="st1" d="M335.37,328.06c-0.34,0.36-0.76,0.53-1.27,0.53c-0.5,0-0.93-0.18-1.27-0.53c-0.34-0.36-0.51-0.77-0.51-1.25
		v-28.17c0-0.68,0.25-1.27,0.76-1.78c0.5-0.5,1.1-0.76,1.78-0.76h14.51c0.42,0,0.77,0.15,1.07,0.44c0.3,0.3,0.44,0.64,0.44,1.02
		c0,0.39-0.15,0.73-0.44,1.05c-0.3,0.31-0.65,0.47-1.07,0.47h-13.08c-0.27,0-0.4,0.12-0.4,0.36v10.32c0,0.24,0.13,0.36,0.4,0.36
		h12.28c0.42,0,0.76,0.14,1.02,0.42c0.27,0.28,0.4,0.62,0.4,1c0,0.39-0.13,0.72-0.4,1c-0.27,0.28-0.61,0.42-1.02,0.42h-12.28
		c-0.27,0-0.4,0.13-0.4,0.4v13.44C335.88,327.29,335.71,327.7,335.37,328.06z"/>
	<path class="st1" d="M353.95,328.59c-0.44,0-0.8-0.19-1.07-0.56c-0.27-0.37-0.33-0.76-0.18-1.18l10.15-28.88
		c0.21-0.56,0.56-1.02,1.05-1.36c0.49-0.34,1.03-0.51,1.62-0.51c0.59,0,1.13,0.17,1.62,0.51c0.49,0.34,0.84,0.79,1.05,1.36
		l10.1,28.83c0.15,0.44,0.09,0.85-0.18,1.22c-0.27,0.37-0.62,0.56-1.07,0.56c-0.59,0-1.12-0.17-1.58-0.51
		c-0.46-0.34-0.78-0.78-0.96-1.31l-2.36-7.3c-0.09-0.24-0.27-0.36-0.53-0.36h-12.33c-0.24,0-0.4,0.12-0.49,0.36l-2.45,7.39
		c-0.18,0.53-0.48,0.96-0.91,1.27C355.01,328.44,354.51,328.59,353.95,328.59z M365.38,299.36l-5.43,16.55
		c-0.03,0.09-0.02,0.17,0.04,0.24c0.06,0.07,0.13,0.11,0.22,0.11h10.46c0.09,0,0.16-0.04,0.2-0.11c0.04-0.07,0.07-0.16,0.07-0.24
		l-5.43-16.55c0-0.03-0.02-0.04-0.04-0.04C365.41,299.32,365.38,299.33,365.38,299.36z"/>
	<path class="st1" d="M394.26,329c-3.92-0.27-7.05-1.85-9.41-4.76c-2.36-2.91-3.54-6.87-3.54-11.88c0-5.25,1.24-9.34,3.72-12.28
		c2.48-2.94,5.91-4.4,10.3-4.4c2.31,0,4.38,0.22,6.19,0.67c0.44,0.12,0.81,0.37,1.09,0.76c0.28,0.39,0.42,0.82,0.42,1.29
		c0,0.39-0.16,0.69-0.47,0.91c-0.31,0.22-0.66,0.27-1.05,0.16c-1.75-0.53-3.71-0.8-5.87-0.8c-3.35,0-5.98,1.2-7.88,3.6
		c-1.9,2.4-2.85,5.77-2.85,10.1c0,4.3,0.99,7.66,2.96,10.08c1.97,2.42,4.61,3.63,7.9,3.63c2.19,0,4.18-0.27,5.96-0.8
		c0.38-0.12,0.73-0.07,1.05,0.16c0.31,0.22,0.47,0.53,0.47,0.91c0,0.48-0.14,0.9-0.42,1.27c-0.28,0.37-0.65,0.62-1.09,0.73
		c-1.36,0.33-2.58,0.53-3.65,0.62c-0.24,0-0.28,0.12-0.13,0.36c0.86,1.22,1.29,2.49,1.29,3.83c0,1.54-0.63,2.8-1.89,3.78
		c-1.26,0.98-3.23,1.47-5.9,1.47c-1.13,0-2.3-0.16-3.52-0.49c-0.42-0.12-0.75-0.35-1-0.69c-0.25-0.34-0.38-0.73-0.38-1.18
		c0-0.33,0.14-0.58,0.42-0.76c0.28-0.18,0.59-0.21,0.91-0.09c1.07,0.36,2.15,0.53,3.25,0.53c3.26,0,4.89-1.13,4.89-3.38
		c0-1.07-0.39-2.08-1.16-3.03C394.73,329.1,394.53,329,394.26,329z"/>
	<path class="st1" d="M409.65,328.59c-0.44,0-0.8-0.19-1.07-0.56c-0.27-0.37-0.33-0.76-0.18-1.18l10.15-28.88
		c0.21-0.56,0.56-1.02,1.05-1.36c0.49-0.34,1.03-0.51,1.62-0.51c0.59,0,1.13,0.17,1.62,0.51c0.49,0.34,0.84,0.79,1.05,1.36
		l10.1,28.83c0.15,0.44,0.09,0.85-0.18,1.22c-0.27,0.37-0.62,0.56-1.07,0.56c-0.59,0-1.12-0.17-1.58-0.51
		c-0.46-0.34-0.78-0.78-0.96-1.31l-2.36-7.3c-0.09-0.24-0.27-0.36-0.53-0.36h-12.33c-0.24,0-0.4,0.12-0.49,0.36l-2.45,7.39
		c-0.18,0.53-0.48,0.96-0.91,1.27C410.71,328.44,410.22,328.59,409.65,328.59z M421.09,299.36l-5.43,16.55
		c-0.03,0.09-0.02,0.17,0.04,0.24c0.06,0.07,0.13,0.11,0.22,0.11h10.46c0.09,0,0.16-0.04,0.2-0.11c0.04-0.07,0.07-0.16,0.07-0.24
		l-5.43-16.55c0-0.03-0.02-0.04-0.04-0.04C421.12,299.32,421.09,299.33,421.09,299.36z"/>
	<path class="st1" d="M454.08,328.06c-0.34,0.36-0.76,0.53-1.27,0.53c-0.5,0-0.93-0.18-1.27-0.53c-0.34-0.36-0.51-0.77-0.51-1.25
		v-27.94c0-0.71,0.24-1.34,0.71-1.89c0.47-0.55,1.07-0.87,1.78-0.96c2.28-0.24,4.46-0.36,6.54-0.36c4.03,0,7.1,0.85,9.19,2.56
		c2.09,1.71,3.14,4.15,3.14,7.32c0,3.44-1.05,6.05-3.16,7.83c-2.11,1.78-5.16,2.67-9.17,2.67c-1.6,0-3.29-0.07-5.07-0.22
		c-0.27,0-0.4,0.1-0.4,0.31v10.68C454.59,327.29,454.42,327.7,454.08,328.06z M454.59,299.36v13.08c0,0.24,0.13,0.39,0.4,0.44
		c1.42,0.21,3.03,0.31,4.81,0.31c2.94,0,5.18-0.64,6.74-1.91c1.56-1.27,2.34-3.1,2.34-5.47c0-2.37-0.76-4.18-2.29-5.41
		c-1.53-1.23-3.79-1.85-6.79-1.85c-1.6,0-3.2,0.12-4.81,0.36C454.73,298.98,454.59,299.12,454.59,299.36z"/>
	<path class="st1" d="M473.68,328.59c-0.44,0-0.8-0.19-1.07-0.56c-0.27-0.37-0.33-0.76-0.18-1.18l10.15-28.88
		c0.21-0.56,0.56-1.02,1.05-1.36c0.49-0.34,1.03-0.51,1.62-0.51c0.59,0,1.13,0.17,1.62,0.51c0.49,0.34,0.84,0.79,1.05,1.36
		l10.1,28.83c0.15,0.44,0.09,0.85-0.18,1.22c-0.27,0.37-0.62,0.56-1.07,0.56c-0.59,0-1.12-0.17-1.58-0.51
		c-0.46-0.34-0.78-0.78-0.96-1.31l-2.36-7.3c-0.09-0.24-0.27-0.36-0.53-0.36h-12.33c-0.24,0-0.4,0.12-0.49,0.36l-2.45,7.39
		c-0.18,0.53-0.48,0.96-0.91,1.27C474.74,328.44,474.25,328.59,473.68,328.59z M485.12,299.36l-5.43,16.55
		c-0.03,0.09-0.02,0.17,0.04,0.24c0.06,0.07,0.13,0.11,0.22,0.11h10.46c0.09,0,0.16-0.04,0.2-0.11c0.04-0.07,0.07-0.16,0.07-0.24
		l-5.43-16.55c0-0.03-0.02-0.04-0.04-0.04C485.15,299.32,485.12,299.33,485.12,299.36z"/>
	<path class="st1" d="M506.1,328.06c-0.34,0.36-0.76,0.53-1.27,0.53c-0.5,0-0.93-0.18-1.27-0.53c-0.34-0.36-0.51-0.77-0.51-1.25
		v-27.94c0-0.74,0.24-1.39,0.71-1.94c0.47-0.55,1.07-0.87,1.78-0.96c1.75-0.21,3.69-0.31,5.83-0.31c4.15,0,7.29,0.76,9.41,2.29
		c2.12,1.53,3.18,3.7,3.18,6.52c0,2.25-0.6,4.13-1.8,5.63c-1.2,1.5-2.91,2.53-5.14,3.09c-0.03,0-0.04,0.03-0.04,0.09
		c0,0.03,0.01,0.04,0.04,0.04c1.27,0.74,2.58,2.67,3.92,5.78l3.2,7.79c0.18,0.39,0.14,0.76-0.11,1.13c-0.25,0.37-0.6,0.56-1.05,0.56
		c-0.56,0-1.08-0.16-1.54-0.49c-0.46-0.33-0.79-0.74-1-1.25l-3.11-7.65c-0.89-2.14-1.73-3.46-2.51-3.98
		c-0.79-0.52-2.34-0.78-4.65-0.78h-3.16c-0.27,0-0.4,0.12-0.4,0.36v12.01C506.61,327.29,506.44,327.7,506.1,328.06z M506.61,299.36
		v11.84c0,0.27,0.13,0.4,0.4,0.4h3.16c3.53,0,6.13-0.57,7.79-1.71c1.66-1.14,2.49-2.84,2.49-5.09c0-4.15-3.13-6.23-9.39-6.23
		c-1.33,0-2.69,0.12-4.05,0.36C506.74,298.98,506.61,299.12,506.61,299.36z"/>
	<path class="st1" d="M528.86,299.14c-0.42,0-0.77-0.15-1.07-0.45c-0.3-0.3-0.44-0.65-0.44-1.07c0-0.42,0.15-0.77,0.44-1.07
		c0.3-0.3,0.65-0.44,1.07-0.44h19.85c0.42,0,0.77,0.15,1.07,0.44c0.3,0.3,0.44,0.65,0.44,1.07c0,0.42-0.15,0.77-0.44,1.07
		c-0.3,0.3-0.65,0.45-1.07,0.45h-7.74c-0.27,0-0.4,0.13-0.4,0.4v27.28c0,0.47-0.17,0.89-0.51,1.25c-0.34,0.36-0.76,0.53-1.27,0.53
		s-0.93-0.18-1.27-0.53c-0.34-0.36-0.51-0.77-0.51-1.25v-27.28c0-0.27-0.13-0.4-0.4-0.4H528.86z"/>
	<path class="st1" d="M559.2,328.59c-0.68,0-1.28-0.25-1.78-0.76c-0.5-0.5-0.76-1.1-0.76-1.78v-27.41c0-0.68,0.25-1.27,0.76-1.78
		c0.5-0.5,1.1-0.76,1.78-0.76h14.95c0.42,0,0.77,0.15,1.07,0.44c0.3,0.3,0.44,0.64,0.44,1.02c0,0.39-0.15,0.73-0.44,1.05
		c-0.3,0.31-0.65,0.47-1.07,0.47h-13.53c-0.27,0-0.4,0.12-0.4,0.36v9.88c0,0.24,0.13,0.36,0.4,0.36h12.73
		c0.42,0,0.76,0.14,1.02,0.42c0.27,0.28,0.4,0.62,0.4,1c0,0.39-0.13,0.72-0.4,1c-0.27,0.28-0.61,0.42-1.02,0.42h-12.73
		c-0.27,0-0.4,0.13-0.4,0.4v12.33c0,0.24,0.13,0.36,0.4,0.36h13.53c0.42,0,0.77,0.16,1.07,0.47c0.3,0.31,0.44,0.66,0.44,1.05
		c0,0.39-0.15,0.73-0.44,1.02c-0.3,0.3-0.65,0.44-1.07,0.44H559.2z"/>
	<path class="st1" d="M597.29,328.73c-0.71-0.09-1.31-0.41-1.78-0.96c-0.48-0.55-0.71-1.19-0.71-1.94v-26.96
		c0-0.74,0.23-1.39,0.69-1.94c0.46-0.55,1.06-0.87,1.8-0.96c1.63-0.21,3.43-0.31,5.38-0.31c10.56,0,15.84,5.41,15.84,16.24
		c0,11.42-5.28,17.13-15.84,17.13C600.72,329.04,598.92,328.94,597.29,328.73z M598.36,299.41v25.9c0,0.24,0.13,0.39,0.4,0.44
		c1.16,0.21,2.46,0.31,3.92,0.31c4.3,0,7.45-1.11,9.46-3.34c2-2.22,3-5.83,3-10.81c0-4.54-1.02-7.88-3.05-10.03
		c-2.03-2.15-5.17-3.23-9.41-3.23c-1.45,0-2.76,0.1-3.92,0.31C598.49,299.02,598.36,299.17,598.36,299.41z"/>
	<path class="st1" d="M646.97,324.66c-2.51,2.92-5.96,4.38-10.35,4.38c-4.39,0-7.84-1.46-10.35-4.38c-2.51-2.92-3.76-7.02-3.76-12.3
		c0-5.28,1.25-9.38,3.76-12.3c2.51-2.92,5.96-4.38,10.35-4.38c4.39,0,7.84,1.46,10.35,4.38c2.51,2.92,3.76,7.02,3.76,12.3
		C650.73,317.63,649.48,321.74,646.97,324.66z M644.39,302.12c-1.79-2.31-4.38-3.47-7.76-3.47c-3.38,0-5.97,1.16-7.76,3.47
		c-1.8,2.31-2.69,5.73-2.69,10.23c0,4.51,0.9,7.92,2.69,10.23c1.79,2.31,4.38,3.47,7.76,3.47c3.38,0,5.97-1.16,7.76-3.47
		c1.79-2.31,2.69-5.72,2.69-10.23C647.08,307.85,646.18,304.43,644.39,302.12z"/>
	<path class="st1" d="M671.35,328.06c-0.34,0.36-0.76,0.53-1.27,0.53c-0.5,0-0.93-0.18-1.27-0.53c-0.34-0.36-0.51-0.77-0.51-1.25
		v-27.94c0-0.71,0.24-1.34,0.71-1.89c0.47-0.55,1.07-0.87,1.78-0.96c2.28-0.24,4.46-0.36,6.54-0.36c4.03,0,7.1,0.85,9.19,2.56
		c2.09,1.71,3.14,4.15,3.14,7.32c0,3.44-1.05,6.05-3.16,7.83c-2.11,1.78-5.16,2.67-9.17,2.67c-1.6,0-3.29-0.07-5.07-0.22
		c-0.27,0-0.4,0.1-0.4,0.31v10.68C671.86,327.29,671.69,327.7,671.35,328.06z M671.86,299.36v13.08c0,0.24,0.13,0.39,0.4,0.44
		c1.42,0.21,3.03,0.31,4.81,0.31c2.94,0,5.18-0.64,6.74-1.91c1.56-1.27,2.34-3.1,2.34-5.47c0-2.37-0.76-4.18-2.29-5.41
		c-1.53-1.23-3.79-1.85-6.79-1.85c-1.6,0-3.2,0.12-4.81,0.36C672,298.98,671.86,299.12,671.86,299.36z"/>
	<path class="st1" d="M696.2,296.11h17.93c0.39,0,0.73,0.15,1.02,0.44c0.3,0.3,0.44,0.64,0.44,1.02c0,0.98-0.25,1.9-0.76,2.76
		c-4.54,7.65-8.4,16.49-11.57,26.52c-0.15,0.5-0.45,0.92-0.89,1.25c-0.44,0.33-0.95,0.49-1.51,0.49c-0.48,0-0.85-0.19-1.11-0.56
		c-0.27-0.37-0.33-0.78-0.18-1.22c3.35-10.17,7.53-19.37,12.55-27.59v-0.04l0.04-0.04c0-0.03-0.02-0.04-0.04-0.04H696.2
		c-0.42,0-0.77-0.16-1.07-0.47c-0.3-0.31-0.44-0.66-0.44-1.05c0-0.39,0.15-0.73,0.44-1.02C695.43,296.26,695.79,296.11,696.2,296.11
		z"/>
</g>
</svg>
