<?xml version="1.0" encoding="UTF-8"?>
<svg id="Camada_2" data-name="Camada 2" xmlns="http://www.w3.org/2000/svg" viewBox="0 0 151.58 152.59">
  <defs>
    <style>
      .cls-1 {
        fill: #fff;
      }
    </style>
  </defs>
  <g id="Camada_2-2" data-name="Camada 2">
    <g id="Layer_1" data-name="Layer 1">
      <g>
        <g>
          <path class="cls-1" d="M35.5,148.39c-.38-.21-.81-.22-1.22,0h-.02c-.33,.21-.68,.36-1.06,.44-1,.23-2.11,.17-3.05-.24-.58-.25-1.09-.59-1.52-1.03-.43-.43-.78-.95-1.04-1.53-.25-.58-.38-1.2-.38-1.86s.13-1.29,.38-1.86c.26-.58,.6-1.09,1.04-1.53,.43-.43,.95-.78,1.52-1.03,.93-.4,1.99-.49,3.03-.22,.39,.1,.76,.24,1.12,.43,.07,.03,.16,.06,.27,.09,.39,.11,.65,.04,.94-.11,.21-.11,.37-.29,.48-.51,.17-.29,.2-.61,.09-.94-.11-.32-.3-.57-.61-.76-.52-.25-1.09-.46-1.68-.62-1.63-.45-3.23-.28-4.63,.32-.89,.38-1.67,.91-2.33,1.58-.66,.66-1.18,1.45-1.57,2.33-.38,.88-.58,1.84-.58,2.83s.19,1.95,.58,2.84c.38,.89,.91,1.67,1.57,2.33s1.44,1.19,2.33,1.57,1.84,.57,2.84,.57c.58,0,1.19-.08,1.79-.24,.6-.16,1.17-.37,1.72-.65,.28-.18,.47-.43,.58-.75,.11-.33,.08-.65-.08-.93-.14-.22-.31-.4-.51-.51h0Z"/>
          <path class="cls-1" d="M48.48,146.03c.36-.21,.68-.46,.95-.74,.13-.13,.25-.26,.36-.4v.21l.48-.96c.14-.28,.25-.57,.33-.84,.08-.27,.14-.51,.18-.73,.04-.21,.07-.4,.07-.56v-.26c0-.96-.23-1.82-.67-2.56-.45-.74-1.07-1.33-1.86-1.74-.28-.13-.56-.23-.83-.31s-.51-.13-.73-.18c-.22-.04-.4-.07-.55-.08-.15,0-.25-.02-.28-.02h-3.31c-.34,0-.63,.12-.87,.37-.24,.24-.37,.54-.37,.87v12.14c0,.34,.12,.63,.37,.87,.49,.5,1.29,.48,1.77,0,.24-.24,.37-.54,.37-.87v-3.6h1.97l2.67,4.26c.25,.38,.62,.58,1.08,.58,.25,0,.47-.06,.65-.19s.32-.29,.42-.47c.11-.19,.16-.39,.16-.58,0-.1,0-.19-.04-.29h.1l-2.43-3.92h0Zm-.2-3.85c-.03,.13-.06,.27-.11,.44-.04,.15-.1,.3-.17,.44-.41,.72-1.09,1.06-2.06,1.06h-2.05v-4.74h2.05c.13,0,.27,0,.39,.04,.13,.03,.27,.06,.42,.1,.14,.04,.29,.09,.44,.16,.76,.39,1.13,1.07,1.13,2.07v.13c0,.08,0,.18-.03,.3h0Z"/>
          <path class="cls-1" d="M56.57,137.22c-.24,.24-.37,.54-.37,.87v12.14c0,.34,.12,.63,.37,.87,.24,.24,.54,.37,.87,.37s.63-.12,.88-.36,.38-.54,.38-.88v-12.14c0-.34-.13-.63-.38-.88-.5-.48-1.27-.47-1.75,0h0Z"/>
          <path class="cls-1" d="M71.38,137.63c-.11-.21-.27-.39-.46-.54-.44-.33-.98-.31-1.39,0-.2,.15-.35,.33-.47,.56-.78,1.95-1.59,3.97-2.43,6.05s-1.64,4.1-2.41,6.06c-.05,.14-.08,.3-.08,.47,0,.3,.11,.59,.33,.84,.23,.26,.54,.4,.91,.4,.24,0,.48-.09,.7-.25,.2-.16,.36-.34,.46-.55l.9-2.22h5.57l.9,2.25c.11,.19,.27,.36,.47,.52,.22,.17,.45,.25,.7,.25,.38,0,.69-.13,.92-.39,.21-.25,.32-.53,.32-.85,0-.18-.03-.34-.08-.47l-4.86-12.13h0Zm.6,8.32h-3.51l1.77-4.46s1.74,4.46,1.74,4.46Z"/>
          <path class="cls-1" d="M87.31,136.85h-7.26c-.34,0-.63,.12-.88,.36s-.38,.54-.38,.88,.13,.65,.38,.9,.55,.38,.88,.38h2.39v10.86c0,.34,.12,.63,.37,.87,.24,.24,.54,.37,.87,.37,.35,0,.65-.12,.89-.37,.24-.24,.37-.54,.37-.87v-10.85h2.37c.35,0,.65-.13,.9-.38s.38-.55,.38-.9-.13-.63-.38-.88c-.25-.24-.55-.37-.9-.37Z"/>
          <path class="cls-1" d="M94.28,137.22c-.24,.24-.37,.54-.37,.87v12.14c0,.34,.12,.63,.37,.87,.24,.24,.54,.37,.87,.37s.63-.12,.88-.36,.38-.54,.38-.88v-12.14c0-.34-.13-.63-.38-.88-.49-.48-1.26-.47-1.75,0h0Z"/>
          <path class="cls-1" d="M112.79,136.85c-.25,0-.49,.07-.7,.21-.22,.14-.38,.34-.48,.59l-3.66,9.2-3.69-9.18c-.08-.26-.24-.46-.46-.61-.22-.14-.45-.21-.7-.21-.37,0-.68,.13-.91,.4-.22,.25-.33,.54-.33,.86,0,.18,.03,.33,.08,.46l4.85,12.13c.11,.21,.27,.39,.46,.54,.21,.16,.45,.24,.71,.24,.24,0,.47-.08,.69-.24,.2-.15,.35-.33,.48-.56,.77-1.94,1.58-3.98,2.42-6.05,.84-2.06,1.65-4.1,2.42-6.05,.05-.13,.08-.28,.08-.48,0-.3-.11-.58-.32-.84-.25-.27-.56-.41-.94-.41Z"/>
          <path class="cls-1" d="M131.24,141.33c-.37-.88-.87-1.66-1.5-2.33s-1.38-1.2-2.23-1.58c-1.7-.77-3.75-.77-5.45,0-.85,.38-1.6,.91-2.23,1.58-.63,.66-1.14,1.45-1.5,2.33-.37,.88-.55,1.83-.55,2.83s.19,1.95,.55,2.84c.37,.89,.87,1.67,1.5,2.33s1.38,1.19,2.23,1.57,1.77,.58,2.73,.58,1.88-.19,2.73-.58c.85-.38,1.6-.91,2.23-1.57s1.14-1.44,1.5-2.33c.37-.89,.55-1.84,.55-2.84s-.19-1.94-.56-2.83h0Zm-1.96,2.84c0,.66-.12,1.29-.35,1.87-.24,.58-.56,1.09-.97,1.53-.41,.43-.89,.78-1.42,1.02-1.07,.49-2.41,.49-3.48,0-.54-.25-1.02-.59-1.42-1.02-.41-.43-.73-.95-.97-1.53s-.35-1.21-.35-1.87,.12-1.29,.35-1.87c.24-.58,.56-1.09,.97-1.53,.41-.43,.89-.78,1.42-1.02,.54-.25,1.12-.37,1.74-.37s1.2,.12,1.74,.37,1.02,.59,1.42,1.02c.41,.43,.73,.95,.97,1.53,.23,.57,.35,1.2,.35,1.87h0Z"/>
        </g>
        <path class="cls-1" d="M149.61,11.4C144.94,1.53,134.79-.38,129.26,.06h-55.05c2.95,2.21,5.55,5.19,7.41,9.11,.55,1.15,.98,2.28,1.34,3.38h46.58c1.44,.02,6.4-.52,8.79,4.2,.51,1,2.05,4.32-6.8,14.27-8.65,9.73-83.29,83.28-84.08,84.07-2.46,2.42-2.48,6.38-.06,8.83,1.22,1.24,2.83,1.86,4.45,1.86s3.17-.6,4.39-1.8c3.27-3.22,75.73-74.63,84.65-84.66,8.11-9.14,13.91-16.99,8.73-27.92h0Z"/>
        <path class="cls-1" d="M76.01,11.44C71.34,1.57,62.67,.1,55.66,.1L12.16,.06C4.33,.06,.03,5.39,.03,13.66l-.03,132.68c0,3.45,2.8,6.25,6.25,6.25s6.25-2.8,6.25-6.25v-52.18c4.6-4.49,46.16-45.11,54.77-54.8,8.12-9.14,13.92-17,8.74-27.92Zm-18.08,19.62c-6.23,7.01-31.61,32.04-45.44,45.61V20.04c0-2.39,.75-7.49,6.78-7.49H56.55c.38,.02,6.61-.44,8.07,4.05,.53,1.61,2.15,4.51-6.69,14.46Z"/>
      </g>
    </g>
  </g>
</svg>