<?xml version="1.0" encoding="UTF-8"?>
<svg id="Camada_2" data-name="Camada 2" xmlns="http://www.w3.org/2000/svg" viewBox="0 0 166.03 42.52">
  <defs>
    <style>
      .cls-1 {
        fill: #fff;
      }
    </style>
  </defs>
  <g id="Camada_1-2" data-name="Camada 1">
    <path class="cls-1" d="M0,0V6.2H8.92v1.12H0v6.02H8.92v1.12H0v6.21H8.92v1.12H0v6.31H8.92v1.12H0v6.04H8.92v1.12H0v6.14H166.03V0H0ZM40.47,15.06h-8.37c.29-1.17,.1-2.05-.52-2.68-.58-.63-1.6-.96-3.02-.96-1.92,0-3.86,1.25-4.18,2.76-.47,2.22,2.05,2.93,4.15,3.51,4.79,1.3,12.04,1.8,10.31,9.95-1.35,6.36-8.27,9.38-15.25,9.38s-12.79-2.06-11.17-10.25h8.37c-.64,2.84,1.12,4.39,4.13,4.39,1.93,0,4.61-1,5.03-3.01,.87-4.1-5.51-3.22-11.46-6.11-2.77-1.34-3.68-4.1-2.99-7.36,1.85-7.15,8.55-9.12,14.86-9.12,6.23,.01,12.16,2.22,10.11,9.5Zm25.63,9.07h-13.47l-1.36,6.4h14.64l-1.25,5.86h-23l6.42-30.2h23.01l-.85,3.97-.4,1.88h-14.64l-1.33,6.23h13.47l-1.24,5.86Zm21.15,12.26l-5.33-23.13h-.08l-4.91,23.13h-7.53l.85-3.98,5.57-26.21h11.71l5.34,22.5,.1-.08,4.77-22.42h7.53l-1.66,7.82-4.76,22.38h-11.6Zm39.27,0l-.75-5.9h-12.25l-3.22,5.9h-8.36l1.66-2.74L120.28,6.19h10.21l5.5,30.2h-9.47Zm21,0h-8.36l6.42-30.2h8.36l-6.42,30.2Zm18.5-.01h-8.92v-1.12h8.92v1.12Zm0-7.16h-8.92v-1.12h8.92v1.12Zm0-7.43h-8.92v-1.12h8.92v1.12Zm0-7.33h-8.92v-1.12h8.92v1.12Zm0-7.15h-8.92v-1.12h8.92v1.12Zm-42.36,4.78l-2.73,5.07-4.04,7.48h8.08l-1.18-12.55h-.13Z"/>
  </g>
</svg>