<?xml version="1.0" encoding="utf-8"?>
<!-- Generator: Adobe Illustrator 27.1.1, SVG Export Plug-In . SVG Version: 6.00 Build 0)  -->
<svg version="1.1" id="Layer_1" xmlns="http://www.w3.org/2000/svg" xmlns:xlink="http://www.w3.org/1999/xlink" x="0px" y="0px"
	 viewBox="0 0 401.09 324.55" style="enable-background:new 0 0 401.09 324.55;" xml:space="preserve">
<style type="text/css">
	.st0{fill:#FFFFFF;}
</style>
<g>
	<g>
		<path class="st0" d="M195.1,223.81c-0.38-0.21-0.81-0.22-1.22-0.01l-0.02,0.01c-0.33,0.2-0.68,0.35-1.06,0.43
			c-1,0.23-2.11,0.17-3.05-0.24c-0.58-0.25-1.09-0.59-1.52-1.03c-0.43-0.43-0.78-0.95-1.04-1.53c-0.25-0.58-0.38-1.2-0.38-1.86
			c0-0.66,0.13-1.29,0.38-1.86c0.26-0.58,0.6-1.09,1.04-1.53c0.43-0.43,0.95-0.78,1.52-1.03c0.93-0.4,1.99-0.49,3.03-0.22
			c0.39,0.1,0.76,0.24,1.12,0.43c0.07,0.03,0.16,0.06,0.27,0.09c0.39,0.11,0.65,0.04,0.94-0.11c0.21-0.11,0.37-0.29,0.48-0.51
			c0.17-0.29,0.2-0.61,0.09-0.94c-0.11-0.32-0.3-0.57-0.61-0.76c-0.52-0.25-1.09-0.46-1.68-0.62c-1.63-0.45-3.23-0.28-4.63,0.32
			c-0.89,0.38-1.67,0.91-2.33,1.58c-0.66,0.66-1.18,1.45-1.57,2.33c-0.38,0.88-0.58,1.84-0.58,2.83c0,1,0.19,1.95,0.58,2.84
			c0.38,0.89,0.91,1.67,1.57,2.33c0.66,0.66,1.44,1.19,2.33,1.57c0.89,0.38,1.84,0.57,2.84,0.57c0.58,0,1.19-0.08,1.79-0.24
			c0.6-0.16,1.17-0.37,1.72-0.65c0.28-0.18,0.47-0.43,0.58-0.75c0.11-0.33,0.08-0.65-0.08-0.93
			C195.47,224.1,195.3,223.92,195.1,223.81z"/>
		<path class="st0" d="M208.08,221.45c0.36-0.21,0.68-0.46,0.95-0.74c0.13-0.13,0.25-0.26,0.36-0.4v0.21l0.48-0.96
			c0.14-0.28,0.25-0.57,0.33-0.84c0.08-0.27,0.14-0.51,0.18-0.73c0.04-0.21,0.07-0.4,0.07-0.56c0.01-0.15,0.01-0.24,0.01-0.26
			c0-0.96-0.23-1.82-0.67-2.56c-0.45-0.74-1.07-1.33-1.86-1.74c-0.28-0.13-0.56-0.23-0.83-0.31c-0.27-0.08-0.51-0.13-0.73-0.18
			c-0.22-0.04-0.4-0.07-0.55-0.08c-0.15-0.01-0.25-0.02-0.28-0.02h-3.31c-0.34,0-0.63,0.12-0.87,0.37
			c-0.24,0.24-0.37,0.54-0.37,0.87v12.14c0,0.34,0.12,0.63,0.37,0.87c0.49,0.5,1.29,0.48,1.77,0c0.24-0.24,0.37-0.54,0.37-0.87v-3.6
			h1.97l2.67,4.26c0.25,0.38,0.62,0.58,1.08,0.58c0.25,0,0.47-0.06,0.65-0.19c0.18-0.13,0.32-0.29,0.42-0.47
			c0.11-0.19,0.16-0.39,0.16-0.58c0-0.1-0.01-0.19-0.04-0.29h0.1L208.08,221.45z M207.88,217.6c-0.03,0.13-0.06,0.27-0.11,0.44
			c-0.04,0.15-0.1,0.3-0.17,0.44c-0.41,0.72-1.09,1.06-2.06,1.06h-2.05v-4.74h2.05c0.13,0,0.27,0.01,0.39,0.04
			c0.13,0.03,0.27,0.06,0.42,0.1c0.14,0.04,0.29,0.09,0.44,0.16c0.76,0.39,1.13,1.07,1.13,2.07c0,0.02,0,0.06-0.01,0.13
			C207.92,217.38,207.9,217.48,207.88,217.6z"/>
		<path class="st0" d="M216.17,212.64c-0.24,0.24-0.37,0.54-0.37,0.87v12.14c0,0.34,0.12,0.63,0.37,0.87
			c0.24,0.24,0.54,0.37,0.87,0.37c0.34,0,0.63-0.12,0.88-0.36c0.25-0.24,0.38-0.54,0.38-0.88v-12.14c0-0.34-0.13-0.63-0.38-0.88
			C217.42,212.15,216.65,212.16,216.17,212.64z"/>
		<path class="st0" d="M230.98,213.05c-0.11-0.21-0.27-0.39-0.46-0.54c-0.44-0.33-0.98-0.31-1.39,0c-0.2,0.15-0.35,0.33-0.47,0.56
			c-0.78,1.95-1.59,3.97-2.43,6.05c-0.84,2.08-1.64,4.1-2.41,6.06c-0.05,0.14-0.08,0.3-0.08,0.47c0,0.3,0.11,0.59,0.33,0.84
			c0.23,0.26,0.54,0.4,0.91,0.4c0.24,0,0.48-0.09,0.7-0.25c0.2-0.16,0.36-0.34,0.46-0.55l0.9-2.22h5.57l0.9,2.25
			c0.11,0.19,0.27,0.36,0.47,0.52c0.22,0.17,0.45,0.25,0.7,0.25c0.38,0,0.69-0.13,0.92-0.39c0.21-0.25,0.32-0.53,0.32-0.85
			c0-0.18-0.03-0.34-0.08-0.47L230.98,213.05z M231.58,221.37h-3.51l1.77-4.46L231.58,221.37z"/>
		<path class="st0" d="M246.91,212.27h-7.26c-0.34,0-0.63,0.12-0.88,0.36c-0.25,0.24-0.38,0.54-0.38,0.88c0,0.35,0.13,0.65,0.38,0.9
			c0.25,0.25,0.55,0.38,0.88,0.38h2.39v10.86c0,0.34,0.12,0.63,0.37,0.87c0.24,0.24,0.54,0.37,0.87,0.37c0.35,0,0.65-0.12,0.89-0.37
			c0.24-0.24,0.37-0.54,0.37-0.87V214.8h2.37c0.35,0,0.65-0.13,0.9-0.38c0.25-0.25,0.38-0.55,0.38-0.9c0-0.34-0.13-0.63-0.38-0.88
			C247.56,212.4,247.26,212.27,246.91,212.27z"/>
		<path class="st0" d="M253.88,212.64c-0.24,0.24-0.37,0.54-0.37,0.87v12.14c0,0.34,0.12,0.63,0.37,0.87
			c0.24,0.24,0.54,0.37,0.87,0.37c0.34,0,0.63-0.12,0.88-0.36c0.25-0.24,0.38-0.54,0.38-0.88v-12.14c0-0.34-0.13-0.63-0.38-0.88
			C255.14,212.15,254.37,212.16,253.88,212.64z"/>
		<path class="st0" d="M272.39,212.27c-0.25,0-0.49,0.07-0.7,0.21c-0.22,0.14-0.38,0.34-0.48,0.59l-3.66,9.2l-3.69-9.18
			c-0.08-0.26-0.24-0.46-0.46-0.61c-0.22-0.14-0.45-0.21-0.7-0.21c-0.37,0-0.68,0.13-0.91,0.4c-0.22,0.25-0.33,0.54-0.33,0.86
			c0,0.18,0.03,0.33,0.08,0.46l4.85,12.13c0.11,0.21,0.27,0.39,0.46,0.54c0.21,0.16,0.45,0.24,0.71,0.24c0.24,0,0.47-0.08,0.69-0.24
			c0.2-0.15,0.35-0.33,0.48-0.56c0.77-1.94,1.58-3.98,2.42-6.05c0.84-2.06,1.65-4.1,2.42-6.05c0.05-0.13,0.08-0.28,0.08-0.48
			c0-0.3-0.11-0.58-0.32-0.84C273.08,212.41,272.77,212.27,272.39,212.27z"/>
		<path class="st0" d="M290.84,216.75c-0.37-0.88-0.87-1.66-1.5-2.33c-0.63-0.67-1.38-1.2-2.23-1.58c-1.7-0.77-3.75-0.77-5.45,0
			c-0.85,0.38-1.6,0.91-2.23,1.58c-0.63,0.66-1.14,1.45-1.5,2.33c-0.37,0.88-0.55,1.83-0.55,2.83c0,1,0.19,1.95,0.55,2.84
			c0.37,0.89,0.87,1.67,1.5,2.33c0.63,0.66,1.38,1.19,2.23,1.57c0.85,0.38,1.77,0.58,2.73,0.58c0.96,0,1.88-0.19,2.73-0.58
			c0.85-0.38,1.6-0.91,2.23-1.57c0.63-0.66,1.14-1.44,1.5-2.33c0.37-0.89,0.55-1.84,0.55-2.84
			C291.4,218.59,291.21,217.64,290.84,216.75z M288.88,219.59c0,0.66-0.12,1.29-0.35,1.87c-0.24,0.58-0.56,1.09-0.97,1.53
			c-0.41,0.43-0.89,0.78-1.42,1.02c-1.07,0.49-2.41,0.49-3.48,0c-0.54-0.25-1.02-0.59-1.42-1.02c-0.41-0.43-0.73-0.95-0.97-1.53
			c-0.24-0.58-0.35-1.21-0.35-1.87c0-0.66,0.12-1.29,0.35-1.87c0.24-0.58,0.56-1.09,0.97-1.53c0.41-0.43,0.89-0.78,1.42-1.02
			c0.54-0.25,1.12-0.37,1.74-0.37c0.62,0,1.2,0.12,1.74,0.37c0.54,0.25,1.02,0.59,1.42,1.02c0.41,0.43,0.73,0.95,0.97,1.53
			C288.76,218.29,288.88,218.92,288.88,219.59z"/>
	</g>
	<path class="st0" d="M309.21,86.82c-4.67-9.87-14.82-11.78-20.35-11.34h-55.05c2.95,2.21,5.55,5.19,7.41,9.11
		c0.55,1.15,0.98,2.28,1.34,3.38h46.58c1.44,0.02,6.4-0.52,8.79,4.2c0.51,1,2.05,4.32-6.8,14.27c-8.65,9.73-83.29,83.28-84.08,84.07
		c-2.46,2.42-2.48,6.38-0.06,8.83c1.22,1.24,2.83,1.86,4.45,1.86c1.58,0,3.17-0.6,4.39-1.8c3.27-3.22,75.73-74.63,84.65-84.66
		C308.59,105.6,314.39,97.75,309.21,86.82z"/>
	<path class="st0" d="M235.61,86.86c-4.67-9.87-13.34-11.34-20.35-11.34l-43.5-0.04c-7.83,0-12.13,5.33-12.13,13.6l-0.03,132.68
		c0,3.45,2.8,6.25,6.25,6.25c3.45,0,6.25-2.8,6.25-6.25v-52.18c4.6-4.49,46.16-45.11,54.77-54.8
		C234.99,105.64,240.79,97.78,235.61,86.86z M217.53,106.48c-6.23,7.01-31.61,32.04-45.44,45.61V97.38v-1.92
		c0-2.39,0.75-7.49,6.78-7.49h37.28c0.38,0.02,6.61-0.44,8.07,4.05C224.75,93.63,226.37,96.53,217.53,106.48z"/>
</g>
</svg>
