<?xml version="1.0" encoding="utf-8"?>
<!-- Generator: Adobe Illustrator 27.1.1, SVG Export Plug-In . SVG Version: 6.00 Build 0)  -->
<svg version="1.1" id="Layer_1" xmlns="http://www.w3.org/2000/svg" xmlns:xlink="http://www.w3.org/1999/xlink" x="0px" y="0px"
	 viewBox="0 0 2837.75 2113.78" style="enable-background:new 0 0 2837.75 2113.78;" xml:space="preserve">
<style type="text/css">
	.st0{opacity:0.3;}
	.st1{fill:#FFFFFF;}
</style>
<g class="st0">
	<path class="st1" d="M910.14,1409.49c-5.06,0-10.13-1.93-13.99-5.79c-7.73-7.73-7.73-20.25,0-27.98l398.05-398.05
		c7.73-7.73,20.25-7.73,27.98,0c7.73,7.73,7.73,20.25,0,27.98L924.13,1403.7C920.27,1407.56,915.21,1409.49,910.14,1409.49z"/>
</g>
<g class="st0">
	<path class="st1" d="M599.94,1322.44c-5.06,0-10.13-1.93-13.99-5.79c-7.73-7.73-7.73-20.25,0-27.98L984,890.62
		c7.73-7.73,20.25-7.73,27.98,0c7.73,7.73,7.73,20.25,0,27.98l-398.05,398.05C610.06,1320.51,605,1322.44,599.94,1322.44z"/>
</g>
<g class="st0">
	<path class="st1" d="M832.59,880.87c-5.06,0-10.13-1.93-13.99-5.79c-7.73-7.73-7.73-20.25,0-27.98l398.05-398.05
		c7.73-7.73,20.25-7.73,27.98,0c7.73,7.73,7.73,20.25,0,27.98L846.58,875.08C842.72,878.94,837.66,880.87,832.59,880.87z"/>
</g>
<g class="st0">
	<path class="st1" d="M1123.81,969.5c-5.06,0-10.13-1.93-13.99-5.79c-7.73-7.73-7.73-20.25,0-27.98l398.05-398.05
		c7.73-7.73,20.25-7.73,27.98,0c7.73,7.73,7.73,20.25,0,27.98L1137.8,963.71C1133.93,967.57,1128.87,969.5,1123.81,969.5z"/>
</g>
<g class="st0">
	<path class="st1" d="M1011.44,838.93c-10.13,0-20.25-3.86-27.98-11.59c-15.45-15.45-15.45-40.5,0-55.96l398.05-398.05
		c15.45-15.45,40.5-15.45,55.96,0c15.45,15.45,15.45,40.5,0,55.96l-398.05,398.05C1031.69,835.07,1021.56,838.93,1011.44,838.93z"/>
</g>
<g class="st0">
	<path class="st1" d="M1324.81,903.82c-10.13,0-20.25-3.86-27.98-11.59c-15.45-15.45-15.45-40.5,0-55.96l398.05-398.05
		c15.45-15.45,40.5-15.45,55.96,0c15.45,15.45,15.45,40.5,0,55.96l-398.05,398.05C1345.06,899.96,1334.94,903.82,1324.81,903.82z"/>
</g>
<g class="st0">
	<g>
		<g>
			<path class="st1" d="M1085.89,1724.86c-7.68,0-14.91-2.99-20.34-8.43c-11.22-11.22-11.22-29.47,0-40.68l531.02-531.02
				c11.22-11.22,29.47-11.22,40.68,0c11.22,11.22,11.22,29.47,0,40.68l-531.02,531.02
				C1100.8,1721.87,1093.58,1724.86,1085.89,1724.86z M1616.91,1141.06c-6.15,0-12.3,2.34-16.98,7.02l-531.02,531.02
				c-9.36,9.36-9.36,24.6,0,33.97c4.54,4.54,10.57,7.03,16.98,7.03c6.41,0,12.45-2.5,16.98-7.03l531.02-531.02
				c9.36-9.36,9.36-24.6,0-33.97C1629.21,1143.41,1623.06,1141.06,1616.91,1141.06z"/>
		</g>
	</g>
	<g>
		<g>
			<path class="st1" d="M672.05,1608.73c-7.68,0-14.91-2.99-20.34-8.43c-11.22-11.22-11.22-29.47,0-40.68l531.02-531.02
				c11.22-11.22,29.47-11.22,40.68,0c11.22,11.22,11.22,29.47,0,40.68L692.4,1600.3C686.96,1605.74,679.74,1608.73,672.05,1608.73z
				 M1203.08,1024.94c-6.15,0-12.3,2.34-16.98,7.02l-531.02,531.02c-9.36,9.36-9.36,24.6,0,33.97c4.54,4.54,10.57,7.03,16.98,7.03
				c6.41,0,12.45-2.5,16.98-7.03l531.02-531.02c9.36-9.36,9.36-24.6,0-33.97C1215.38,1027.28,1209.22,1024.94,1203.08,1024.94z"/>
		</g>
	</g>
	<g>
		<g>
			<path class="st1" d="M982.43,1019.65c-7.68,0-14.91-2.99-20.34-8.43c-11.22-11.22-11.22-29.47,0-40.68l531.02-531.02
				c11.22-11.22,29.47-11.22,40.68,0c11.22,11.22,11.22,29.47,0,40.68l-531.02,531.02C997.34,1016.65,990.12,1019.65,982.43,1019.65
				z M1513.45,435.85c-6.15,0-12.3,2.34-16.98,7.02L965.45,973.9c-9.36,9.36-9.36,24.6,0,33.97c4.54,4.54,10.57,7.03,16.98,7.03
				c6.41,0,12.45-2.5,16.98-7.03l531.02-531.02c9.36-9.36,9.36-24.6,0-33.97C1525.75,438.19,1519.6,435.85,1513.45,435.85z"/>
		</g>
	</g>
	<g>
		<g>
			<path class="st1" d="M1370.93,1137.89c-7.68,0-14.91-2.99-20.34-8.43c-11.22-11.22-11.22-29.47,0-40.68l531.02-531.02
				c11.22-11.22,29.47-11.22,40.68,0c11.22,11.22,11.22,29.47,0,40.68l-531.02,531.02
				C1385.84,1134.89,1378.62,1137.89,1370.93,1137.89z M1901.95,554.09c-6.15,0-12.3,2.34-16.98,7.02l-531.02,531.02
				c-9.36,9.36-9.36,24.6,0,33.97c4.54,4.54,10.57,7.03,16.98,7.03s12.45-2.5,16.98-7.03l531.02-531.02c9.36-9.36,9.36-24.6,0-33.97
				C1914.26,556.43,1908.1,554.09,1901.95,554.09z"/>
		</g>
	</g>
	<g>
		<g>
			<path class="st1" d="M1221.02,963.69c-14.73,0-28.59-5.74-39-16.16c-21.51-21.51-21.51-56.5,0-78.01l531.02-531.02
				c21.51-21.51,56.5-21.51,78.01,0c21.51,21.51,21.51,56.5,0,78.01l-531.02,531.02C1249.61,957.96,1235.76,963.69,1221.02,963.69z
				 M1752.04,327.13c-12.91,0-25.82,4.91-35.65,14.74l-531.02,531.02c-19.65,19.65-19.65,51.64,0,71.29
				c9.52,9.52,22.18,14.76,35.65,14.76s26.12-5.24,35.65-14.76l531.02-531.02c19.65-19.65,19.65-51.64,0-71.29
				C1777.86,332.04,1764.95,327.13,1752.04,327.13z"/>
		</g>
	</g>
	<g>
		<g>
			<path class="st1" d="M1639.08,1050.26c-14.73,0-28.59-5.74-39-16.16c-21.51-21.51-21.51-56.5,0-78.01l531.02-531.02
				c21.51-21.51,56.5-21.51,78.01,0c21.51,21.51,21.51,56.5,0,78.01l-531.02,531.02
				C1667.67,1044.52,1653.82,1050.26,1639.08,1050.26z M2170.1,413.69c-12.91,0-25.82,4.91-35.65,14.74l-531.02,531.02
				c-19.65,19.66-19.65,51.64,0,71.29c9.52,9.52,22.18,14.76,35.65,14.76s26.12-5.24,35.65-14.76l531.02-531.02
				c19.65-19.65,19.65-51.64,0-71.29C2195.92,418.61,2183.01,413.69,2170.1,413.69z"/>
		</g>
	</g>
</g>
</svg>
