<?xml version="1.0" encoding="UTF-8"?>
<svg id="Camada_2" data-name="Camada 2" xmlns="http://www.w3.org/2000/svg" viewBox="0 0 1645.09 1402.49">
  <defs>
    <style>
      .cls-1 {
        fill: #fff;
      }

      .cls-2 {
        opacity: .3;
      }

      .cls-3 {
        opacity: .25;
      }
    </style>
  </defs>
  <g id="Camada_2-2" data-name="Camada 2">
    <g id="Layer_1" data-name="Layer 1" class="cls-3">
      <g class="cls-2">
        <path class="cls-1" d="M329.99,1087.12c-5.06,0-10.13-1.93-13.99-5.79-7.73-7.73-7.73-20.25,0-27.98l398.05-398.05c7.73-7.73,20.25-7.73,27.98,0s7.73,20.25,0,27.98l-398.05,398.05c-3.86,3.86-8.92,5.79-13.99,5.79Z"/>
      </g>
      <g class="cls-2">
        <path class="cls-1" d="M19.79,1000.07c-5.06,0-10.13-1.93-13.99-5.79-7.73-7.73-7.73-20.25,0-27.98l398.05-398.05c7.73-7.73,20.25-7.73,27.98,0s7.73,20.25,0,27.98L33.78,994.28c-3.87,3.86-8.93,5.79-13.99,5.79Z"/>
      </g>
      <g class="cls-2">
        <path class="cls-1" d="M252.44,558.5c-5.06,0-10.13-1.93-13.99-5.79-7.73-7.73-7.73-20.25,0-27.98L636.5,126.68c7.73-7.73,20.25-7.73,27.98,0s7.73,20.25,0,27.98l-398.05,398.05c-3.86,3.86-8.92,5.79-13.99,5.79h0Z"/>
      </g>
      <g class="cls-2">
        <path class="cls-1" d="M543.66,647.13c-5.06,0-10.13-1.93-13.99-5.79-7.73-7.73-7.73-20.25,0-27.98L927.72,215.31c7.73-7.73,20.25-7.73,27.98,0s7.73,20.25,0,27.98l-398.05,398.05c-3.87,3.86-8.93,5.79-13.99,5.79h0Z"/>
      </g>
      <g class="cls-2">
        <path class="cls-1" d="M431.29,516.56c-10.13,0-20.25-3.86-27.98-11.59-15.45-15.45-15.45-40.5,0-55.96L801.36,50.96c15.45-15.45,40.5-15.45,55.96,0,15.45,15.45,15.45,40.5,0,55.96L459.27,504.97c-7.73,7.73-17.86,11.59-27.98,11.59h0Z"/>
      </g>
      <g class="cls-2">
        <path class="cls-1" d="M744.66,581.45c-10.13,0-20.25-3.86-27.98-11.59-15.45-15.45-15.45-40.5,0-55.96L1114.73,115.85c15.45-15.45,40.5-15.45,55.96,0,15.45,15.45,15.45,40.5,0,55.96l-398.05,398.05c-7.73,7.73-17.85,11.59-27.98,11.59Z"/>
      </g>
      <g class="cls-2">
        <path class="cls-1" d="M505.74,1402.49c-7.68,0-14.91-2.99-20.34-8.43-11.22-11.22-11.22-29.47,0-40.68L1016.42,822.36c11.22-11.22,29.47-11.22,40.68,0,11.22,11.22,11.22,29.47,0,40.68l-531.02,531.02c-5.43,5.44-12.65,8.43-20.34,8.43h0Zm531.02-583.8c-6.15,0-12.3,2.34-16.98,7.02L488.76,1356.73c-9.36,9.36-9.36,24.6,0,33.97,4.54,4.54,10.57,7.03,16.98,7.03s12.45-2.5,16.98-7.03l531.02-531.02c9.36-9.36,9.36-24.6,0-33.97-4.68-4.67-10.83-7.02-16.98-7.02h0Z"/>
        <path class="cls-1" d="M91.9,1286.36c-7.68,0-14.91-2.99-20.34-8.43-11.22-11.22-11.22-29.47,0-40.68L602.58,706.23c11.22-11.22,29.47-11.22,40.68,0,11.22,11.22,11.22,29.47,0,40.68L112.25,1277.93c-5.44,5.44-12.66,8.43-20.35,8.43h0ZM622.93,702.57c-6.15,0-12.3,2.34-16.98,7.02L74.93,1240.61c-9.36,9.36-9.36,24.6,0,33.97,4.54,4.54,10.57,7.03,16.98,7.03s12.45-2.5,16.98-7.03L639.91,743.56c9.36-9.36,9.36-24.6,0-33.97-4.68-4.68-10.84-7.02-16.98-7.02h0Z"/>
        <path class="cls-1" d="M402.28,697.28c-7.68,0-14.91-2.99-20.34-8.43-11.22-11.22-11.22-29.47,0-40.68L912.96,117.15c11.22-11.22,29.47-11.22,40.68,0,11.22,11.22,11.22,29.47,0,40.68L422.62,688.85c-5.43,5.43-12.65,8.43-20.34,8.43h0ZM933.3,113.48c-6.15,0-12.3,2.34-16.98,7.02L385.3,651.53c-9.36,9.36-9.36,24.6,0,33.97,4.54,4.54,10.57,7.03,16.98,7.03s12.45-2.5,16.98-7.03L950.28,154.48c9.36-9.36,9.36-24.6,0-33.97-4.68-4.69-10.83-7.03-16.98-7.03h0Z"/>
        <path class="cls-1" d="M790.78,815.52c-7.68,0-14.91-2.99-20.34-8.43-11.22-11.22-11.22-29.47,0-40.68L1301.46,235.39c11.22-11.22,29.47-11.22,40.68,0,11.22,11.22,11.22,29.47,0,40.68L811.12,807.09c-5.43,5.43-12.65,8.43-20.34,8.43h0ZM1321.8,231.72c-6.15,0-12.3,2.34-16.98,7.02L773.8,769.76c-9.36,9.36-9.36,24.6,0,33.97,4.54,4.54,10.57,7.03,16.98,7.03s12.45-2.5,16.98-7.03L1338.78,272.71c9.36-9.36,9.36-24.6,0-33.97-4.67-4.68-10.83-7.02-16.98-7.02h0Z"/>
        <path class="cls-1" d="M640.87,641.32c-14.73,0-28.59-5.74-39-16.16-21.51-21.51-21.51-56.5,0-78.01L1132.89,16.13c21.51-21.51,56.5-21.51,78.01,0s21.51,56.5,0,78.01L679.88,625.16c-10.42,10.43-24.27,16.16-39.01,16.16h0ZM1171.89,4.76c-12.91,0-25.82,4.91-35.65,14.74L605.22,550.52c-19.65,19.65-19.65,51.64,0,71.29,9.52,9.52,22.18,14.76,35.65,14.76s26.12-5.24,35.65-14.76L1207.54,90.79c19.65-19.65,19.65-51.64,0-71.29-9.83-9.83-22.74-14.74-35.65-14.74Z"/>
        <path class="cls-1" d="M1058.93,727.89c-14.73,0-28.59-5.74-39-16.16-21.51-21.51-21.51-56.5,0-78.01L1550.95,102.7c21.51-21.51,56.5-21.51,78.01,0s21.51,56.5,0,78.01l-531.02,531.02c-10.42,10.42-24.27,16.16-39.01,16.16h0ZM1589.95,91.32c-12.91,0-25.82,4.91-35.65,14.74L1023.28,637.08c-19.65,19.66-19.65,51.64,0,71.29,9.52,9.52,22.18,14.76,35.65,14.76s26.12-5.24,35.65-14.76L1625.6,177.35c19.65-19.65,19.65-51.64,0-71.29-9.83-9.82-22.74-14.74-35.65-14.74Z"/>
      </g>
    </g>
  </g>
</svg>