<?xml version="1.0" encoding="utf-8"?>
<!-- Generator: Adobe Illustrator 27.0.1, SVG Export Plug-In . SVG Version: 6.00 Build 0)  -->
<svg version="1.1" id="Camada_2_00000145760081085666754460000004241964926388918961_"
	 xmlns="http://www.w3.org/2000/svg" xmlns:xlink="http://www.w3.org/1999/xlink" x="0px" y="0px" viewBox="0 0 70 72"
	 style="enable-background:new 0 0 70 72;" xml:space="preserve">
<style type="text/css">
	.st0{fill:#FFFFFF;}
</style>
<g id="Camada_2-2">
	<g id="Layer_1">
		<g>
			<g>
				<path class="st0" d="M17.8,67c-0.2-0.1-0.3-0.1-0.5,0h0c-0.1,0.1-0.3,0.2-0.4,0.2c-0.4,0.1-0.9,0.1-1.3-0.1
					c-0.2-0.1-0.5-0.3-0.6-0.4c-0.2-0.2-0.3-0.4-0.4-0.7c-0.1-0.3-0.2-0.5-0.2-0.8s0.1-0.6,0.2-0.8c0.1-0.3,0.3-0.5,0.4-0.7
					c0.2-0.2,0.4-0.3,0.6-0.4c0.4-0.2,0.8-0.2,1.3-0.1c0.2,0,0.3,0.1,0.5,0.2c0,0,0.1,0,0.1,0c0.2,0,0.3,0,0.4,0
					c0.1,0,0.2-0.1,0.2-0.2c0.1-0.1,0.1-0.3,0-0.4c0-0.1-0.1-0.2-0.3-0.3c-0.2-0.1-0.5-0.2-0.7-0.3c-0.7-0.2-1.4-0.1-1.9,0.1
					c-0.4,0.2-0.7,0.4-1,0.7c-0.3,0.3-0.5,0.6-0.7,1c-0.2,0.4-0.2,0.8-0.2,1.2s0.1,0.8,0.2,1.2s0.4,0.7,0.7,1c0.3,0.3,0.6,0.5,1,0.7
					c0.4,0.2,0.8,0.2,1.2,0.2c0.2,0,0.5,0,0.8-0.1c0.3-0.1,0.5-0.2,0.7-0.3c0.1-0.1,0.2-0.2,0.2-0.3c0-0.1,0-0.3,0-0.4
					C18,67.1,17.9,67,17.8,67L17.8,67L17.8,67z"/>
				<path class="st0" d="M23.3,66c0.1-0.1,0.3-0.2,0.4-0.3c0.1-0.1,0.1-0.1,0.1-0.2v0.1l0.2-0.4c0.1-0.1,0.1-0.2,0.1-0.4
					c0-0.1,0.1-0.2,0.1-0.3c0-0.1,0-0.2,0-0.2v-0.1c0-0.4-0.1-0.8-0.3-1.1c-0.2-0.3-0.4-0.6-0.8-0.7c-0.1-0.1-0.2-0.1-0.3-0.1
					s-0.2-0.1-0.3-0.1c-0.1,0-0.2,0-0.2,0c-0.1,0-0.1,0-0.1,0h-1.4c-0.1,0-0.3,0.1-0.4,0.2c-0.1,0.1-0.2,0.2-0.2,0.4v5.2
					c0,0.1,0,0.3,0.2,0.4c0.2,0.2,0.5,0.2,0.7,0c0.1-0.1,0.2-0.2,0.2-0.4v-1.5h0.8l1.1,1.8c0.1,0.2,0.3,0.3,0.5,0.3
					c0.1,0,0.2,0,0.3-0.1c0.1-0.1,0.1-0.1,0.2-0.2c0-0.1,0.1-0.2,0.1-0.3c0,0,0-0.1,0-0.1h0L23.3,66L23.3,66L23.3,66z M23.2,64.3
					c0,0.1,0,0.1,0,0.2c0,0.1,0,0.1-0.1,0.2c-0.2,0.3-0.5,0.5-0.9,0.5h-0.9v-2h0.9c0.1,0,0.1,0,0.2,0c0.1,0,0.1,0,0.2,0
					c0.1,0,0.1,0,0.2,0.1c0.3,0.2,0.5,0.5,0.5,0.9v0.1C23.2,64.2,23.2,64.3,23.2,64.3L23.2,64.3L23.2,64.3z"/>
				<path class="st0" d="M26.7,62.2c-0.1,0.1-0.2,0.2-0.2,0.4v5.2c0,0.1,0,0.3,0.2,0.4c0.1,0.1,0.2,0.2,0.4,0.2
					c0.1,0,0.3-0.1,0.4-0.2c0.1-0.1,0.2-0.2,0.2-0.4v-5.2c0-0.1-0.1-0.3-0.2-0.4C27.2,62,26.9,62,26.7,62.2L26.7,62.2L26.7,62.2z"/>
				<path class="st0" d="M32.9,62.4c0-0.1-0.1-0.2-0.2-0.2c-0.2-0.1-0.4-0.1-0.6,0c-0.1,0.1-0.1,0.1-0.2,0.2c-0.3,0.8-0.7,1.7-1,2.6
					s-0.7,1.8-1,2.6c0,0.1,0,0.1,0,0.2c0,0.1,0,0.3,0.1,0.4c0.1,0.1,0.2,0.2,0.4,0.2c0.1,0,0.2,0,0.3-0.1c0.1-0.1,0.1-0.1,0.2-0.2
					l0.4-1h2.3l0.4,1c0,0.1,0.1,0.2,0.2,0.2c0.1,0.1,0.2,0.1,0.3,0.1c0.2,0,0.3-0.1,0.4-0.2c0.1-0.1,0.1-0.2,0.1-0.4
					c0-0.1,0-0.1,0-0.2L32.9,62.4L32.9,62.4L32.9,62.4z M33.1,65.9h-1.5l0.7-1.9L33.1,65.9z"/>
				<path class="st0" d="M39.6,62h-3c-0.1,0-0.3,0.1-0.4,0.2C36,62.3,36,62.4,36,62.6c0,0.1,0.1,0.3,0.2,0.4
					c0.1,0.1,0.2,0.2,0.4,0.2h1v4.7c0,0.1,0,0.3,0.2,0.4c0.1,0.1,0.2,0.2,0.4,0.2c0.1,0,0.3-0.1,0.4-0.2c0.1-0.1,0.2-0.2,0.2-0.4
					v-4.7h1c0.1,0,0.3-0.1,0.4-0.2c0.1-0.1,0.2-0.2,0.2-0.4s-0.1-0.3-0.2-0.4C39.8,62.1,39.7,62,39.6,62z"/>
				<path class="st0" d="M42.5,62.2c-0.1,0.1-0.2,0.2-0.2,0.4v5.2c0,0.1,0,0.3,0.2,0.4c0.1,0.1,0.2,0.2,0.4,0.2
					c0.1,0,0.3-0.1,0.4-0.2c0.1-0.1,0.2-0.2,0.2-0.4v-5.2c0-0.1-0.1-0.3-0.2-0.4C43,62,42.7,62,42.5,62.2L42.5,62.2L42.5,62.2z"/>
				<path class="st0" d="M50.2,62c-0.1,0-0.2,0-0.3,0.1c-0.1,0.1-0.2,0.1-0.2,0.3l-1.5,4l-1.5-3.9c0-0.1-0.1-0.2-0.2-0.3
					c-0.1-0.1-0.2-0.1-0.3-0.1c-0.2,0-0.3,0.1-0.4,0.2c-0.1,0.1-0.1,0.2-0.1,0.4c0,0.1,0,0.1,0,0.2l2,5.2c0,0.1,0.1,0.2,0.2,0.2
					c0.1,0.1,0.2,0.1,0.3,0.1c0.1,0,0.2,0,0.3-0.1c0.1-0.1,0.1-0.1,0.2-0.2c0.3-0.8,0.7-1.7,1-2.6c0.4-0.9,0.7-1.8,1-2.6
					c0-0.1,0-0.1,0-0.2c0-0.1,0-0.3-0.1-0.4C50.5,62.1,50.4,62,50.2,62L50.2,62z"/>
				<path class="st0" d="M58,64c-0.2-0.4-0.4-0.7-0.6-1c-0.3-0.3-0.6-0.5-0.9-0.7c-0.7-0.3-1.6-0.3-2.3,0c-0.4,0.2-0.7,0.4-0.9,0.7
					c-0.3,0.3-0.5,0.6-0.6,1c-0.2,0.4-0.2,0.8-0.2,1.2c0,0.4,0.1,0.8,0.2,1.2c0.2,0.4,0.4,0.7,0.6,1c0.3,0.3,0.6,0.5,0.9,0.7
					c0.4,0.2,0.7,0.3,1.1,0.3c0.4,0,0.8-0.1,1.1-0.3c0.4-0.2,0.7-0.4,0.9-0.7s0.5-0.6,0.6-1c0.2-0.4,0.2-0.8,0.2-1.2
					C58.2,64.7,58.1,64.3,58,64L58,64L58,64z M57.2,65.2c0,0.3,0,0.6-0.1,0.8c-0.1,0.3-0.2,0.5-0.4,0.7c-0.2,0.2-0.4,0.3-0.6,0.4
					c-0.4,0.2-1,0.2-1.5,0c-0.2-0.1-0.4-0.3-0.6-0.4c-0.2-0.2-0.3-0.4-0.4-0.7s-0.1-0.5-0.1-0.8s0-0.6,0.1-0.8
					c0.1-0.3,0.2-0.5,0.4-0.7c0.2-0.2,0.4-0.3,0.6-0.4c0.2-0.1,0.5-0.2,0.7-0.2c0.3,0,0.5,0.1,0.7,0.2c0.2,0.1,0.4,0.3,0.6,0.4
					c0.2,0.2,0.3,0.4,0.4,0.7C57.1,64.6,57.2,64.9,57.2,65.2L57.2,65.2L57.2,65.2z"/>
			</g>
			<path class="st0" d="M65.7,8.1c-2-4.2-6.2-5.1-8.5-4.9H34.1c1.2,1,2.3,2.2,3.1,3.9c0.2,0.5,0.4,1,0.6,1.5h19.5
				c0.6,0,2.7-0.2,3.7,1.8c0.2,0.4,0.9,1.9-2.9,6.1c-3.6,4.2-34.9,35.8-35.3,36.1c-1,1-1,2.7,0,3.8c0.5,0.5,1.2,0.8,1.9,0.8
				s1.3-0.3,1.8-0.8c1.4-1.4,31.8-32.1,35.5-36.4C65.4,16.2,67.9,12.8,65.7,8.1L65.7,8.1L65.7,8.1z"/>
			<path class="st0" d="M34.8,8.1c-2-4.2-5.6-4.9-8.5-4.9L8,3.2C4.8,3.2,3,5.5,3,9.1l0,57c0,1.5,1.2,2.7,2.6,2.7s2.6-1.2,2.6-2.7
				V43.7c1.9-1.9,19.4-19.4,23-23.6C34.6,16.2,37,12.8,34.8,8.1L34.8,8.1z M27.2,16.6c-2.6,3-13.3,13.8-19.1,19.6V11.8
				c0-1,0.3-3.2,2.8-3.2h15.6c0.2,0,2.8-0.2,3.4,1.7C30.3,11,30.9,12.3,27.2,16.6z"/>
		</g>
	</g>
</g>
</svg>
