<?xml version="1.0" encoding="UTF-8"?>
<svg id="Camada_2" data-name="Camada 2" xmlns="http://www.w3.org/2000/svg" viewBox="0 0 217.22 217.22">
  <defs>
    <style>
      .cls-1 {
        fill: #893094;
      }

      .cls-2 {
        fill: #fff;
        fill-rule: evenodd;
      }
    </style>
  </defs>
  <g id="Shape_5" data-name="Shape 5">
    <path class="cls-2" d="M108.61,217.22c59.99,0,108.61-48.62,108.61-108.61S168.59,0,108.61,0,0,48.62,0,108.61c0,59.98,48.63,108.61,108.61,108.61Z"/>
    <g>
      <path class="cls-1" d="M78.19,65.1c0,.67,.27,1.31,.74,1.78s1.11,.74,1.78,.74h4.86c.44,0,.88-.04,1.31-.13,1.93,5.99,6.33,10.88,12.09,13.41s12.34,2.47,18.05-.16,10.03-7.6,11.85-13.62c.45,.09,.9,.13,1.36,.13h4.74c.67,0,1.31-.27,1.78-.74s.74-1.11,.74-1.78v-9.4c-.01-.74-.35-1.45-.93-1.91-2.1-8.69-8.02-15.97-16.1-19.79-8.08-3.83-17.46-3.79-25.52,.09s-13.92,11.2-15.97,19.9c-.51,.47-.8,1.14-.81,1.84l.03,9.64Zm5.03-2.52v-4.56h2.24c.6,.01,1.17,.27,1.57,.71,.4,.44,.61,1.03,.57,1.63,0,1.18-.96,2.14-2.14,2.14l-2.24,.08Zm24.59,15.12c-3.81-.01-7.51-1.31-10.49-3.67-2.99-2.37-5.09-5.67-5.98-9.37,.92-1.29,1.41-2.83,1.41-4.41,0-1.45-.44-2.86-1.26-4.06,1.23-4.9,4.59-9,9.16-11.16,4.57-2.16,9.87-2.16,14.44,0,4.57,2.16,7.93,6.26,9.16,11.16-.72,1.15-1.11,2.49-1.11,3.85,0,1.5,.48,2.97,1.36,4.18-.83,3.82-2.94,7.23-5.97,9.68-3.04,2.45-6.82,3.79-10.73,3.79h.01Zm24.61-15.48h-2.19c-.48-.01-.94-.19-1.31-.5-.47-.42-.74-1.03-.73-1.66,0-1.18,.96-2.14,2.14-2.14h2.04c.11,.93,.17,1.86,.18,2.8l-.13,1.5Zm-24.63-26.23c5.16,.01,10.18,1.64,14.36,4.66,4.18,3.02,7.31,7.27,8.94,12.16h-.91c-.59,.01-1.17,.1-1.74,.25-2.06-5.72-6.4-10.34-11.99-12.74s-11.93-2.38-17.5,.06-9.88,7.09-11.9,12.83c-.5-.11-1-.17-1.51-.18h-1.16c1.6-4.95,4.73-9.26,8.93-12.32,4.21-3.05,9.27-4.71,14.48-4.72h0Z"/>
      <path class="cls-1" d="M57.63,168.38v5.54c.05,1.84,.82,3.59,2.13,4.88,1.32,1.29,3.08,2.01,4.92,2.03h86.07c1.84-.01,3.61-.74,4.92-2.03s2.08-3.04,2.13-4.88v-5.54l6.73-53.71v-.23h0c.08-2.25-.77-4.43-2.34-6.05-1.54-1.61-3.67-2.52-5.9-2.52h-7.56c-1.67-5.97-5.24-11.23-10.18-14.98-4.93-3.75-10.96-5.79-17.16-5.8h-27.41c-6.2,.01-12.22,2.05-17.16,5.8-4.93,3.75-8.51,9.01-10.18,14.98h-7.56c-2.23,0-4.36,.91-5.89,2.52-1.61,1.68-2.45,3.95-2.32,6.27l6.76,53.72h0Zm93.21,7.41H64.81c-1.09-.01-1.98-.88-2.02-1.96v-3.22h90.06v3.25h0c-.05,1.11-.98,1.97-2.09,1.94h.08Zm-34.36-85.66c-.72,2.52-2.5,4.6-4.88,5.7s-5.12,1.1-7.5,0-4.16-3.18-4.88-5.7h17.26Zm-22.47,0c.75,4.39,3.54,8.17,7.53,10.18,3.98,2.01,8.68,2.01,12.66,0s6.77-5.78,7.53-10.18c4.84,.02,9.55,1.55,13.48,4.37s6.9,6.78,8.48,11.35H71.97c1.58-4.58,4.54-8.55,8.48-11.37,3.93-2.82,8.65-4.35,13.49-4.38l.07,.03Zm-37.16,21.72c.59-.61,1.41-.96,2.27-.96h97.34c.85,0,1.67,.34,2.27,.96,.6,.61,.94,1.43,.93,2.29l-6.42,51.39H62.35l-6.42-51.29c-.04-.89,.29-1.76,.92-2.39h0Z"/>
      <path class="cls-1" d="M98.54,142.54l-1.31,7.71c-.15,.94,.24,1.88,1,2.43,.77,.56,1.78,.64,2.62,.21l6.93-3.55,6.9,3.63c.85,.44,1.87,.37,2.65-.19,.77-.56,1.16-1.51,1.01-2.45l-1.31-7.71,5.57-5.44h0c.69-.67,.95-1.67,.65-2.59s-1.08-1.58-2.04-1.72l-7.76-1.16-3.45-7c-.43-.85-1.3-1.4-2.25-1.4s-1.83,.54-2.25,1.4l-3.43,7-7.71,1.13c-.95,.14-1.74,.81-2.04,1.72-.29,.92-.04,1.92,.65,2.59l5.57,5.39Zm5.57-6.07h0c.82-.12,1.53-.64,1.89-1.39l1.76-3.6,1.76,3.6c.36,.74,1.07,1.26,1.89,1.39l3.98,.58-2.87,2.82c-.59,.57-.86,1.4-.73,2.22l.68,3.98-3.53-1.76c-.73-.39-1.61-.39-2.34,0l-3.55,1.86,.68-3.98h0c.13-.81-.14-1.64-.73-2.22l-2.87-2.82,3.98-.68Z"/>
    </g>
  </g>
</svg>