<?xml version="1.0" encoding="utf-8"?>
<!-- Generator: Adobe Illustrator 27.1.1, SVG Export Plug-In . SVG Version: 6.00 Build 0)  -->
<svg version="1.1" id="Shape_5" xmlns="http://www.w3.org/2000/svg" xmlns:xlink="http://www.w3.org/1999/xlink" x="0px" y="0px"
	 viewBox="0 0 1820.77 1135.24" style="enable-background:new 0 0 1820.77 1135.24;" xml:space="preserve">
<style type="text/css">
	.st0{fill:#883093;}
	.st1{fill:#FFFFFF;}
</style>
<g>
	<path class="st0" d="M1176.36,304.86c0,40.06-32.48,72.54-72.54,72.54c-40.06,0-72.54-32.48-72.54-72.54s32.48-72.54,72.54-72.54
		C1143.89,232.31,1176.36,264.79,1176.36,304.86"/>
</g>
<g>
	<path class="st1" d="M1103.67,335.21c1.3-2.02,2.63-4.67,4.31-7.34c1.64-3.35,3.67-6.64,5.68-10.31
		c2.97-6.01,6.32-12.01,8.34-17.64c1.65-4.04,2.66-8.02,2.66-10.37c0-1.33,0-2.66-0.35-3.98c-0.32-1.33-0.66-2.66-0.98-3.99
		c-0.69-1.01-1.33-2.34-1.99-3.35c-1.01-1.33-1.67-2.34-2.69-3.29c-1.01-1.01-2.02-1.7-3.35-2.39c-0.98-0.96-2.34-1.65-3.67-1.97
		c-0.98-0.69-2.34-1.01-3.99-1.33c-1.36,0-2.69-0.32-3.99-0.32c-1.38,0-2.68,0.32-4.01,0.32c-1.35,0.32-2.68,0.64-4.01,1.33
		c-1.33,0.32-2.66,1.01-3.69,1.97c-0.98,0.69-2.31,1.38-3.32,2.39c-0.66,0.95-1.65,1.97-2.66,3.29c-0.66,1.01-1.35,2.34-1.67,3.35
		c-0.66,1.33-0.98,2.66-1.33,3.99c-0.35,1.33-0.35,2.66-0.35,3.98c0,2.66,1.33,7.02,3.35,12.01c2,5,4.99,10.64,7.65,16
		c2.34,4.31,5,8.67,7.02,12.33C1101.66,331.86,1102.98,333.56,1103.67,335.21 M1111.01,284.23c-1.7-2.02-4.36-3.03-7.33-3.03
		c-3.03,0-5.68,1.01-7.36,3.03c-1.99,2.02-3,4.31-3,7.34c0,2.98,1.01,5.32,3,7.33c1.68,1.64,4.33,2.98,7.36,2.98
		c2.98,0,5.64-1.33,7.33-2.98c1.97-2.02,3.33-4.36,3.33-7.33C1114.34,288.54,1112.98,286.26,1111.01,284.23 M1103.67,276.9
		c3.99,0,7.65,1.65,10.31,4.3c2.65,2.71,4.36,6.38,4.36,10.37c0,3.99-1.71,7.65-4.36,10.31c-2.66,2.34-6.33,3.99-10.31,3.99
		c-4.01,0-7.71-1.65-10.36-3.99c-2.66-2.66-4.33-6.32-4.33-10.31c0-3.99,1.67-7.65,4.33-10.37
		C1095.97,278.55,1099.66,276.9,1103.67,276.9 M1131.34,289.55c0,13.98-24.69,52.67-25.04,53.31l-0.98,2.02l-1.65,2.29l-1.7-2.66
		l-0.98-1.65l-0.35-0.32c-0.66-1.33-6.67-10.68-12.36-21.31c-5.98-11.32-11.98-24.66-11.98-31.68c0-1.64,0-3.67,0.32-5.32
		c0.35-1.64,1.01-3.35,1.67-4.99c0.66-1.65,1.67-2.98,2.34-4.68c1.01-1.33,2.34-2.66,3.67-3.99c1.33-1.33,2.68-2.34,3.98-3.35
		c1.67-1.01,3-1.96,5.02-2.66c1.64-0.64,3.35-1.01,4.99-1.32c1.67-0.32,3.67-0.69,5.37-0.69c1.97,0,3.67,0.37,5.32,0.69
		c2.02,0.32,3.67,0.69,5.35,1.32c1.67,0.69,3,1.65,4.65,2.66c1.67,1.01,3.03,2.02,4.01,3.35c2.69,2.34,4.68,5.32,6.01,8.67
		c0.66,1.65,1.33,2.98,1.67,4.68c0,0.64,0.32,1.65,0.32,2.66h0.35v1.97V289.55z"/>
</g>
<g>
	<g>
		<path class="st0" d="M1180.52,768.91c0,40.06-32.48,72.54-72.54,72.54c-40.06,0-72.54-32.48-72.54-72.54s32.48-72.54,72.54-72.54
			C1148.04,696.37,1180.52,728.85,1180.52,768.91"/>
	</g>
	<g>
		<path class="st1" d="M1140.7,774.56h-10.31c-1.22-12.77-4.54-16.21-10.18-20.98l-0.15-0.13c3.19-3.14,5.17-7.51,5.17-12.34
			c0-9.56-7.75-17.32-17.32-17.32c-9.57,0-17.32,7.75-17.32,17.32c0,4.86,2,9.24,5.22,12.38l-0.1,0.08
			c-5.61,4.75-8.92,8.18-10.16,20.98h-10.32c-3.72,0-6.76,3.03-6.76,6.76v0.58c0,3.35,2.45,6.11,5.64,6.65v25.5h5.64v-25.38h56.41
			v25.38h5.64v-25.5c3.19-0.54,5.64-3.3,5.64-6.65v-0.58C1147.46,777.59,1144.43,774.56,1140.7,774.56 M1107.93,729.43
			c6.44,0,11.68,5.24,11.68,11.68c0,6.44-5.24,11.68-11.68,11.68c-6.44,0-11.68-5.24-11.68-11.68
			C1096.24,734.67,1101.49,729.43,1107.93,729.43 M1100.87,774.56h-9.66c1.07-10.66,3.52-12.75,8.16-16.68l1.26-1.07
			c0.24,0.11,0.48,0.23,0.72,0.33l0.16,0.23c0.02,0,0.04,0,0.06,0c3.9,1.01,7.75,1.29,11.64,0.1h0.01c0.15-0.07,0.31-0.13,0.46-0.21
			c0.37-0.23,0.72-0.26,1.05-0.22c0.19-0.08,0.37-0.16,0.55-0.25l1.3,1.1c4.66,3.95,7.12,6.05,8.17,16.68h-9.77 M1141.82,781.9
			c0,0.62-0.5,1.12-1.12,1.12h-65.46c-0.62,0-1.12-0.5-1.12-1.12v-0.58c0-0.62,0.5-1.12,1.12-1.12h65.46c0.62,0,1.12,0.5,1.12,1.12
			V781.9z"/>
	</g>
</g>
<g>
	<path class="st0" d="M1550.47,768.91c0,40.06-32.48,72.54-72.54,72.54c-40.06,0-72.54-32.48-72.54-72.54
		c0-40.06,32.48-72.54,72.54-72.54C1517.99,696.37,1550.47,728.85,1550.47,768.91"/>
</g>
<g>
	<path class="st1" d="M1522.22,762.4l-22.15-22.15c-0.56-0.56-1.28-0.83-2.01-0.83c-0.73,0-1.46,0.28-2.01,0.83l-10.07,10.07
		c-1.11,1.11-1.11,2.91,0,4.03l2.86,2.86l-4.14,4.14c-3.69-2.74-8.66-2.97-12.55-0.67l-4.3-4.3l2.03-2.03
		c1.11-1.12,1.11-2.92,0-4.03l-10.07-10.07c-0.56-0.56-1.28-0.83-2.01-0.83s-1.46,0.28-2.01,0.83l-22.15,22.15
		c-1.11,1.11-1.11,2.92,0,4.03l10.07,10.07c0.56,0.56,1.28,0.83,2.01,0.83s1.46-0.28,2.01-0.83l2.04-2.03l4.58,4.58
		c-1.21,4.64,3.24,11.3,8.5,16.56c3.11,3.1,6.42,5.64,9.33,7.12c2.26,1.16,4.09,1.59,5.56,1.59c1.98,0,3.32-0.79,4.2-1.66l4.03-4.03
		l7.62-7.62c0.15,0.01,0.3,0.05,0.45,0.05c2.18,0,4.36-0.83,6.02-2.49c1.61-1.61,2.5-3.75,2.5-6.02c0-1.81-0.58-3.52-1.62-4.96
		l4.14-4.14l3.06,3.06c0.56,0.56,1.28,0.83,2.01,0.83c0.73,0,1.46-0.28,2.01-0.83l10.07-10.07
		C1523.33,765.32,1523.33,763.51,1522.22,762.4 M1439.6,764.41l18.19-18.19l6.11,6.12l-1.95,1.95c-0.03,0.03-0.08,0.04-0.12,0.07
		c-0.03,0.04-0.04,0.08-0.08,0.12l-13.9,13.9c-0.03,0.03-0.08,0.04-0.11,0.07c-0.03,0.03-0.05,0.08-0.08,0.11l-1.96,1.96
		L1439.6,764.41z M1496.06,784.57c-1.08,1.08-2.82,1.09-3.95,0.07l-0.07-0.07l-0.01,0.01c-0.01-0.01-0.02-0.01-0.02-0.01l-6.04-6.04
		c-1.11-1.1-2.89-1.1-3.99,0c-1.1,1.1-1.1,2.89,0,3.99l6.04,6.04c0.01,0,0.02,0.01,0.02,0.01l-4.07,4.07l-6.06-6.06
		c-1.1-1.1-2.89-1.1-3.99,0c-1.1,1.1-1.1,2.89,0,3.99l6.06,6.06l-0.02,0.02h0l-1.98,1.98c-0.85,0.38-5.25-1.12-11.15-7.02
		c-5.89-5.89-7.39-10.31-7.05-11.11c0.53-0.53,0.82-1.25,0.82-2s-0.3-1.47-0.82-1.99l-6.04-6.04l10.11-10.11l6.04,6.04
		c0.01,0.01,0.03,0.01,0.03,0.02l-0.69,0.69c-1.65,1.65-1.65,4.33,0,5.98c0.83,0.82,1.91,1.24,2.99,1.24c1.08,0,2.17-0.42,2.99-1.24
		l5.7-5.7c0.36-0.36,0.59-0.77,0.8-1.2c0.08,0.07,0.17,0.13,0.25,0.21l14.09,14.09c0.54,0.54,0.84,1.27,0.84,2.03
		C1496.91,783.3,1496.61,784.02,1496.06,784.57 M1510.14,770.53l-18.19-18.19l6.11-6.12l18.19,18.19L1510.14,770.53z"/>
</g>
<g>
	<path class="st0" d="M813.11,768.91c0,40.06-32.48,72.54-72.54,72.54c-40.06,0-72.54-32.48-72.54-72.54
		c0-40.06,32.48-72.54,72.54-72.54C780.63,696.37,813.11,728.85,813.11,768.91"/>
</g>
<g>
	<path class="st0" d="M444.92,768.91c0,40.06-32.48,72.54-72.54,72.54s-72.54-32.48-72.54-72.54c0-40.06,32.48-72.54,72.54-72.54
		S444.92,728.85,444.92,768.91"/>
</g>
<g>
	<path class="st1" d="M381.48,737.83l-0.15-0.12c1.88-2.12,3.05-4.87,3.05-7.93c0-6.63-5.37-12.01-12-12.01s-12.01,5.38-12.01,12.01
		c0,3.05,1.18,5.81,3.05,7.93l-0.15,0.12c-4.37,3.48-6.88,5.93-7.71,15.96c0,1.29,0.54,3.14,3.1,4.62
		c3.01,1.74,8.36,2.61,13.71,2.61c5.34,0,10.69-0.87,13.7-2.61c2.56-1.48,3.1-3.32,3.09-4.82
		C388.36,743.76,385.85,741.31,381.48,737.83 M372.39,722.58c3.97,0,7.2,3.23,7.2,7.2c0,3.97-3.23,7.21-7.2,7.21
		c-3.97,0-7.21-3.23-7.21-7.21C365.18,725.81,368.42,722.58,372.39,722.58 M369.88,756.1c-5.71-0.31-8.96-1.6-9.48-2.36
		c0.69-8.02,2.33-9.32,5.88-12.15l1.13-0.91c0.17,0.08,2.4,0.95,4.74,0.95c2.43,0.01,4.99-0.85,5.21-0.95l1.13,0.91
		c3.55,2.82,5.19,4.13,5.89,12.15c-0.53,0.77-3.82,2.07-9.61,2.38C373.16,756.32,371.44,756.15,369.88,756.1"/>
</g>
<g>
	<path class="st1" d="M350.27,787.27l-0.15-0.12c1.88-2.11,3.05-4.88,3.05-7.93c0-6.63-5.37-12.01-12-12.01
		c-6.63,0-12.01,5.38-12.01,12.01c0,3.05,1.17,5.81,3.05,7.93l-0.15,0.12c-4.37,3.48-6.88,5.93-7.71,15.96
		c0,1.29,0.54,3.14,3.1,4.62c3.01,1.74,8.36,2.6,13.71,2.6c5.35,0,10.7-0.87,13.71-2.61c2.56-1.48,3.1-3.32,3.09-4.82
		C357.15,793.2,354.64,790.76,350.27,787.27 M341.17,772.02c3.97,0,7.2,3.23,7.2,7.2c0,3.97-3.23,7.21-7.2,7.21
		c-3.97,0-7.21-3.24-7.21-7.21C333.97,775.25,337.2,772.02,341.17,772.02 M338.67,805.54c-5.71-0.32-8.96-1.61-9.48-2.36
		c0.69-8.02,2.33-9.32,5.88-12.15l1.13-0.9c0.17,0.08,2.4,0.94,4.74,0.95c2.44,0,4.99-0.85,5.22-0.95l1.13,0.9
		c3.55,2.83,5.19,4.14,5.88,12.15c-0.52,0.77-3.82,2.07-9.61,2.37C341.95,805.77,340.22,805.59,338.67,805.54"/>
</g>
<g>
	<path class="st1" d="M412.7,787.27l-0.15-0.12c1.88-2.11,3.05-4.88,3.05-7.93c0-6.63-5.37-12.01-12-12.01s-12.01,5.38-12.01,12.01
		c0,3.05,1.17,5.81,3.05,7.93l-0.15,0.12c-4.37,3.48-6.88,5.93-7.71,15.96c0,1.29,0.54,3.14,3.1,4.62c3.01,1.74,8.36,2.6,13.71,2.6
		c5.35,0,10.7-0.87,13.71-2.61c2.56-1.48,3.1-3.32,3.09-4.82C419.58,793.2,417.06,790.76,412.7,787.27 M403.6,772.02
		c3.97,0,7.2,3.23,7.2,7.2c0,3.97-3.23,7.21-7.2,7.21c-3.97,0-7.21-3.24-7.21-7.21C396.39,775.25,399.63,772.02,403.6,772.02
		 M401.09,805.54c-5.71-0.32-8.96-1.61-9.48-2.36c0.69-8.02,2.33-9.32,5.88-12.15l1.13-0.9c0.17,0.08,2.4,0.94,4.74,0.95
		c2.44,0,4.99-0.85,5.21-0.95l1.13,0.9c3.55,2.83,5.19,4.14,5.88,12.15c-0.53,0.77-3.82,2.07-9.61,2.37
		C404.37,805.77,402.65,805.59,401.09,805.54"/>
</g>
<g>
	<path class="st1" d="M397.82,755.56c0,1.72-0.17,3.43-0.51,5.09c-0.31,1.53,0.68,3.02,2.21,3.33c0.19,0.03,0.38,0.06,0.57,0.06
		c1.31,0,2.49-0.92,2.76-2.27c0.42-2.04,0.62-4.13,0.62-6.22c0-9.87-4.53-18.94-12.45-24.88c-1.25-0.93-3.02-0.68-3.96,0.56
		c-0.93,1.25-0.68,3.02,0.57,3.96C394.1,740.06,397.82,747.48,397.82,755.56"/>
</g>
<g>
	<path class="st1" d="M386.27,782.53c-0.62-1.43-2.29-2.08-3.72-1.47c-0.82,0.36-1.67,0.69-2.54,0.95
		c-5.78,1.82-12.22,1.49-17.8-0.95c-1.43-0.63-3.09,0.03-3.72,1.46c-0.62,1.42,0.03,3.09,1.46,3.72c3.93,1.71,8.11,2.59,12.43,2.59
		c3.18,0,6.32-0.49,9.32-1.43c1.06-0.33,2.1-0.72,3.11-1.16C386.24,785.63,386.89,783.96,386.27,782.53"/>
</g>
<g>
	<path class="st1" d="M344.68,764.04c0.19,0,0.37-0.02,0.57-0.06c1.53-0.31,2.52-1.81,2.2-3.33c-0.34-1.66-0.51-3.38-0.51-5.09
		c0-8.07,3.71-15.49,10.18-20.35c1.25-0.94,1.5-2.71,0.56-3.95c-0.93-1.25-2.71-1.5-3.96-0.57c-7.9,5.94-12.43,15-12.43,24.87
		c0,2.1,0.21,4.19,0.62,6.22C342.19,763.11,343.37,764.04,344.68,764.04"/>
</g>
<g>
	<path class="st1" d="M784.84,748.81c0.07,1.01-0.22,2.03-0.59,2.96c-0.43,1.09-1,2.15-1.54,3.19c-1.04,2.01-2.2,4.34-1.87,6.66
		c0.33,2.33,2.11,4.23,3.67,5.86c0.81,0.85,1.65,1.7,2.37,2.63c0.62,0.79,1.18,1.69,1.4,2.68c0.11,0.49,0.13,0.99,0.06,1.49
		c-0.07,0.5-0.23,0.97-0.48,1.41c-0.49,0.89-1.28,1.59-2.1,2.17c-0.95,0.69-2,1.27-3.02,1.85c-1.95,1.13-4.2,2.46-5.17,4.6
		c-0.98,2.13-0.51,4.7-0.08,6.92c0.22,1.15,0.47,2.32,0.58,3.49c0.09,1,0.07,2.06-0.27,3.01c-0.17,0.48-0.42,0.91-0.75,1.29
		c-0.33,0.38-0.72,0.69-1.16,0.93c-0.89,0.48-1.94,0.65-2.94,0.7c-1.18,0.06-2.37-0.02-3.55-0.07c-2.25-0.11-4.86-0.2-6.83,1.07
		c-1.97,1.27-2.97,3.68-3.81,5.77c-0.44,1.09-0.86,2.21-1.41,3.25c-0.46,0.89-1.05,1.77-1.85,2.38c-0.4,0.31-0.85,0.53-1.33,0.67
		c-0.49,0.14-0.98,0.2-1.48,0.16c-1.01-0.08-1.97-0.51-2.85-1c-1.02-0.58-1.98-1.3-2.94-1.98c-1.84-1.31-3.98-2.79-6.33-2.79
		c-2.35,0-4.49,1.48-6.33,2.79c-0.96,0.68-1.92,1.4-2.94,1.98c-0.87,0.49-1.84,0.92-2.85,1c-0.5,0.04-1-0.01-1.48-0.16
		c-0.48-0.14-0.93-0.36-1.33-0.67c-0.81-0.61-1.39-1.49-1.86-2.38c-0.54-1.04-0.97-2.16-1.4-3.25c-0.84-2.1-1.84-4.5-3.81-5.77
		c-1.97-1.27-4.58-1.18-6.83-1.07c-1.17,0.06-2.36,0.13-3.54,0.07c-1-0.05-2.04-0.22-2.94-0.7c-0.45-0.24-0.83-0.55-1.16-0.93
		c-0.33-0.38-0.59-0.81-0.76-1.29c-0.35-0.95-0.36-2.01-0.27-3.01c0.1-1.17,0.35-2.34,0.58-3.49c0.43-2.22,0.89-4.78-0.09-6.92
		c-0.98-2.14-3.22-3.47-5.17-4.6c-1.02-0.59-2.07-1.17-3.02-1.85c-0.81-0.59-1.6-1.29-2.09-2.17c-0.25-0.44-0.41-0.91-0.48-1.41
		c-0.07-0.5-0.05-1,0.06-1.49c0.22-0.99,0.79-1.89,1.4-2.68c0.72-0.93,1.57-1.78,2.38-2.63c1.56-1.63,3.33-3.54,3.67-5.86
		c0.33-2.33-0.83-4.66-1.87-6.66c-0.54-1.04-1.11-2.1-1.54-3.19c-0.36-0.93-0.65-1.95-0.59-2.96c0.03-0.51,0.15-0.99,0.36-1.45
		c0.21-0.46,0.49-0.87,0.85-1.22c0.72-0.71,1.68-1.16,2.62-1.49c1.11-0.39,2.28-0.65,3.42-0.93c2.2-0.53,4.72-1.18,6.26-2.95
		c1.54-1.77,1.82-4.37,2.03-6.61c0.11-1.17,0.2-2.36,0.43-3.51c0.19-0.98,0.5-2,1.11-2.81c0.3-0.4,0.66-0.75,1.08-1.02
		c0.43-0.27,0.89-0.46,1.38-0.56c0.99-0.21,2.04-0.07,3.01,0.16c1.15,0.27,2.27,0.68,3.38,1.07c2.13,0.74,4.6,1.56,6.86,0.9
		c2.26-0.66,3.89-2.69,5.29-4.47c0.72-0.92,1.45-1.88,2.27-2.73c0.69-0.72,1.5-1.4,2.45-1.76c0.47-0.18,0.96-0.27,1.47-0.27
		c0.51,0,1,0.09,1.47,0.27c0.95,0.36,1.76,1.04,2.45,1.76c0.82,0.85,1.54,1.8,2.26,2.73c1.39,1.77,3.03,3.81,5.28,4.47
		c2.26,0.66,4.73-0.16,6.86-0.9c1.11-0.39,2.23-0.8,3.38-1.07c0.98-0.23,2.03-0.37,3.02-0.16c0.49,0.1,0.95,0.29,1.38,0.56
		c0.43,0.27,0.79,0.62,1.09,1.02c0.6,0.82,0.91,1.83,1.11,2.81c0.23,1.15,0.32,2.34,0.43,3.51c0.22,2.25,0.49,4.84,2.03,6.61
		c1.54,1.77,4.07,2.42,6.26,2.95c1.15,0.28,2.31,0.54,3.42,0.93c0.95,0.33,1.91,0.79,2.63,1.49c0.36,0.36,0.65,0.76,0.85,1.22
		C784.68,747.82,784.8,748.3,784.84,748.81 M786.66,757c1.37-2.65,2.81-5.4,2.61-8.48c-0.07-1.04-0.32-2.05-0.76-3
		c-1.89-4.13-5.88-5.15-9.9-6.12c-0.97-0.24-3.26-0.76-3.94-1.54c-0.68-0.79-0.87-3.12-0.96-4.12c-0.29-3-0.52-6.02-2.39-8.54
		c-0.62-0.84-1.38-1.55-2.26-2.12c-3.81-2.44-7.74-1.15-11.63,0.2c-0.95,0.33-3.15,1.13-4.15,0.84c-1-0.3-2.42-2.16-3.04-2.95
		c-1.87-2.37-3.69-4.78-6.63-5.9c-0.98-0.37-2-0.56-3.05-0.56c-4.53,0-7.12,3.22-9.67,6.46c-0.62,0.79-2.04,2.66-3.04,2.95
		c-1,0.3-3.21-0.51-4.15-0.84c-2.85-0.98-5.7-2.02-8.77-1.38c-1.02,0.21-1.99,0.61-2.86,1.17c-3.82,2.46-4.26,6.56-4.65,10.67
		c-0.1,1-0.28,3.33-0.97,4.12c-0.68,0.79-2.97,1.31-3.94,1.54c-2.93,0.71-5.88,1.37-8.12,3.58c-0.74,0.73-1.34,1.58-1.77,2.54
		c-1.87,4.08-0.02,7.84,1.86,11.48c0.46,0.89,1.57,2.96,1.42,3.99c-0.15,1.03-1.8,2.7-2.49,3.43c-2.08,2.18-4.21,4.34-4.89,7.4
		c-0.23,1.02-0.27,2.06-0.12,3.1c0.65,4.49,4.2,6.6,7.77,8.66c0.87,0.5,2.92,1.64,3.35,2.59c0.43,0.95-0.05,3.25-0.24,4.23
		c-0.57,2.95-1.19,5.94-0.12,8.87c0.36,0.98,0.89,1.88,1.57,2.67c2.97,3.43,7.1,3.28,11.22,3.09c1-0.05,3.34-0.2,4.22,0.37
		c0.88,0.56,1.71,2.75,2.09,3.68c1.12,2.8,2.2,5.63,4.7,7.52c0.83,0.63,1.76,1.1,2.76,1.4c4.3,1.27,7.76-1.09,11.1-3.47
		c0.82-0.58,2.71-1.97,3.75-1.97c1.05,0,2.93,1.39,3.75,1.97c2.46,1.75,4.89,3.55,8.02,3.79c1.04,0.08,2.08-0.03,3.08-0.32
		c4.35-1.28,5.93-5.09,7.46-8.92c0.37-0.93,1.21-3.12,2.09-3.68c0.88-0.57,3.22-0.42,4.22-0.37c3.02,0.14,6.04,0.34,8.8-1.15
		c0.92-0.49,1.74-1.15,2.42-1.94c2.97-3.43,2.24-7.49,1.45-11.54c-0.19-0.98-0.67-3.28-0.23-4.23s2.48-2.09,3.35-2.59
		c2.62-1.51,5.26-2.98,6.78-5.72c0.51-0.92,0.84-1.9,0.99-2.94c0.65-4.49-2.17-7.51-5.02-10.5c-0.69-0.72-2.34-2.4-2.49-3.43
		C785.09,759.95,786.2,757.89,786.66,757"/>
</g>
<g>
	<path class="st1" d="M729.03,766.52c5.43,0,9.01-4.45,9.01-9.72v-0.11c0-5.22-3.53-9.62-8.9-9.62c-5.38,0-9.02,4.4-9.02,9.72v0.11
		C720.12,762.12,723.7,766.52,729.03,766.52 M725.88,783.68c0,1.19,0.92,2.12,2.12,2.12c0.76,0,1.47-0.33,1.9-0.98l24.93-34.05
		c0.27-0.38,0.49-0.87,0.49-1.41c0-1.19-0.98-2.12-2.17-2.12c-0.76,0-1.47,0.33-1.85,0.98l-24.93,34.05
		C726.09,782.65,725.88,783.14,725.88,783.68 M752,785.96c5.38,0,9.02-4.46,9.02-9.72v-0.11c0-5.21-3.58-9.61-8.91-9.61
		c-5.38,0-9.02,4.4-9.02,9.72v0.11C743.09,781.56,746.67,785.96,752,785.96 M729.13,762.33c-2.44,0-4.18-2.44-4.18-5.54v-0.11
		c0-2.93,1.52-5.43,4.07-5.43c2.44,0,4.18,2.5,4.18,5.54v0.11C733.2,759.84,731.69,762.33,729.13,762.33 M752.11,781.78
		c-2.44,0-4.18-2.44-4.18-5.54v-0.11c0-2.93,1.52-5.43,4.07-5.43c2.44,0,4.18,2.5,4.18,5.54v0.11
		C756.18,779.28,754.66,781.78,752.11,781.78"/>
</g>
<g>
	<g>
		<path class="st0" d="M466.98,304.86c0,40.06-32.48,72.54-72.54,72.54s-72.54-32.48-72.54-72.54s32.48-72.54,72.54-72.54
			S466.98,264.79,466.98,304.86"/>
	</g>
</g>
<g>
	<g>
		<path class="st0" d="M832,304.86c0,40.06-32.48,72.54-72.54,72.54c-40.06,0-72.54-32.48-72.54-72.54s32.48-72.54,72.54-72.54
			C799.52,232.31,832,264.79,832,304.86"/>
	</g>
	<g>
		<path class="st1" d="M765.84,311.36c-10.08,10.25-26.47,10.25-36.54,0c-10.08-10.25-10.08-26.94,0-37.2
			c10.08-10.25,26.47-10.25,36.54,0C775.92,284.42,775.92,301.1,765.84,311.36 M771.37,268.53c-13.13-13.36-34.48-13.36-47.61,0
			c-13.13,13.36-13.13,35.1,0,48.45c11.71,11.92,29.98,13.2,43.1,3.85l23.4,23.81c2.29,2.33,6.01,2.33,8.3,0
			c2.29-2.33,2.29-6.11,0-8.44l-23.4-23.81C784.35,299.04,783.09,280.45,771.37,268.53"/>
	</g>
</g>
<g>
	<path class="st1" d="M420.21,346.88c0,4.53-3.07,8.22-6.84,8.22h-35.94c-3.77,0-6.84-3.69-6.84-8.22v-84.06
		c0-4.53,3.07-8.21,6.84-8.21h7.1v1.63c0,1.91,1.56,3.47,3.48,3.47h14.79c1.91,0,3.48-1.56,3.48-3.47v-1.63h7.1
		c3.77,0,6.84,3.68,6.84,8.21V346.88z M413.37,250.93h-35.94c-5.8,0-10.52,5.34-10.52,11.9v84.06c0,6.56,4.72,11.9,10.52,11.9h35.94
		c5.8,0,10.52-5.34,10.52-11.9v-84.06C423.9,256.26,419.18,250.93,413.37,250.93"/>
</g>
<g>
	<path class="st1" d="M403.75,298.39c-1.72,0.67-4.07,2.69-7.18,6.17c-1,1.12-1.9,2.2-2.6,3.05c-1.42-1.5-3.48-3.61-4.59-4.47
		c-0.83-0.64-2.01-0.49-2.65,0.34c-0.63,0.82-0.48,2.01,0.34,2.65c1.24,0.95,4.48,4.4,5.62,5.64c0.36,0.39,0.86,0.61,1.39,0.61
		c0.03,0,0.06,0,0.08,0c0.56-0.03,1.08-0.3,1.41-0.73c0.02-0.03,1.71-2.23,3.81-4.57c3.63-4.07,5.21-4.96,5.73-5.16
		c0.97-0.38,1.45-1.47,1.08-2.45C405.82,298.49,404.73,298.01,403.75,298.39"/>
</g>
<g>
	<path class="st1" d="M395.41,319.67c-8.17,0-14.81-6.64-14.81-14.81c0-8.17,6.64-14.81,14.81-14.81c8.17,0,14.81,6.64,14.81,14.81
		C410.22,313.02,403.57,319.67,395.41,319.67 M395.41,286.9c-4.8,0-9.31,1.87-12.7,5.26c-3.39,3.39-5.26,7.9-5.26,12.7
		c0,4.79,1.87,9.31,5.26,12.7c3.39,3.39,7.9,5.26,12.7,5.26c4.79,0,9.3-1.87,12.7-5.26c3.39-3.39,5.26-7.9,5.26-12.7
		c0-4.8-1.87-9.31-5.26-12.7C404.71,288.77,400.2,286.9,395.41,286.9"/>
</g>
<g>
	<path class="st0" d="M1549.47,308.55c0,40.06-32.48,72.54-72.54,72.54c-40.06,0-72.54-32.48-72.54-72.54
		c0-40.06,32.48-72.54,72.54-72.54C1516.99,236.01,1549.47,268.49,1549.47,308.55"/>
</g>
<g>
	<path class="st1" d="M1432.13,326.72c0.73-0.73,1.74-1.12,2.77-1.06l15.83,1.4c0.53,0.05,1.06-0.16,1.41-0.56l19.11-21.47
		c0.35-0.39,0.5-0.93,0.4-1.44c-0.1-0.52-0.43-0.96-0.9-1.2l-38.15-19.41l3.14-3.13c1.05-1.05,2.58-1.46,4.01-1.07l44.53,12.04
		c0.59,0.16,1.21-0.01,1.64-0.44l14.45-14.45c3.74-3.74,8.7-5.89,13.99-6.07c0.01,0,0.02,0,0.03,0.01c0.01,0.01,0.01,0.02,0.01,0.03
		c-0.18,5.28-2.33,10.25-6.07,13.99l-14.45,14.45c-0.43,0.43-0.6,1.05-0.44,1.64l12.04,44.52c0.39,1.43-0.02,2.96-1.07,4.01
		l-3.13,3.13l-19.41-38.15c-0.24-0.47-0.68-0.8-1.2-0.9c-0.52-0.1-1.05,0.05-1.44,0.4l-21.47,19.11c-0.4,0.36-0.61,0.89-0.56,1.42
		l1.4,15.83c0.05,1.03-0.33,2.04-1.07,2.77l-0.73,0.73l-5.61-15.39c-0.37-1.02-0.95-1.91-1.71-2.68s-1.67-1.34-2.68-1.71
		l-15.39-5.62L1432.13,326.72z M1429.23,330.28l16.39,5.98c0.55,0.2,1.03,0.51,1.44,0.92c0.41,0.41,0.72,0.9,0.92,1.45l5.99,16.39
		c0.32,0.87,1.05,1.52,1.96,1.72c0.2,0.04,0.39,0.07,0.59,0.07c0.71,0,1.4-0.28,1.91-0.8l1.48-1.48c1.42-1.42,2.17-3.38,2.05-5.39
		c0-0.02,0-0.03,0-0.05l-1.32-15.01l19.19-17.08l18.8,36.95c0.4,0.79,1.16,1.35,2.04,1.48c0.87,0.14,1.77-0.15,2.4-0.78l3.74-3.74
		c1.9-1.9,2.65-4.7,1.95-7.29l-11.79-43.58l13.75-13.75c4.35-4.35,6.86-10.13,7.06-16.28c0.03-0.95-0.33-1.87-1-2.54
		c-0.67-0.67-1.6-1.04-2.54-1c-6.15,0.2-11.93,2.71-16.28,7.06l-13.75,13.75l-43.58-11.78c-2.6-0.7-5.39,0.04-7.3,1.94l-3.74,3.74
		c-0.62,0.63-0.92,1.52-0.78,2.4c0.14,0.88,0.69,1.64,1.48,2.04l36.95,18.81l-17.08,19.19l-15.01-1.32c-0.02,0-0.03,0-0.05,0
		c-2-0.12-3.97,0.63-5.39,2.05l-1.48,1.48c-0.66,0.66-0.93,1.6-0.73,2.5C1427.71,329.22,1428.35,329.96,1429.23,330.28"/>
</g>
<g>
	<path class="st1" d="M1456.52,357.78c-0.28,0-0.55-0.03-0.82-0.09c-1.22-0.27-2.22-1.14-2.66-2.33l-5.99-16.39
		c-0.15-0.41-0.38-0.78-0.69-1.09c-0.31-0.31-0.67-0.54-1.08-0.68l-16.39-5.99c-1.19-0.43-2.08-1.44-2.35-2.67
		c-0.28-1.24,0.1-2.52,1-3.42l1.48-1.48c1.63-1.63,3.89-2.48,6.15-2.34l14.6,1.29l15.9-17.86l-35.81-18.23
		c-1.07-0.54-1.82-1.57-2.01-2.76c-0.19-1.19,0.2-2.4,1.05-3.25l3.73-3.74c2.15-2.15,5.32-2.98,8.25-2.2l43.03,11.63l13.35-13.34
		c4.52-4.53,10.53-7.14,16.94-7.35c1.23-0.04,2.41,0.43,3.28,1.29c0.85,0.87,1.32,2.06,1.29,3.27c-0.22,6.4-2.82,12.42-7.35,16.94
		l-13.35,13.35l11.64,43.03c0.8,2.94-0.05,6.1-2.21,8.25l-3.73,3.74c-0.85,0.85-2.06,1.25-3.25,1.06c-1.19-0.19-2.22-0.94-2.76-2.01
		l-18.22-35.81l-17.87,15.9l1.29,14.52c0.14,2.36-0.72,4.6-2.33,6.22l-1.49,1.49C1458.45,357.39,1457.49,357.78,1456.52,357.78z
		 M1434.71,323.25c-1.61,0-3.15,0.63-4.29,1.77l-1.48,1.49c-0.42,0.42-0.6,1.02-0.47,1.6c0.13,0.58,0.54,1.04,1.1,1.25v0l16.38,5.99
		c0.67,0.24,1.29,0.63,1.81,1.15c0.51,0.52,0.89,1.12,1.14,1.8l5.99,16.39c0.21,0.55,0.68,0.97,1.25,1.09
		c0.55,0.12,1.19-0.05,1.59-0.47l1.49-1.49c1.22-1.23,1.87-2.92,1.77-4.64l-1.37-15.53l20.52-18.26l19.38,38.09
		c0.26,0.51,0.75,0.87,1.32,0.96c0.57,0.1,1.15-0.1,1.54-0.5l3.74-3.74c1.66-1.65,2.31-4.08,1.7-6.34l-11.94-44.13l14.15-14.16
		c4.17-4.17,6.58-9.72,6.78-15.61c0.02-0.67-0.24-1.34-0.72-1.82c-0.45-0.45-1.08-0.72-1.72-0.72c-0.03,0-0.06,0-0.08,0
		c-5.9,0.2-11.45,2.6-15.61,6.78l-14.16,14.15l-0.55-0.15l-43.58-11.78c-2.28-0.62-4.69,0.04-6.34,1.69l-3.74,3.74
		c-0.41,0.4-0.59,0.98-0.51,1.55c0.09,0.56,0.45,1.05,0.96,1.31l38.08,19.39l-18.25,20.51l-15.51-1.37
		C1434.96,323.25,1434.84,323.25,1434.71,323.25z M1456.4,354.64l-6.15-16.84c-0.32-0.87-0.82-1.65-1.49-2.32
		c-0.66-0.66-1.44-1.16-2.32-1.48l-16.83-6.15l1.81-1.82c0.93-0.93,2.14-1.43,3.52-1.35l15.87,1.4c0.19-0.02,0.44-0.07,0.58-0.23
		l19.12-21.47c0.15-0.17,0.22-0.39,0.17-0.61c-0.04-0.22-0.18-0.4-0.38-0.51l-39.36-20.02l4.1-4.09c1.28-1.29,3.18-1.81,4.96-1.32
		l44.52,12.04c0.27,0.06,0.52,0,0.69-0.18l14.44-14.44c3.91-3.91,9.11-6.17,14.66-6.36l0.42-0.02l0.62,0.61l0.01,0.43
		c-0.18,5.56-2.45,10.76-6.36,14.68l-14.44,14.45c-0.18,0.18-0.25,0.44-0.19,0.68l12.04,44.53c0.47,1.77-0.03,3.67-1.32,4.96
		l-4.09,4.09l-20.03-39.36c-0.1-0.2-0.28-0.34-0.51-0.38c-0.18-0.01-0.43,0.03-0.6,0.17l-21.48,19.11c-0.15,0.15-0.25,0.37-0.22,0.6
		l1.39,15.83c0.07,1.35-0.42,2.63-1.35,3.55L1456.4,354.64z M1433.25,327.08l13.87,5.07c1.15,0.42,2.17,1.07,3.04,1.94
		c0.87,0.88,1.52,1.9,1.93,3.04l5.07,13.88c0.31-0.47,0.46-1.03,0.43-1.6l-1.39-15.8c-0.07-0.83,0.25-1.66,0.87-2.23l21.49-19.12
		c0.62-0.56,1.46-0.79,2.27-0.64c0.83,0.16,1.52,0.68,1.9,1.42l18.8,36.95l2.17-2.17c0.8-0.8,1.12-1.97,0.82-3.06l-12.04-44.52
		c-0.25-0.92,0.02-1.92,0.7-2.6l14.44-14.44c3.32-3.32,5.33-7.65,5.73-12.29c-4.63,0.39-8.97,2.4-12.28,5.72l-14.44,14.44
		c-0.69,0.68-1.69,0.94-2.61,0.69l-44.52-12.04c-1.07-0.28-2.25,0.02-3.06,0.82l-2.18,2.18l36.95,18.8c0.75,0.38,1.27,1.09,1.42,1.9
		c0.15,0.81-0.08,1.65-0.64,2.28l-19.11,21.47c-0.56,0.63-1.42,0.99-2.23,0.89l-15.84-1.4
		C1434.24,326.59,1433.72,326.77,1433.25,327.08z"/>
</g>
</svg>
